<!-- Generator: Adobe Illustrator 18.0.0, SVG Export Plug-In  -->
<svg version="1.1"
	 xmlns="http://www.w3.org/2000/svg" xmlns:xlink="http://www.w3.org/1999/xlink" xmlns:a="http://ns.adobe.com/AdobeSVGViewerExtensions/3.0/"
	 x="0px" y="0px" width="48.2px" height="107.8px" viewBox="0 0 48.2 107.8" enable-background="new 0 0 48.2 107.8"
	 xml:space="preserve">
<defs>
</defs>
<g>
	<circle fill="#6E6E6E" cx="17" cy="16.1" r="16.1"/>
	<circle fill="#ABABAB" cx="16.1" cy="16.2" r="16.1"/>
	<g>
		<path fill="#545454" d="M25.4,25.5c-5.1,5.1-13.5,5.1-18.6,0C1.7,20.4,1.7,12,6.8,6.9c5.1-5.1,13.5-5.1,18.6,0
			C30.5,12,30.5,20.4,25.4,25.5z M7.8,8c-4.5,4.5-4.5,11.9,0,16.5c4.5,4.5,11.9,4.5,16.5,0c4.5-4.5,4.5-11.9,0-16.5
			C19.8,3.4,12.4,3.4,7.8,8z"/>
	</g>
	<circle fill="#545454" cx="16.1" cy="16.2" r="9.5"/>
	<g>
		<path fill="#C9C9C9" d="M43,93.8c-0.8,0.8-2.2,0.8-3.4,0.7c-0.4,0-0.9-0.1-1.3,0c0,0.3,0,0.9,0,1.3c0.1,1.3,0.2,2.8-0.9,3.6
			c-1.1,0.8-2.5,0.3-3.7-0.2c-0.4-0.1-0.9-0.3-1.2-0.4c-0.1,0.3-0.3,0.9-0.4,1.2c-0.3,1.3-0.7,2.7-2,3.1c-1.3,0.4-2.4-0.5-3.4-1.4
			c-0.3-0.2-0.7-0.6-1-0.8c-0.2,0.2-0.5,0.7-0.7,1c-0.7,1.1-1.5,2.4-2.9,2.4v-2.7c-0.1,0-0.2,0-0.3,0.1c0.2-0.1,0.6-0.8,0.9-1.2
			c0.7-1,1.4-2.1,2.5-2.3c1.2-0.2,2.2,0.6,3.2,1.4c0.2,0.2,0.6,0.5,0.9,0.7c0.1-0.3,0.2-0.8,0.3-1.1c0.3-1.2,0.6-2.5,1.7-3
			c1.1-0.5,2.3-0.1,3.5,0.4c0.3,0.1,0.7,0.3,1,0.4c0-0.3,0-0.8,0-1.1c-0.1-1.3-0.1-2.6,0.7-3.4c0.8-0.8,2.1-0.8,3.4-0.7
			c0.3,0,0.8,0,1.1,0c-0.1-0.3-0.3-0.7-0.4-1c-0.5-1.2-0.9-2.4-0.4-3.5c0.5-1.1,1.8-1.4,3-1.7c0.3-0.1,0.7-0.2,1.1-0.3
			c-0.2-0.3-0.5-0.6-0.7-0.9c-0.8-1-1.6-2-1.4-3.2c0.2-1.2,1.3-1.9,2.3-2.5c0.3-0.2,0.7-0.4,0.9-0.6c-0.3-0.2-0.7-0.5-0.9-0.6
			c-1-0.7-2.1-1.4-2.3-2.5c-0.2-1.2,0.6-2.2,1.4-3.2c0.2-0.2,0.5-0.6,0.7-0.9c-0.3-0.1-0.8-0.2-1.1-0.3c-1.2-0.3-2.5-0.6-3-1.7
			c-0.5-1.1-0.1-2.3,0.4-3.5c0.1-0.3,0.3-0.7,0.4-1c-0.3,0-0.8,0-1.1,0c-1.3,0.1-2.6,0.1-3.4-0.7c-0.8-0.8-0.8-2.1-0.7-3.4
			c0-0.3,0-0.8,0-1.1c-0.3,0.1-0.7,0.3-1,0.4c-1.2,0.5-2.4,0.9-3.5,0.4c-1.1-0.5-1.4-1.8-1.7-3c-0.1-0.3-0.2-0.7-0.3-1.1
			c-0.3,0.2-0.6,0.5-0.9,0.7c-1,0.8-2,1.6-3.2,1.4c-1.2-0.2-1.9-1.3-2.5-2.3c-0.3-0.4-0.7-1.1-0.9-1.2c0,0,0.1,0.1,0.3,0.1v-2.7
			c1.4,0,2.2,1.3,2.9,2.4c0.2,0.3,0.5,0.8,0.7,1c0.3-0.2,0.7-0.5,1-0.8c1-0.8,2.2-1.8,3.4-1.4c1.3,0.4,1.7,1.9,2,3.1
			c0.1,0.4,0.2,0.9,0.4,1.2c0.3-0.1,0.9-0.3,1.2-0.4c1.2-0.5,2.6-1,3.7-0.2c1.1,0.8,1,2.3,0.9,3.6c0,0.4-0.1,0.9,0,1.3
			c0.3,0,0.9,0,1.3,0c1.3-0.1,2.8-0.2,3.6,0.9c0.8,1.1,0.3,2.5-0.2,3.7c-0.1,0.3-0.3,0.9-0.4,1.2c0.3,0.1,0.9,0.3,1.2,0.4
			c1.3,0.3,2.7,0.7,3.2,2c0.4,1.3-0.5,2.4-1.4,3.4c-0.2,0.3-0.6,0.7-0.8,1c0.2,0.2,0.7,0.5,1,0.7c1.1,0.7,2.4,1.5,2.4,2.9
			c0,1.4-1.3,2.2-2.4,2.9c-0.3,0.2-0.8,0.5-1,0.7c0.2,0.3,0.5,0.7,0.8,1c0.8,1,1.8,2.2,1.4,3.4c-0.4,1.3-1.9,1.7-3.2,2
			c-0.4,0.1-0.9,0.2-1.2,0.4c0.1,0.3,0.3,0.9,0.4,1.2c0.5,1.2,1,2.6,0.2,3.7C43.1,93.6,43.1,93.7,43,93.8z"/>
	</g>
	<path fill="#545454" d="M14.7,89.5c-2.5,0-4.6-2-4.6-4.6l0-66.5c0-2.5,2-4.6,4.6-4.6l4.1,0c2.5,0,4.6,2,4.6,4.6l0,66.5
		c0,2.5-2,4.6-4.6,4.6L14.7,89.5z"/>
	<path fill="#C9C9C9" d="M13.6,63.9c-3.9,0-7-0.7-7-1.5l0-21.5c0-0.8,3.1-1.5,7-1.5l6.3,0c3.9,0,7,0.7,7,1.5l0,21.5
		c0,0.8-3.1,1.5-7,1.5L13.6,63.9z"/>
	<circle fill="#ABABAB" cx="16.7" cy="91.7" r="16.1"/>
	<circle fill="#6E6E6E" cx="16.7" cy="91.7" r="9.5"/>
</g>
</svg>
