<!-- Generator: Adobe Illustrator 18.0.0, SVG Export Plug-In  -->
<svg version="1.1"
	 xmlns="http://www.w3.org/2000/svg" xmlns:xlink="http://www.w3.org/1999/xlink" xmlns:a="http://ns.adobe.com/AdobeSVGViewerExtensions/3.0/"
	 x="0px" y="0px" width="5.6px" height="8.2px" viewBox="0 0 5.6 8.2" enable-background="new 0 0 5.6 8.2" xml:space="preserve">
<defs>
</defs>
<g>
	<path fill="#1B93A2" d="M5.6,7.6c0,0.4-0.4,0.6-0.8,0.6H0.8C0.3,8.2,0,7.9,0,7.6V0.6C0,0.3,0.3,0,0.8,0h4.1c0.4,0,0.8,0.3,0.8,0.6
		V7.6z"/>
	<path fill="#1DAFBE" d="M5.6,7.6c0,0.4-0.3,0.6-0.6,0.6H1.7C1.3,8.2,1,7.9,1,7.6V0.6C1,0.3,1.3,0,1.7,0H5c0.4,0,0.6,0.3,0.6,0.6
		V7.6z"/>
</g>
</svg>
