<!-- Generator: Adobe Illustrator 18.0.0, SVG Export Plug-In  -->
<svg version="1.1"
	 xmlns="http://www.w3.org/2000/svg" xmlns:xlink="http://www.w3.org/1999/xlink" xmlns:a="http://ns.adobe.com/AdobeSVGViewerExtensions/3.0/"
	 x="0px" y="0px" width="64.2px" height="43.7px" viewBox="0 0 64.2 43.7" enable-background="new 0 0 64.2 43.7"
	 xml:space="preserve">
<defs>
</defs>
<path fill="#FFFFFF" d="M60.9,43.6c1.4-5,2.2-7.5,2.2-11.5C63.1,14.9,49.2,1,32.1,1C14.9,1,1,14.9,1,32.1c0,4.1,0.8,6.5,2.2,11.5
	H60.9z"/>
<path fill="#E62E31" d="M54.6,10.8L49.4,16c3.9,4.2,6.4,9.8,6.4,16c0,4.2-1.1,8.6-3.1,11.6h8.2c0.1,0,0.2-0.5,0.3-0.7
	c0.7-2.3,1.3-4.3,1.6-6.3c0-0.2,0-0.3,0.1-0.4c0.1-0.4,0.1-0.7,0.1-1.1c0.1-1,0.1-1.9,0.1-2.9C63.1,23.9,59.9,16.4,54.6,10.8z"/>
<path fill="#F3912A" d="M16,14.8c4.2-3.9,9.9-6.4,16.1-6.4c6.3,0,12,2.5,16.3,6.5l5.2-5.2c-5.5-5.3-13-8.6-21.3-8.7
	c-0.1,0-0.1,0-0.2,0c-8.3,0-15.7,3.3-21.3,8.5L16,14.8z"/>
<path fill="#7FBB48" d="M10.8,43.6c-1.5-3-2.4-7.1-2.4-10.8c0-6.3,2.5-12.8,6.5-17l-5.2-5.2c-2.7,2.8-4.9,6.1-6.4,9.7
	c0,0.1,0,0.1-0.1,0.2c-0.3,0.9-0.7,1.7-0.9,2.6c0,0.2-0.1,0.3-0.1,0.5C2,24.4,1.8,25.2,1.6,26c-0.1,0.3-0.1,0.6-0.1,0.9
	c-0.1,0.7-0.2,1.4-0.3,2.1c-0.1,1-0.2,2.1-0.2,3.1c0,1,0.1,2,0.1,2.9c0,0.3,0.1,0.7,0.1,1c0,0.2,0.1,0.3,0.1,0.5c0.4,2.2,1,5,1.9,7
	H10.8z"/>
<path fill="#B2B1A1" d="M4.4,43.6c-1.5-3-2.3-7.4-2.3-11.5c0-16.6,13.5-30,30-30c16.5,0,30,13.5,30,30c0,4.1-0.8,8.5-2.3,11.5H62
	c1.4-5,2.1-7.5,2.1-11.5C64.2,14.4,49.8,0,32.1,0C14.4,0,0,14.4,0,32.1c0,4,0.8,6.5,2.1,11.5H4.4z"/>
<path fill="#B2B1A1" d="M61.2,43.7H2.9c-0.6,0-1.1-0.5-1.1-1.1c0-0.6,0.5-1.1,1.1-1.1h58.3c0.6,0,1.1,0.5,1.1,1.1
	C62.4,43.2,61.9,43.7,61.2,43.7z"/>
</svg>
