<!-- Generator: Adobe Illustrator 18.0.0, SVG Export Plug-In  -->
<svg version="1.1"
	 xmlns="http://www.w3.org/2000/svg" xmlns:xlink="http://www.w3.org/1999/xlink" xmlns:a="http://ns.adobe.com/AdobeSVGViewerExtensions/3.0/"
	 x="0px" y="0px" width="62.1px" height="62.1px" viewBox="0 0 62.1 62.1" enable-background="new 0 0 62.1 62.1"
	 xml:space="preserve">
<defs>
</defs>
<g>
	<circle opacity="0" fill="#FFFFFF" cx="31.1" cy="31.1" r="31"/>
	<path fill="#545454" d="M36.4,31.7c-0.4,2.9-3.1,5-6,4.6c-2.9-0.4-5-3.1-4.6-6c0.4-2.9,3.1-5,6-4.6C34.7,26.1,36.7,28.8,36.4,31.7z
		 M27.4,30.6c-0.3,2,1.2,3.8,3.2,4.1c2,0.3,3.8-1.2,4.1-3.2s-1.2-3.8-3.2-4.1C29.5,27.2,27.7,28.6,27.4,30.6z"/>
	<path fill="#545454" d="M26.8,29.7c0.2,0.2,0.3,0.5,0.2,0.8c-0.1,0.6-0.6,1.1-1.3,1L5.2,28.9c-0.6-0.1-1.1-0.6-1-1.3
		c0.1-0.6,0.6-1.1,1.3-1l20.6,2.7C26.4,29.3,26.6,29.5,26.8,29.7z"/>
</g>
</svg>
