<!-- Generator: Adobe Illustrator 18.0.0, SVG Export Plug-In  -->
<svg version="1.1"
	 xmlns="http://www.w3.org/2000/svg" xmlns:xlink="http://www.w3.org/1999/xlink" xmlns:a="http://ns.adobe.com/AdobeSVGViewerExtensions/3.0/"
	 x="0px" y="0px" width="29.1px" height="29.1px" viewBox="0 0 29.1 29.1" enable-background="new 0 0 29.1 29.1"
	 xml:space="preserve">
<defs>
</defs>
<g>
	<g>
		<path fill="#1B93A2" d="M28.4,12.1h-1.8c-0.1-0.6-0.3-1.2-0.5-1.8l1.5-0.9c0.4-0.2,0.5-0.7,0.3-1l-1.5-2.6c-0.2-0.4-0.7-0.5-1-0.3
			l-1.6,0.9c-0.4-0.5-0.9-0.9-1.4-1.3l0.9-1.5c0.2-0.4,0.1-0.8-0.3-1l-2.6-1.5c-0.4-0.2-0.8-0.1-1,0.3l-0.9,1.6
			c-0.6-0.2-1.2-0.4-1.8-0.5V0.8c0-0.4-0.3-0.8-0.7-0.8h-3c-0.4,0-0.8,0.3-0.8,0.8v1.8c-0.6,0.1-1.2,0.3-1.8,0.5L9.5,1.6
			c-0.2-0.4-0.7-0.5-1-0.3L5.8,2.8C5.5,3,5.4,3.4,5.6,3.8l0.9,1.6C6,5.8,5.5,6.2,5.1,6.7L3.6,5.9c-0.4-0.2-0.8-0.1-1,0.3L1.1,8.7
			C0.9,9.1,1,9.5,1.4,9.7l1.5,0.9c-0.2,0.6-0.4,1.2-0.5,1.8H0.8c-0.4,0-0.8,0.3-0.7,0.7l0,3C0,16.6,0.3,17,0.8,17h1.8
			c0.1,0.6,0.3,1.2,0.5,1.8l-1.5,0.9c-0.4,0.2-0.5,0.7-0.3,1l1.5,2.6c0.2,0.4,0.7,0.5,1,0.3l1.6-0.9c0.4,0.5,0.9,0.9,1.4,1.3
			l-0.9,1.5c-0.2,0.4-0.1,0.8,0.3,1L8.7,28c0.4,0.2,0.8,0.1,1-0.3l0.9-1.5c0.6,0.2,1.2,0.4,1.8,0.5l0,1.7c0,0.4,0.3,0.7,0.7,0.7l3,0
			c0.4,0,0.7-0.3,0.8-0.7v-1.8c0.6-0.1,1.2-0.3,1.8-0.5l0.9,1.5c0.2,0.4,0.7,0.5,1,0.3l2.6-1.5c0.4-0.2,0.5-0.7,0.3-1l-0.9-1.6
			c0.5-0.4,0.9-0.9,1.3-1.4l1.5,0.9c0.4,0.2,0.8,0.1,1-0.3l1.5-2.6c0.2-0.4,0.1-0.8-0.3-1l-1.6-0.9c0.2-0.6,0.4-1.2,0.5-1.8h1.7
			c0.4,0,0.7-0.3,0.7-0.8v-3C29.1,12.5,28.8,12.1,28.4,12.1z M14.6,22.3c-4.3,0-7.8-3.5-7.8-7.8c0-4.3,3.5-7.8,7.8-7.8
			c4.3,0,7.8,3.5,7.8,7.8C22.3,18.8,18.8,22.3,14.6,22.3z"/>
		<path fill="#1DAFBE" d="M14.3,22.3c-4.2-0.1-7.5-3.6-7.5-7.8c0-4.2,3.3-7.6,7.5-7.8l0-6.8h-1.4c-0.4,0-0.8,0.3-0.8,0.8v1.8
			c-0.6,0.1-1.2,0.3-1.8,0.5L9.5,1.6c-0.2-0.4-0.7-0.5-1-0.3L5.8,2.8C5.5,3,5.4,3.4,5.6,3.8l0.9,1.6C6,5.8,5.5,6.2,5.1,6.7L3.6,5.9
			c-0.4-0.2-0.8-0.1-1,0.3L1.1,8.7C0.9,9.1,1,9.5,1.4,9.7l1.5,0.9c-0.2,0.6-0.4,1.2-0.5,1.8H0.8c-0.4,0-0.8,0.3-0.7,0.7l0,3
			C0,16.6,0.3,17,0.8,17h1.8c0.1,0.6,0.3,1.2,0.5,1.8l-1.5,0.9c-0.4,0.2-0.5,0.7-0.3,1l1.5,2.6c0.2,0.4,0.7,0.5,1,0.3l1.6-0.9
			c0.4,0.5,0.9,0.9,1.4,1.3l-0.9,1.5c-0.2,0.4-0.1,0.8,0.3,1L8.7,28c0.4,0.2,0.8,0.1,1-0.3l0.9-1.5c0.6,0.2,1.2,0.4,1.8,0.5l0,1.7
			c0,0.4,0.3,0.7,0.7,0.7l1.1,0L14.3,22.3z"/>
		<path fill="#1B93A2" d="M14.6,5.1c-5.2,0-9.5,4.2-9.5,9.5c0,5.2,4.2,9.5,9.5,9.5c5.2,0,9.5-4.2,9.5-9.5C24,9.3,19.8,5.1,14.6,5.1z
			 M14.6,22.3c-4.3,0-7.8-3.5-7.8-7.8c0-4.3,3.5-7.8,7.8-7.8c4.3,0,7.8,3.5,7.8,7.8C22.3,18.8,18.8,22.3,14.6,22.3z"/>
		<path fill="#1DAFBE" d="M14.6,5.1c-0.1,0-0.2,0-0.3,0v1.7c0.1,0,0.2,0,0.3,0c4.3,0,7.8,3.5,7.8,7.8c0,4.3-3.5,7.8-7.8,7.8
			c-0.1,0-0.2,0-0.3,0V24c0.1,0,0.2,0,0.3,0c5.2,0,9.5-4.2,9.5-9.5C24,9.3,19.8,5.1,14.6,5.1z"/>
	</g>
</g>
</svg>
