<!-- Generator: Adobe Illustrator 18.0.0, SVG Export Plug-In  -->
<svg version="1.1"
	 xmlns="http://www.w3.org/2000/svg" xmlns:xlink="http://www.w3.org/1999/xlink" xmlns:a="http://ns.adobe.com/AdobeSVGViewerExtensions/3.0/"
	 x="0px" y="0px" width="721.8px" height="21px" viewBox="0 0 721.8 21" enable-background="new 0 0 721.8 21" xml:space="preserve"
	>
<defs>
</defs>
<path fill="#ABABAB" d="M721.8,10.5c0,5.8-4.7,10.5-10.5,10.5H10.5C4.7,21,0,16.3,0,10.5l0,0C0,4.7,4.7,0,10.5,0h700.8
	C717.1,0,721.8,4.7,721.8,10.5L721.8,10.5z"/>
<path fill="#6E6E6E" d="M10.5,18.7c-4.5,0-8.2-3.7-8.2-8.2C2.3,6,6,2.3,10.5,2.3h700.8c4.5,0,8.2,3.7,8.2,8.2c0,4.5-3.7,8.2-8.2,8.2
	H10.5z"/>
<g>
	<path fill="#333333" d="M715.7,10.6c0,2.9-2.3,5.2-5.2,5.2H9.7c-2.9,0-5.2-2.3-5.2-5.2l0,0c0-2.9,2.3-5.2,5.2-5.2h700.8
		C713.4,5.4,715.7,7.7,715.7,10.6L715.7,10.6z"/>
	<g>
		<path fill="#333333" d="M710.5,16.4h-0.8c-0.3,0-0.6-0.3-0.6-0.6c0-0.3,0.3-0.6,0.6-0.6h0.8c0.3,0,0.6,0,0.8-0.1
			c0.3-0.1,0.6,0.2,0.7,0.5c0.1,0.3-0.2,0.6-0.5,0.7C711.2,16.4,710.9,16.4,710.5,16.4z M707.9,16.4h-1.8c-0.3,0-0.6-0.3-0.6-0.6
			c0-0.3,0.3-0.6,0.6-0.6h1.8c0.3,0,0.6,0.3,0.6,0.6C708.5,16.1,708.2,16.4,707.9,16.4z M704.3,16.4h-1.8c-0.3,0-0.6-0.3-0.6-0.6
			c0-0.3,0.3-0.6,0.6-0.6h1.8c0.3,0,0.6,0.3,0.6,0.6C704.9,16.1,704.6,16.4,704.3,16.4z M700.7,16.4h-1.8c-0.3,0-0.6-0.3-0.6-0.6
			c0-0.3,0.3-0.6,0.6-0.6h1.8c0.3,0,0.6,0.3,0.6,0.6C701.3,16.1,701,16.4,700.7,16.4z M697.1,16.4h-1.8c-0.3,0-0.6-0.3-0.6-0.6
			c0-0.3,0.3-0.6,0.6-0.6h1.8c0.3,0,0.6,0.3,0.6,0.6C697.7,16.1,697.4,16.4,697.1,16.4z M693.5,16.4h-1.8c-0.3,0-0.6-0.3-0.6-0.6
			c0-0.3,0.3-0.6,0.6-0.6h1.8c0.3,0,0.6,0.3,0.6,0.6C694.1,16.1,693.8,16.4,693.5,16.4z M689.9,16.4h-1.8c-0.3,0-0.6-0.3-0.6-0.6
			c0-0.3,0.3-0.6,0.6-0.6h1.8c0.3,0,0.6,0.3,0.6,0.6C690.5,16.1,690.2,16.4,689.9,16.4z M686.3,16.4h-1.8c-0.3,0-0.6-0.3-0.6-0.6
			c0-0.3,0.3-0.6,0.6-0.6h1.8c0.3,0,0.6,0.3,0.6,0.6C686.9,16.1,686.6,16.4,686.3,16.4z M682.7,16.4h-1.8c-0.3,0-0.6-0.3-0.6-0.6
			c0-0.3,0.3-0.6,0.6-0.6h1.8c0.3,0,0.6,0.3,0.6,0.6C683.3,16.1,683,16.4,682.7,16.4z M679.1,16.4h-1.8c-0.3,0-0.6-0.3-0.6-0.6
			c0-0.3,0.3-0.6,0.6-0.6h1.8c0.3,0,0.6,0.3,0.6,0.6C679.7,16.1,679.5,16.4,679.1,16.4z M675.5,16.4h-1.8c-0.3,0-0.6-0.3-0.6-0.6
			c0-0.3,0.3-0.6,0.6-0.6h1.8c0.3,0,0.6,0.3,0.6,0.6C676.1,16.1,675.9,16.4,675.5,16.4z M671.9,16.4h-1.8c-0.3,0-0.6-0.3-0.6-0.6
			c0-0.3,0.3-0.6,0.6-0.6h1.8c0.3,0,0.6,0.3,0.6,0.6C672.5,16.1,672.3,16.4,671.9,16.4z M668.3,16.4h-1.8c-0.3,0-0.6-0.3-0.6-0.6
			c0-0.3,0.3-0.6,0.6-0.6h1.8c0.3,0,0.6,0.3,0.6,0.6C668.9,16.1,668.7,16.4,668.3,16.4z M664.7,16.4h-1.8c-0.3,0-0.6-0.3-0.6-0.6
			c0-0.3,0.3-0.6,0.6-0.6h1.8c0.3,0,0.6,0.3,0.6,0.6C665.3,16.1,665.1,16.4,664.7,16.4z M661.1,16.4h-1.8c-0.3,0-0.6-0.3-0.6-0.6
			c0-0.3,0.3-0.6,0.6-0.6h1.8c0.3,0,0.6,0.3,0.6,0.6C661.7,16.1,661.5,16.4,661.1,16.4z M657.6,16.4h-1.8c-0.3,0-0.6-0.3-0.6-0.6
			c0-0.3,0.3-0.6,0.6-0.6h1.8c0.3,0,0.6,0.3,0.6,0.6C658.2,16.1,657.9,16.4,657.6,16.4z M654,16.4h-1.8c-0.3,0-0.6-0.3-0.6-0.6
			c0-0.3,0.3-0.6,0.6-0.6h1.8c0.3,0,0.6,0.3,0.6,0.6C654.6,16.1,654.3,16.4,654,16.4z M650.4,16.4h-1.8c-0.3,0-0.6-0.3-0.6-0.6
			c0-0.3,0.3-0.6,0.6-0.6h1.8c0.3,0,0.6,0.3,0.6,0.6C651,16.1,650.7,16.4,650.4,16.4z M646.8,16.4H645c-0.3,0-0.6-0.3-0.6-0.6
			c0-0.3,0.3-0.6,0.6-0.6h1.8c0.3,0,0.6,0.3,0.6,0.6C647.4,16.1,647.1,16.4,646.8,16.4z M643.2,16.4h-1.8c-0.3,0-0.6-0.3-0.6-0.6
			c0-0.3,0.3-0.6,0.6-0.6h1.8c0.3,0,0.6,0.3,0.6,0.6C643.8,16.1,643.5,16.4,643.2,16.4z M639.6,16.4h-1.8c-0.3,0-0.6-0.3-0.6-0.6
			c0-0.3,0.3-0.6,0.6-0.6h1.8c0.3,0,0.6,0.3,0.6,0.6C640.2,16.1,639.9,16.4,639.6,16.4z M636,16.4h-1.8c-0.3,0-0.6-0.3-0.6-0.6
			c0-0.3,0.3-0.6,0.6-0.6h1.8c0.3,0,0.6,0.3,0.6,0.6C636.6,16.1,636.3,16.4,636,16.4z M632.4,16.4h-1.8c-0.3,0-0.6-0.3-0.6-0.6
			c0-0.3,0.3-0.6,0.6-0.6h1.8c0.3,0,0.6,0.3,0.6,0.6C633,16.1,632.7,16.4,632.4,16.4z M628.8,16.4H627c-0.3,0-0.6-0.3-0.6-0.6
			c0-0.3,0.3-0.6,0.6-0.6h1.8c0.3,0,0.6,0.3,0.6,0.6C629.4,16.1,629.1,16.4,628.8,16.4z M625.2,16.4h-1.8c-0.3,0-0.6-0.3-0.6-0.6
			c0-0.3,0.3-0.6,0.6-0.6h1.8c0.3,0,0.6,0.3,0.6,0.6C625.8,16.1,625.5,16.4,625.2,16.4z M621.6,16.4h-1.8c-0.3,0-0.6-0.3-0.6-0.6
			c0-0.3,0.3-0.6,0.6-0.6h1.8c0.3,0,0.6,0.3,0.6,0.6C622.2,16.1,621.9,16.4,621.6,16.4z M618,16.4h-1.8c-0.3,0-0.6-0.3-0.6-0.6
			c0-0.3,0.3-0.6,0.6-0.6h1.8c0.3,0,0.6,0.3,0.6,0.6C618.6,16.1,618.3,16.4,618,16.4z M614.4,16.4h-1.8c-0.3,0-0.6-0.3-0.6-0.6
			c0-0.3,0.3-0.6,0.6-0.6h1.8c0.3,0,0.6,0.3,0.6,0.6C615,16.1,614.8,16.4,614.4,16.4z M610.8,16.4H609c-0.3,0-0.6-0.3-0.6-0.6
			c0-0.3,0.3-0.6,0.6-0.6h1.8c0.3,0,0.6,0.3,0.6,0.6C611.4,16.1,611.2,16.4,610.8,16.4z M607.2,16.4h-1.8c-0.3,0-0.6-0.3-0.6-0.6
			c0-0.3,0.3-0.6,0.6-0.6h1.8c0.3,0,0.6,0.3,0.6,0.6C607.8,16.1,607.6,16.4,607.2,16.4z M603.6,16.4h-1.8c-0.3,0-0.6-0.3-0.6-0.6
			c0-0.3,0.3-0.6,0.6-0.6h1.8c0.3,0,0.6,0.3,0.6,0.6C604.2,16.1,604,16.4,603.6,16.4z M600,16.4h-1.8c-0.3,0-0.6-0.3-0.6-0.6
			c0-0.3,0.3-0.6,0.6-0.6h1.8c0.3,0,0.6,0.3,0.6,0.6C600.6,16.1,600.4,16.4,600,16.4z M596.4,16.4h-1.8c-0.3,0-0.6-0.3-0.6-0.6
			c0-0.3,0.3-0.6,0.6-0.6h1.8c0.3,0,0.6,0.3,0.6,0.6C597,16.1,596.8,16.4,596.4,16.4z M592.9,16.4h-1.8c-0.3,0-0.6-0.3-0.6-0.6
			c0-0.3,0.3-0.6,0.6-0.6h1.8c0.3,0,0.6,0.3,0.6,0.6C593.5,16.1,593.2,16.4,592.9,16.4z M589.3,16.4h-1.8c-0.3,0-0.6-0.3-0.6-0.6
			c0-0.3,0.3-0.6,0.6-0.6h1.8c0.3,0,0.6,0.3,0.6,0.6C589.9,16.1,589.6,16.4,589.3,16.4z M585.7,16.4h-1.8c-0.3,0-0.6-0.3-0.6-0.6
			c0-0.3,0.3-0.6,0.6-0.6h1.8c0.3,0,0.6,0.3,0.6,0.6C586.3,16.1,586,16.4,585.7,16.4z M582.1,16.4h-1.8c-0.3,0-0.6-0.3-0.6-0.6
			c0-0.3,0.3-0.6,0.6-0.6h1.8c0.3,0,0.6,0.3,0.6,0.6C582.7,16.1,582.4,16.4,582.1,16.4z M578.5,16.4h-1.8c-0.3,0-0.6-0.3-0.6-0.6
			c0-0.3,0.3-0.6,0.6-0.6h1.8c0.3,0,0.6,0.3,0.6,0.6C579.1,16.1,578.8,16.4,578.5,16.4z M574.9,16.4h-1.8c-0.3,0-0.6-0.3-0.6-0.6
			c0-0.3,0.3-0.6,0.6-0.6h1.8c0.3,0,0.6,0.3,0.6,0.6C575.5,16.1,575.2,16.4,574.9,16.4z M571.3,16.4h-1.8c-0.3,0-0.6-0.3-0.6-0.6
			c0-0.3,0.3-0.6,0.6-0.6h1.8c0.3,0,0.6,0.3,0.6,0.6C571.9,16.1,571.6,16.4,571.3,16.4z M567.7,16.4h-1.8c-0.3,0-0.6-0.3-0.6-0.6
			c0-0.3,0.3-0.6,0.6-0.6h1.8c0.3,0,0.6,0.3,0.6,0.6C568.3,16.1,568,16.4,567.7,16.4z M564.1,16.4h-1.8c-0.3,0-0.6-0.3-0.6-0.6
			c0-0.3,0.3-0.6,0.6-0.6h1.8c0.3,0,0.6,0.3,0.6,0.6C564.7,16.1,564.4,16.4,564.1,16.4z M560.5,16.4h-1.8c-0.3,0-0.6-0.3-0.6-0.6
			c0-0.3,0.3-0.6,0.6-0.6h1.8c0.3,0,0.6,0.3,0.6,0.6C561.1,16.1,560.8,16.4,560.5,16.4z M556.9,16.4h-1.8c-0.3,0-0.6-0.3-0.6-0.6
			c0-0.3,0.3-0.6,0.6-0.6h1.8c0.3,0,0.6,0.3,0.6,0.6C557.5,16.1,557.2,16.4,556.9,16.4z M553.3,16.4h-1.8c-0.3,0-0.6-0.3-0.6-0.6
			c0-0.3,0.3-0.6,0.6-0.6h1.8c0.3,0,0.6,0.3,0.6,0.6C553.9,16.1,553.6,16.4,553.3,16.4z M549.7,16.4h-1.8c-0.3,0-0.6-0.3-0.6-0.6
			c0-0.3,0.3-0.6,0.6-0.6h1.8c0.3,0,0.6,0.3,0.6,0.6C550.3,16.1,550.1,16.4,549.7,16.4z M546.1,16.4h-1.8c-0.3,0-0.6-0.3-0.6-0.6
			c0-0.3,0.3-0.6,0.6-0.6h1.8c0.3,0,0.6,0.3,0.6,0.6C546.7,16.1,546.5,16.4,546.1,16.4z M542.5,16.4h-1.8c-0.3,0-0.6-0.3-0.6-0.6
			c0-0.3,0.3-0.6,0.6-0.6h1.8c0.3,0,0.6,0.3,0.6,0.6C543.1,16.1,542.9,16.4,542.5,16.4z M538.9,16.4h-1.8c-0.3,0-0.6-0.3-0.6-0.6
			c0-0.3,0.3-0.6,0.6-0.6h1.8c0.3,0,0.6,0.3,0.6,0.6C539.5,16.1,539.3,16.4,538.9,16.4z M535.3,16.4h-1.8c-0.3,0-0.6-0.3-0.6-0.6
			c0-0.3,0.3-0.6,0.6-0.6h1.8c0.3,0,0.6,0.3,0.6,0.6C535.9,16.1,535.7,16.4,535.3,16.4z M531.7,16.4h-1.8c-0.3,0-0.6-0.3-0.6-0.6
			c0-0.3,0.3-0.6,0.6-0.6h1.8c0.3,0,0.6,0.3,0.6,0.6C532.3,16.1,532.1,16.4,531.7,16.4z M528.2,16.4h-1.8c-0.3,0-0.6-0.3-0.6-0.6
			c0-0.3,0.3-0.6,0.6-0.6h1.8c0.3,0,0.6,0.3,0.6,0.6C528.8,16.1,528.5,16.4,528.2,16.4z M524.6,16.4h-1.8c-0.3,0-0.6-0.3-0.6-0.6
			c0-0.3,0.3-0.6,0.6-0.6h1.8c0.3,0,0.6,0.3,0.6,0.6C525.2,16.1,524.9,16.4,524.6,16.4z M521,16.4h-1.8c-0.3,0-0.6-0.3-0.6-0.6
			c0-0.3,0.3-0.6,0.6-0.6h1.8c0.3,0,0.6,0.3,0.6,0.6C521.6,16.1,521.3,16.4,521,16.4z M517.4,16.4h-1.8c-0.3,0-0.6-0.3-0.6-0.6
			c0-0.3,0.3-0.6,0.6-0.6h1.8c0.3,0,0.6,0.3,0.6,0.6C518,16.1,517.7,16.4,517.4,16.4z M513.8,16.4H512c-0.3,0-0.6-0.3-0.6-0.6
			c0-0.3,0.3-0.6,0.6-0.6h1.8c0.3,0,0.6,0.3,0.6,0.6C514.4,16.1,514.1,16.4,513.8,16.4z M510.2,16.4h-1.8c-0.3,0-0.6-0.3-0.6-0.6
			c0-0.3,0.3-0.6,0.6-0.6h1.8c0.3,0,0.6,0.3,0.6,0.6C510.8,16.1,510.5,16.4,510.2,16.4z M506.6,16.4h-1.8c-0.3,0-0.6-0.3-0.6-0.6
			c0-0.3,0.3-0.6,0.6-0.6h1.8c0.3,0,0.6,0.3,0.6,0.6C507.2,16.1,506.9,16.4,506.6,16.4z M503,16.4h-1.8c-0.3,0-0.6-0.3-0.6-0.6
			c0-0.3,0.3-0.6,0.6-0.6h1.8c0.3,0,0.6,0.3,0.6,0.6C503.6,16.1,503.3,16.4,503,16.4z M499.4,16.4h-1.8c-0.3,0-0.6-0.3-0.6-0.6
			c0-0.3,0.3-0.6,0.6-0.6h1.8c0.3,0,0.6,0.3,0.6,0.6C500,16.1,499.7,16.4,499.4,16.4z M495.8,16.4H494c-0.3,0-0.6-0.3-0.6-0.6
			c0-0.3,0.3-0.6,0.6-0.6h1.8c0.3,0,0.6,0.3,0.6,0.6C496.4,16.1,496.1,16.4,495.8,16.4z M492.2,16.4h-1.8c-0.3,0-0.6-0.3-0.6-0.6
			c0-0.3,0.3-0.6,0.6-0.6h1.8c0.3,0,0.6,0.3,0.6,0.6C492.8,16.1,492.5,16.4,492.2,16.4z M488.6,16.4h-1.8c-0.3,0-0.6-0.3-0.6-0.6
			c0-0.3,0.3-0.6,0.6-0.6h1.8c0.3,0,0.6,0.3,0.6,0.6C489.2,16.1,488.9,16.4,488.6,16.4z M485,16.4h-1.8c-0.3,0-0.6-0.3-0.6-0.6
			c0-0.3,0.3-0.6,0.6-0.6h1.8c0.3,0,0.6,0.3,0.6,0.6C485.6,16.1,485.3,16.4,485,16.4z M481.4,16.4h-1.8c-0.3,0-0.6-0.3-0.6-0.6
			c0-0.3,0.3-0.6,0.6-0.6h1.8c0.3,0,0.6,0.3,0.6,0.6C482,16.1,481.8,16.4,481.4,16.4z M477.8,16.4H476c-0.3,0-0.6-0.3-0.6-0.6
			c0-0.3,0.3-0.6,0.6-0.6h1.8c0.3,0,0.6,0.3,0.6,0.6C478.4,16.1,478.2,16.4,477.8,16.4z M474.2,16.4h-1.8c-0.3,0-0.6-0.3-0.6-0.6
			c0-0.3,0.3-0.6,0.6-0.6h1.8c0.3,0,0.6,0.3,0.6,0.6C474.8,16.1,474.6,16.4,474.2,16.4z M470.6,16.4h-1.8c-0.3,0-0.6-0.3-0.6-0.6
			c0-0.3,0.3-0.6,0.6-0.6h1.8c0.3,0,0.6,0.3,0.6,0.6C471.2,16.1,471,16.4,470.6,16.4z M467,16.4h-1.8c-0.3,0-0.6-0.3-0.6-0.6
			c0-0.3,0.3-0.6,0.6-0.6h1.8c0.3,0,0.6,0.3,0.6,0.6C467.6,16.1,467.4,16.4,467,16.4z M463.5,16.4h-1.8c-0.3,0-0.6-0.3-0.6-0.6
			c0-0.3,0.3-0.6,0.6-0.6h1.8c0.3,0,0.6,0.3,0.6,0.6C464.1,16.1,463.8,16.4,463.5,16.4z M459.9,16.4h-1.8c-0.3,0-0.6-0.3-0.6-0.6
			c0-0.3,0.3-0.6,0.6-0.6h1.8c0.3,0,0.6,0.3,0.6,0.6C460.5,16.1,460.2,16.4,459.9,16.4z M456.3,16.4h-1.8c-0.3,0-0.6-0.3-0.6-0.6
			c0-0.3,0.3-0.6,0.6-0.6h1.8c0.3,0,0.6,0.3,0.6,0.6C456.9,16.1,456.6,16.4,456.3,16.4z M452.7,16.4h-1.8c-0.3,0-0.6-0.3-0.6-0.6
			c0-0.3,0.3-0.6,0.6-0.6h1.8c0.3,0,0.6,0.3,0.6,0.6C453.3,16.1,453,16.4,452.7,16.4z M449.1,16.4h-1.8c-0.3,0-0.6-0.3-0.6-0.6
			c0-0.3,0.3-0.6,0.6-0.6h1.8c0.3,0,0.6,0.3,0.6,0.6C449.7,16.1,449.4,16.4,449.1,16.4z M445.5,16.4h-1.8c-0.3,0-0.6-0.3-0.6-0.6
			c0-0.3,0.3-0.6,0.6-0.6h1.8c0.3,0,0.6,0.3,0.6,0.6C446.1,16.1,445.8,16.4,445.5,16.4z M441.9,16.4h-1.8c-0.3,0-0.6-0.3-0.6-0.6
			c0-0.3,0.3-0.6,0.6-0.6h1.8c0.3,0,0.6,0.3,0.6,0.6C442.5,16.1,442.2,16.4,441.9,16.4z M438.3,16.4h-1.8c-0.3,0-0.6-0.3-0.6-0.6
			c0-0.3,0.3-0.6,0.6-0.6h1.8c0.3,0,0.6,0.3,0.6,0.6C438.9,16.1,438.6,16.4,438.3,16.4z M434.7,16.4h-1.8c-0.3,0-0.6-0.3-0.6-0.6
			c0-0.3,0.3-0.6,0.6-0.6h1.8c0.3,0,0.6,0.3,0.6,0.6C435.3,16.1,435,16.4,434.7,16.4z M431.1,16.4h-1.8c-0.3,0-0.6-0.3-0.6-0.6
			c0-0.3,0.3-0.6,0.6-0.6h1.8c0.3,0,0.6,0.3,0.6,0.6C431.7,16.1,431.4,16.4,431.1,16.4z M427.5,16.4h-1.8c-0.3,0-0.6-0.3-0.6-0.6
			c0-0.3,0.3-0.6,0.6-0.6h1.8c0.3,0,0.6,0.3,0.6,0.6C428.1,16.1,427.8,16.4,427.5,16.4z M423.9,16.4h-1.8c-0.3,0-0.6-0.3-0.6-0.6
			c0-0.3,0.3-0.6,0.6-0.6h1.8c0.3,0,0.6,0.3,0.6,0.6C424.5,16.1,424.2,16.4,423.9,16.4z M420.3,16.4h-1.8c-0.3,0-0.6-0.3-0.6-0.6
			c0-0.3,0.3-0.6,0.6-0.6h1.8c0.3,0,0.6,0.3,0.6,0.6C420.9,16.1,420.6,16.4,420.3,16.4z M416.7,16.4h-1.8c-0.3,0-0.6-0.3-0.6-0.6
			c0-0.3,0.3-0.6,0.6-0.6h1.8c0.3,0,0.6,0.3,0.6,0.6C417.3,16.1,417.1,16.4,416.7,16.4z M413.1,16.4h-1.8c-0.3,0-0.6-0.3-0.6-0.6
			c0-0.3,0.3-0.6,0.6-0.6h1.8c0.3,0,0.6,0.3,0.6,0.6C413.7,16.1,413.5,16.4,413.1,16.4z M409.5,16.4h-1.8c-0.3,0-0.6-0.3-0.6-0.6
			c0-0.3,0.3-0.6,0.6-0.6h1.8c0.3,0,0.6,0.3,0.6,0.6C410.1,16.1,409.9,16.4,409.5,16.4z M405.9,16.4h-1.8c-0.3,0-0.6-0.3-0.6-0.6
			c0-0.3,0.3-0.6,0.6-0.6h1.8c0.3,0,0.6,0.3,0.6,0.6C406.5,16.1,406.3,16.4,405.9,16.4z M402.3,16.4h-1.8c-0.3,0-0.6-0.3-0.6-0.6
			c0-0.3,0.3-0.6,0.6-0.6h1.8c0.3,0,0.6,0.3,0.6,0.6C402.9,16.1,402.7,16.4,402.3,16.4z M398.7,16.4H397c-0.3,0-0.6-0.3-0.6-0.6
			c0-0.3,0.3-0.6,0.6-0.6h1.8c0.3,0,0.6,0.3,0.6,0.6C399.3,16.1,399.1,16.4,398.7,16.4z M395.2,16.4h-1.8c-0.3,0-0.6-0.3-0.6-0.6
			c0-0.3,0.3-0.6,0.6-0.6h1.8c0.3,0,0.6,0.3,0.6,0.6C395.8,16.1,395.5,16.4,395.2,16.4z M391.6,16.4h-1.8c-0.3,0-0.6-0.3-0.6-0.6
			c0-0.3,0.3-0.6,0.6-0.6h1.8c0.3,0,0.6,0.3,0.6,0.6C392.2,16.1,391.9,16.4,391.6,16.4z M388,16.4h-1.8c-0.3,0-0.6-0.3-0.6-0.6
			c0-0.3,0.3-0.6,0.6-0.6h1.8c0.3,0,0.6,0.3,0.6,0.6C388.6,16.1,388.3,16.4,388,16.4z M384.4,16.4h-1.8c-0.3,0-0.6-0.3-0.6-0.6
			c0-0.3,0.3-0.6,0.6-0.6h1.8c0.3,0,0.6,0.3,0.6,0.6C385,16.1,384.7,16.4,384.4,16.4z M380.8,16.4H379c-0.3,0-0.6-0.3-0.6-0.6
			c0-0.3,0.3-0.6,0.6-0.6h1.8c0.3,0,0.6,0.3,0.6,0.6C381.4,16.1,381.1,16.4,380.8,16.4z M377.2,16.4h-1.8c-0.3,0-0.6-0.3-0.6-0.6
			c0-0.3,0.3-0.6,0.6-0.6h1.8c0.3,0,0.6,0.3,0.6,0.6C377.8,16.1,377.5,16.4,377.2,16.4z M373.6,16.4h-1.8c-0.3,0-0.6-0.3-0.6-0.6
			c0-0.3,0.3-0.6,0.6-0.6h1.8c0.3,0,0.6,0.3,0.6,0.6C374.2,16.1,373.9,16.4,373.6,16.4z M370,16.4h-1.8c-0.3,0-0.6-0.3-0.6-0.6
			c0-0.3,0.3-0.6,0.6-0.6h1.8c0.3,0,0.6,0.3,0.6,0.6C370.6,16.1,370.3,16.4,370,16.4z M366.4,16.4h-1.8c-0.3,0-0.6-0.3-0.6-0.6
			c0-0.3,0.3-0.6,0.6-0.6h1.8c0.3,0,0.6,0.3,0.6,0.6C367,16.1,366.7,16.4,366.4,16.4z M362.8,16.4H361c-0.3,0-0.6-0.3-0.6-0.6
			c0-0.3,0.3-0.6,0.6-0.6h1.8c0.3,0,0.6,0.3,0.6,0.6C363.4,16.1,363.1,16.4,362.8,16.4z M359.2,16.4h-1.8c-0.3,0-0.6-0.3-0.6-0.6
			c0-0.3,0.3-0.6,0.6-0.6h1.8c0.3,0,0.6,0.3,0.6,0.6C359.8,16.1,359.5,16.4,359.2,16.4z M355.6,16.4h-1.8c-0.3,0-0.6-0.3-0.6-0.6
			c0-0.3,0.3-0.6,0.6-0.6h1.8c0.3,0,0.6,0.3,0.6,0.6C356.2,16.1,355.9,16.4,355.6,16.4z M352,16.4h-1.8c-0.3,0-0.6-0.3-0.6-0.6
			c0-0.3,0.3-0.6,0.6-0.6h1.8c0.3,0,0.6,0.3,0.6,0.6C352.6,16.1,352.4,16.4,352,16.4z M348.4,16.4h-1.8c-0.3,0-0.6-0.3-0.6-0.6
			c0-0.3,0.3-0.6,0.6-0.6h1.8c0.3,0,0.6,0.3,0.6,0.6C349,16.1,348.8,16.4,348.4,16.4z M344.8,16.4H343c-0.3,0-0.6-0.3-0.6-0.6
			c0-0.3,0.3-0.6,0.6-0.6h1.8c0.3,0,0.6,0.3,0.6,0.6C345.4,16.1,345.2,16.4,344.8,16.4z M341.2,16.4h-1.8c-0.3,0-0.6-0.3-0.6-0.6
			c0-0.3,0.3-0.6,0.6-0.6h1.8c0.3,0,0.6,0.3,0.6,0.6C341.8,16.1,341.6,16.4,341.2,16.4z M337.6,16.4h-1.8c-0.3,0-0.6-0.3-0.6-0.6
			c0-0.3,0.3-0.6,0.6-0.6h1.8c0.3,0,0.6,0.3,0.6,0.6C338.2,16.1,338,16.4,337.6,16.4z M334,16.4h-1.8c-0.3,0-0.6-0.3-0.6-0.6
			c0-0.3,0.3-0.6,0.6-0.6h1.8c0.3,0,0.6,0.3,0.6,0.6C334.6,16.1,334.4,16.4,334,16.4z M330.5,16.4h-1.8c-0.3,0-0.6-0.3-0.6-0.6
			c0-0.3,0.3-0.6,0.6-0.6h1.8c0.3,0,0.6,0.3,0.6,0.6C331.1,16.1,330.8,16.4,330.5,16.4z M326.9,16.4h-1.8c-0.3,0-0.6-0.3-0.6-0.6
			c0-0.3,0.3-0.6,0.6-0.6h1.8c0.3,0,0.6,0.3,0.6,0.6C327.5,16.1,327.2,16.4,326.9,16.4z M323.3,16.4h-1.8c-0.3,0-0.6-0.3-0.6-0.6
			c0-0.3,0.3-0.6,0.6-0.6h1.8c0.3,0,0.6,0.3,0.6,0.6C323.9,16.1,323.6,16.4,323.3,16.4z M319.7,16.4h-1.8c-0.3,0-0.6-0.3-0.6-0.6
			c0-0.3,0.3-0.6,0.6-0.6h1.8c0.3,0,0.6,0.3,0.6,0.6C320.3,16.1,320,16.4,319.7,16.4z M316.1,16.4h-1.8c-0.3,0-0.6-0.3-0.6-0.6
			c0-0.3,0.3-0.6,0.6-0.6h1.8c0.3,0,0.6,0.3,0.6,0.6C316.7,16.1,316.4,16.4,316.1,16.4z M312.5,16.4h-1.8c-0.3,0-0.6-0.3-0.6-0.6
			c0-0.3,0.3-0.6,0.6-0.6h1.8c0.3,0,0.6,0.3,0.6,0.6C313.1,16.1,312.8,16.4,312.5,16.4z M308.9,16.4h-1.8c-0.3,0-0.6-0.3-0.6-0.6
			c0-0.3,0.3-0.6,0.6-0.6h1.8c0.3,0,0.6,0.3,0.6,0.6C309.5,16.1,309.2,16.4,308.9,16.4z M305.3,16.4h-1.8c-0.3,0-0.6-0.3-0.6-0.6
			c0-0.3,0.3-0.6,0.6-0.6h1.8c0.3,0,0.6,0.3,0.6,0.6C305.9,16.1,305.6,16.4,305.3,16.4z M301.7,16.4h-1.8c-0.3,0-0.6-0.3-0.6-0.6
			c0-0.3,0.3-0.6,0.6-0.6h1.8c0.3,0,0.6,0.3,0.6,0.6C302.3,16.1,302,16.4,301.7,16.4z M298.1,16.4h-1.8c-0.3,0-0.6-0.3-0.6-0.6
			c0-0.3,0.3-0.6,0.6-0.6h1.8c0.3,0,0.6,0.3,0.6,0.6C298.7,16.1,298.4,16.4,298.1,16.4z M294.5,16.4h-1.8c-0.3,0-0.6-0.3-0.6-0.6
			c0-0.3,0.3-0.6,0.6-0.6h1.8c0.3,0,0.6,0.3,0.6,0.6C295.1,16.1,294.8,16.4,294.5,16.4z M290.9,16.4h-1.8c-0.3,0-0.6-0.3-0.6-0.6
			c0-0.3,0.3-0.6,0.6-0.6h1.8c0.3,0,0.6,0.3,0.6,0.6C291.5,16.1,291.2,16.4,290.9,16.4z M287.3,16.4h-1.8c-0.3,0-0.6-0.3-0.6-0.6
			c0-0.3,0.3-0.6,0.6-0.6h1.8c0.3,0,0.6,0.3,0.6,0.6C287.9,16.1,287.6,16.4,287.3,16.4z M283.7,16.4h-1.8c-0.3,0-0.6-0.3-0.6-0.6
			c0-0.3,0.3-0.6,0.6-0.6h1.8c0.3,0,0.6,0.3,0.6,0.6C284.3,16.1,284.1,16.4,283.7,16.4z M280.1,16.4h-1.8c-0.3,0-0.6-0.3-0.6-0.6
			c0-0.3,0.3-0.6,0.6-0.6h1.8c0.3,0,0.6,0.3,0.6,0.6C280.7,16.1,280.5,16.4,280.1,16.4z M276.5,16.4h-1.8c-0.3,0-0.6-0.3-0.6-0.6
			c0-0.3,0.3-0.6,0.6-0.6h1.8c0.3,0,0.6,0.3,0.6,0.6C277.1,16.1,276.9,16.4,276.5,16.4z M272.9,16.4h-1.8c-0.3,0-0.6-0.3-0.6-0.6
			c0-0.3,0.3-0.6,0.6-0.6h1.8c0.3,0,0.6,0.3,0.6,0.6C273.5,16.1,273.3,16.4,272.9,16.4z M269.3,16.4h-1.8c-0.3,0-0.6-0.3-0.6-0.6
			c0-0.3,0.3-0.6,0.6-0.6h1.8c0.3,0,0.6,0.3,0.6,0.6C269.9,16.1,269.7,16.4,269.3,16.4z M265.8,16.4H264c-0.3,0-0.6-0.3-0.6-0.6
			c0-0.3,0.3-0.6,0.6-0.6h1.8c0.3,0,0.6,0.3,0.6,0.6C266.4,16.1,266.1,16.4,265.8,16.4z M262.2,16.4h-1.8c-0.3,0-0.6-0.3-0.6-0.6
			c0-0.3,0.3-0.6,0.6-0.6h1.8c0.3,0,0.6,0.3,0.6,0.6C262.8,16.1,262.5,16.4,262.2,16.4z M258.6,16.4h-1.8c-0.3,0-0.6-0.3-0.6-0.6
			c0-0.3,0.3-0.6,0.6-0.6h1.8c0.3,0,0.6,0.3,0.6,0.6C259.2,16.1,258.9,16.4,258.6,16.4z M255,16.4h-1.8c-0.3,0-0.6-0.3-0.6-0.6
			c0-0.3,0.3-0.6,0.6-0.6h1.8c0.3,0,0.6,0.3,0.6,0.6C255.6,16.1,255.3,16.4,255,16.4z M251.4,16.4h-1.8c-0.3,0-0.6-0.3-0.6-0.6
			c0-0.3,0.3-0.6,0.6-0.6h1.8c0.3,0,0.6,0.3,0.6,0.6C252,16.1,251.7,16.4,251.4,16.4z M247.8,16.4H246c-0.3,0-0.6-0.3-0.6-0.6
			c0-0.3,0.3-0.6,0.6-0.6h1.8c0.3,0,0.6,0.3,0.6,0.6C248.4,16.1,248.1,16.4,247.8,16.4z M244.2,16.4h-1.8c-0.3,0-0.6-0.3-0.6-0.6
			c0-0.3,0.3-0.6,0.6-0.6h1.8c0.3,0,0.6,0.3,0.6,0.6C244.8,16.1,244.5,16.4,244.2,16.4z M240.6,16.4h-1.8c-0.3,0-0.6-0.3-0.6-0.6
			c0-0.3,0.3-0.6,0.6-0.6h1.8c0.3,0,0.6,0.3,0.6,0.6C241.2,16.1,240.9,16.4,240.6,16.4z M237,16.4h-1.8c-0.3,0-0.6-0.3-0.6-0.6
			c0-0.3,0.3-0.6,0.6-0.6h1.8c0.3,0,0.6,0.3,0.6,0.6C237.6,16.1,237.3,16.4,237,16.4z M233.4,16.4h-1.8c-0.3,0-0.6-0.3-0.6-0.6
			c0-0.3,0.3-0.6,0.6-0.6h1.8c0.3,0,0.6,0.3,0.6,0.6C234,16.1,233.7,16.4,233.4,16.4z M229.8,16.4H228c-0.3,0-0.6-0.3-0.6-0.6
			c0-0.3,0.3-0.6,0.6-0.6h1.8c0.3,0,0.6,0.3,0.6,0.6C230.4,16.1,230.1,16.4,229.8,16.4z M226.2,16.4h-1.8c-0.3,0-0.6-0.3-0.6-0.6
			c0-0.3,0.3-0.6,0.6-0.6h1.8c0.3,0,0.6,0.3,0.6,0.6C226.8,16.1,226.5,16.4,226.2,16.4z M222.6,16.4h-1.8c-0.3,0-0.6-0.3-0.6-0.6
			c0-0.3,0.3-0.6,0.6-0.6h1.8c0.3,0,0.6,0.3,0.6,0.6C223.2,16.1,222.9,16.4,222.6,16.4z M219,16.4h-1.8c-0.3,0-0.6-0.3-0.6-0.6
			c0-0.3,0.3-0.6,0.6-0.6h1.8c0.3,0,0.6,0.3,0.6,0.6C219.6,16.1,219.4,16.4,219,16.4z M215.4,16.4h-1.8c-0.3,0-0.6-0.3-0.6-0.6
			c0-0.3,0.3-0.6,0.6-0.6h1.8c0.3,0,0.6,0.3,0.6,0.6C216,16.1,215.8,16.4,215.4,16.4z M211.8,16.4H210c-0.3,0-0.6-0.3-0.6-0.6
			c0-0.3,0.3-0.6,0.6-0.6h1.8c0.3,0,0.6,0.3,0.6,0.6C212.4,16.1,212.2,16.4,211.8,16.4z M208.2,16.4h-1.8c-0.3,0-0.6-0.3-0.6-0.6
			c0-0.3,0.3-0.6,0.6-0.6h1.8c0.3,0,0.6,0.3,0.6,0.6C208.8,16.1,208.6,16.4,208.2,16.4z M204.6,16.4h-1.8c-0.3,0-0.6-0.3-0.6-0.6
			c0-0.3,0.3-0.6,0.6-0.6h1.8c0.3,0,0.6,0.3,0.6,0.6C205.2,16.1,205,16.4,204.6,16.4z M201,16.4h-1.8c-0.3,0-0.6-0.3-0.6-0.6
			c0-0.3,0.3-0.6,0.6-0.6h1.8c0.3,0,0.6,0.3,0.6,0.6C201.6,16.1,201.4,16.4,201,16.4z M197.5,16.4h-1.8c-0.3,0-0.6-0.3-0.6-0.6
			c0-0.3,0.3-0.6,0.6-0.6h1.8c0.3,0,0.6,0.3,0.6,0.6C198.1,16.1,197.8,16.4,197.5,16.4z M193.9,16.4h-1.8c-0.3,0-0.6-0.3-0.6-0.6
			c0-0.3,0.3-0.6,0.6-0.6h1.8c0.3,0,0.6,0.3,0.6,0.6C194.5,16.1,194.2,16.4,193.9,16.4z M190.3,16.4h-1.8c-0.3,0-0.6-0.3-0.6-0.6
			c0-0.3,0.3-0.6,0.6-0.6h1.8c0.3,0,0.6,0.3,0.6,0.6C190.9,16.1,190.6,16.4,190.3,16.4z M186.7,16.4h-1.8c-0.3,0-0.6-0.3-0.6-0.6
			c0-0.3,0.3-0.6,0.6-0.6h1.8c0.3,0,0.6,0.3,0.6,0.6C187.3,16.1,187,16.4,186.7,16.4z M183.1,16.4h-1.8c-0.3,0-0.6-0.3-0.6-0.6
			c0-0.3,0.3-0.6,0.6-0.6h1.8c0.3,0,0.6,0.3,0.6,0.6C183.7,16.1,183.4,16.4,183.1,16.4z M179.5,16.4h-1.8c-0.3,0-0.6-0.3-0.6-0.6
			c0-0.3,0.3-0.6,0.6-0.6h1.8c0.3,0,0.6,0.3,0.6,0.6C180.1,16.1,179.8,16.4,179.5,16.4z M175.9,16.4h-1.8c-0.3,0-0.6-0.3-0.6-0.6
			c0-0.3,0.3-0.6,0.6-0.6h1.8c0.3,0,0.6,0.3,0.6,0.6C176.5,16.1,176.2,16.4,175.9,16.4z M172.3,16.4h-1.8c-0.3,0-0.6-0.3-0.6-0.6
			c0-0.3,0.3-0.6,0.6-0.6h1.8c0.3,0,0.6,0.3,0.6,0.6C172.9,16.1,172.6,16.4,172.3,16.4z M168.7,16.4h-1.8c-0.3,0-0.6-0.3-0.6-0.6
			c0-0.3,0.3-0.6,0.6-0.6h1.8c0.3,0,0.6,0.3,0.6,0.6C169.3,16.1,169,16.4,168.7,16.4z M165.1,16.4h-1.8c-0.3,0-0.6-0.3-0.6-0.6
			c0-0.3,0.3-0.6,0.6-0.6h1.8c0.3,0,0.6,0.3,0.6,0.6C165.7,16.1,165.4,16.4,165.1,16.4z M161.5,16.4h-1.8c-0.3,0-0.6-0.3-0.6-0.6
			c0-0.3,0.3-0.6,0.6-0.6h1.8c0.3,0,0.6,0.3,0.6,0.6C162.1,16.1,161.8,16.4,161.5,16.4z M157.9,16.4h-1.8c-0.3,0-0.6-0.3-0.6-0.6
			c0-0.3,0.3-0.6,0.6-0.6h1.8c0.3,0,0.6,0.3,0.6,0.6C158.5,16.1,158.2,16.4,157.9,16.4z M154.3,16.4h-1.8c-0.3,0-0.6-0.3-0.6-0.6
			c0-0.3,0.3-0.6,0.6-0.6h1.8c0.3,0,0.6,0.3,0.6,0.6C154.9,16.1,154.7,16.4,154.3,16.4z M150.7,16.4h-1.8c-0.3,0-0.6-0.3-0.6-0.6
			c0-0.3,0.3-0.6,0.6-0.6h1.8c0.3,0,0.6,0.3,0.6,0.6C151.3,16.1,151.1,16.4,150.7,16.4z M147.1,16.4h-1.8c-0.3,0-0.6-0.3-0.6-0.6
			c0-0.3,0.3-0.6,0.6-0.6h1.8c0.3,0,0.6,0.3,0.6,0.6C147.7,16.1,147.5,16.4,147.1,16.4z M143.5,16.4h-1.8c-0.3,0-0.6-0.3-0.6-0.6
			c0-0.3,0.3-0.6,0.6-0.6h1.8c0.3,0,0.6,0.3,0.6,0.6C144.1,16.1,143.9,16.4,143.5,16.4z M139.9,16.4h-1.8c-0.3,0-0.6-0.3-0.6-0.6
			c0-0.3,0.3-0.6,0.6-0.6h1.8c0.3,0,0.6,0.3,0.6,0.6C140.5,16.1,140.3,16.4,139.9,16.4z M136.3,16.4h-1.8c-0.3,0-0.6-0.3-0.6-0.6
			c0-0.3,0.3-0.6,0.6-0.6h1.8c0.3,0,0.6,0.3,0.6,0.6C136.9,16.1,136.7,16.4,136.3,16.4z M132.8,16.4H131c-0.3,0-0.6-0.3-0.6-0.6
			c0-0.3,0.3-0.6,0.6-0.6h1.8c0.3,0,0.6,0.3,0.6,0.6C133.4,16.1,133.1,16.4,132.8,16.4z M129.2,16.4h-1.8c-0.3,0-0.6-0.3-0.6-0.6
			c0-0.3,0.3-0.6,0.6-0.6h1.8c0.3,0,0.6,0.3,0.6,0.6C129.8,16.1,129.5,16.4,129.2,16.4z M125.6,16.4h-1.8c-0.3,0-0.6-0.3-0.6-0.6
			c0-0.3,0.3-0.6,0.6-0.6h1.8c0.3,0,0.6,0.3,0.6,0.6C126.2,16.1,125.9,16.4,125.6,16.4z M122,16.4h-1.8c-0.3,0-0.6-0.3-0.6-0.6
			c0-0.3,0.3-0.6,0.6-0.6h1.8c0.3,0,0.6,0.3,0.6,0.6C122.6,16.1,122.3,16.4,122,16.4z M118.4,16.4h-1.8c-0.3,0-0.6-0.3-0.6-0.6
			c0-0.3,0.3-0.6,0.6-0.6h1.8c0.3,0,0.6,0.3,0.6,0.6C119,16.1,118.7,16.4,118.4,16.4z M114.8,16.4H113c-0.3,0-0.6-0.3-0.6-0.6
			c0-0.3,0.3-0.6,0.6-0.6h1.8c0.3,0,0.6,0.3,0.6,0.6C115.4,16.1,115.1,16.4,114.8,16.4z M111.2,16.4h-1.8c-0.3,0-0.6-0.3-0.6-0.6
			c0-0.3,0.3-0.6,0.6-0.6h1.8c0.3,0,0.6,0.3,0.6,0.6C111.8,16.1,111.5,16.4,111.2,16.4z M107.6,16.4h-1.8c-0.3,0-0.6-0.3-0.6-0.6
			c0-0.3,0.3-0.6,0.6-0.6h1.8c0.3,0,0.6,0.3,0.6,0.6C108.2,16.1,107.9,16.4,107.6,16.4z M104,16.4h-1.8c-0.3,0-0.6-0.3-0.6-0.6
			c0-0.3,0.3-0.6,0.6-0.6h1.8c0.3,0,0.6,0.3,0.6,0.6C104.6,16.1,104.3,16.4,104,16.4z M100.4,16.4h-1.8c-0.3,0-0.6-0.3-0.6-0.6
			c0-0.3,0.3-0.6,0.6-0.6h1.8c0.3,0,0.6,0.3,0.6,0.6C101,16.1,100.7,16.4,100.4,16.4z M96.8,16.4H95c-0.3,0-0.6-0.3-0.6-0.6
			c0-0.3,0.3-0.6,0.6-0.6h1.8c0.3,0,0.6,0.3,0.6,0.6C97.4,16.1,97.1,16.4,96.8,16.4z M93.2,16.4h-1.8c-0.3,0-0.6-0.3-0.6-0.6
			c0-0.3,0.3-0.6,0.6-0.6h1.8c0.3,0,0.6,0.3,0.6,0.6C93.8,16.1,93.5,16.4,93.2,16.4z M89.6,16.4h-1.8c-0.3,0-0.6-0.3-0.6-0.6
			c0-0.3,0.3-0.6,0.6-0.6h1.8c0.3,0,0.6,0.3,0.6,0.6C90.2,16.1,89.9,16.4,89.6,16.4z M86,16.4h-1.8c-0.3,0-0.6-0.3-0.6-0.6
			c0-0.3,0.3-0.6,0.6-0.6H86c0.3,0,0.6,0.3,0.6,0.6C86.6,16.1,86.4,16.4,86,16.4z M82.4,16.4h-1.8c-0.3,0-0.6-0.3-0.6-0.6
			c0-0.3,0.3-0.6,0.6-0.6h1.8c0.3,0,0.6,0.3,0.6,0.6C83,16.1,82.8,16.4,82.4,16.4z M78.8,16.4H77c-0.3,0-0.6-0.3-0.6-0.6
			c0-0.3,0.3-0.6,0.6-0.6h1.8c0.3,0,0.6,0.3,0.6,0.6C79.4,16.1,79.2,16.4,78.8,16.4z M75.2,16.4h-1.8c-0.3,0-0.6-0.3-0.6-0.6
			c0-0.3,0.3-0.6,0.6-0.6h1.8c0.3,0,0.6,0.3,0.6,0.6C75.8,16.1,75.6,16.4,75.2,16.4z M71.6,16.4h-1.8c-0.3,0-0.6-0.3-0.6-0.6
			c0-0.3,0.3-0.6,0.6-0.6h1.8c0.3,0,0.6,0.3,0.6,0.6C72.2,16.1,72,16.4,71.6,16.4z M68.1,16.4h-1.8c-0.3,0-0.6-0.3-0.6-0.6
			c0-0.3,0.3-0.6,0.6-0.6h1.8c0.3,0,0.6,0.3,0.6,0.6C68.6,16.1,68.4,16.4,68.1,16.4z M64.5,16.4h-1.8c-0.3,0-0.6-0.3-0.6-0.6
			c0-0.3,0.3-0.6,0.6-0.6h1.8c0.3,0,0.6,0.3,0.6,0.6C65.1,16.1,64.8,16.4,64.5,16.4z M60.9,16.4h-1.8c-0.3,0-0.6-0.3-0.6-0.6
			c0-0.3,0.3-0.6,0.6-0.6h1.8c0.3,0,0.6,0.3,0.6,0.6C61.5,16.1,61.2,16.4,60.9,16.4z M57.3,16.4h-1.8c-0.3,0-0.6-0.3-0.6-0.6
			c0-0.3,0.3-0.6,0.6-0.6h1.8c0.3,0,0.6,0.3,0.6,0.6C57.9,16.1,57.6,16.4,57.3,16.4z M53.7,16.4h-1.8c-0.3,0-0.6-0.3-0.6-0.6
			c0-0.3,0.3-0.6,0.6-0.6h1.8c0.3,0,0.6,0.3,0.6,0.6C54.3,16.1,54,16.4,53.7,16.4z M50.1,16.4h-1.8c-0.3,0-0.6-0.3-0.6-0.6
			c0-0.3,0.3-0.6,0.6-0.6h1.8c0.3,0,0.6,0.3,0.6,0.6C50.7,16.1,50.4,16.4,50.1,16.4z M46.5,16.4h-1.8c-0.3,0-0.6-0.3-0.6-0.6
			c0-0.3,0.3-0.6,0.6-0.6h1.8c0.3,0,0.6,0.3,0.6,0.6C47.1,16.1,46.8,16.4,46.5,16.4z M42.9,16.4h-1.8c-0.3,0-0.6-0.3-0.6-0.6
			c0-0.3,0.3-0.6,0.6-0.6h1.8c0.3,0,0.6,0.3,0.6,0.6C43.5,16.1,43.2,16.4,42.9,16.4z M39.3,16.4h-1.8c-0.3,0-0.6-0.3-0.6-0.6
			c0-0.3,0.3-0.6,0.6-0.6h1.8c0.3,0,0.6,0.3,0.6,0.6C39.9,16.1,39.6,16.4,39.3,16.4z M35.7,16.4h-1.8c-0.3,0-0.6-0.3-0.6-0.6
			c0-0.3,0.3-0.6,0.6-0.6h1.8c0.3,0,0.6,0.3,0.6,0.6C36.3,16.1,36,16.4,35.7,16.4z M32.1,16.4h-1.8c-0.3,0-0.6-0.3-0.6-0.6
			c0-0.3,0.3-0.6,0.6-0.6h1.8c0.3,0,0.6,0.3,0.6,0.6C32.7,16.1,32.4,16.4,32.1,16.4z M28.5,16.4h-1.8c-0.3,0-0.6-0.3-0.6-0.6
			c0-0.3,0.3-0.6,0.6-0.6h1.8c0.3,0,0.6,0.3,0.6,0.6C29.1,16.1,28.8,16.4,28.5,16.4z M24.9,16.4h-1.8c-0.3,0-0.6-0.3-0.6-0.6
			c0-0.3,0.3-0.6,0.6-0.6h1.8c0.3,0,0.6,0.3,0.6,0.6C25.5,16.1,25.2,16.4,24.9,16.4z M21.3,16.4h-1.8c-0.3,0-0.6-0.3-0.6-0.6
			c0-0.3,0.3-0.6,0.6-0.6h1.8c0.3,0,0.6,0.3,0.6,0.6C21.9,16.1,21.7,16.4,21.3,16.4z M17.7,16.4h-1.8c-0.3,0-0.6-0.3-0.6-0.6
			c0-0.3,0.3-0.6,0.6-0.6h1.8c0.3,0,0.6,0.3,0.6,0.6C18.3,16.1,18.1,16.4,17.7,16.4z M14.1,16.4h-1.8c-0.3,0-0.6-0.3-0.6-0.6
			c0-0.3,0.3-0.6,0.6-0.6h1.8c0.3,0,0.6,0.3,0.6,0.6C14.7,16.1,14.5,16.4,14.1,16.4z M10.5,16.4H9.7c-0.4,0-0.7,0-1-0.1
			c-0.3-0.1-0.5-0.4-0.5-0.7c0.1-0.3,0.4-0.5,0.7-0.5c0.3,0,0.5,0.1,0.8,0.1h0.9c0.3,0,0.6,0.3,0.6,0.6
			C11.1,16.1,10.9,16.4,10.5,16.4z M7.1,15.7c-0.1,0-0.2,0-0.3-0.1c-0.6-0.3-1.1-0.8-1.5-1.3c-0.2-0.3-0.2-0.6,0.1-0.8
			c0.3-0.2,0.6-0.2,0.8,0.1c0.3,0.4,0.7,0.8,1.2,1c0.3,0.2,0.4,0.5,0.2,0.8C7.5,15.6,7.3,15.7,7.1,15.7z M713.1,15.7
			c-0.2,0-0.4-0.1-0.5-0.3c-0.2-0.3-0.1-0.7,0.2-0.8c0.5-0.3,0.9-0.6,1.2-1c0.2-0.3,0.6-0.3,0.8-0.1c0.3,0.2,0.3,0.6,0.1,0.8
			c-0.4,0.5-0.9,1-1.5,1.3C713.4,15.6,713.2,15.7,713.1,15.7z M4.8,13c-0.2,0-0.5-0.2-0.6-0.4c-0.2-0.6-0.3-1.3-0.4-2
			c0-0.3,0.3-0.6,0.6-0.6h0c0.3,0,0.6,0.3,0.6,0.6c0,0.5,0.1,1.1,0.3,1.6c0.1,0.3,0,0.7-0.4,0.8C4.9,13,4.9,13,4.8,13z M715.4,13
			c-0.1,0-0.1,0-0.2,0c-0.3-0.1-0.5-0.5-0.4-0.8c0.2-0.5,0.3-1,0.3-1.6c0-0.3,0.3-0.6,0.6-0.6c0.3,0,0.6,0.2,0.6,0.6h-0.6l0.6,0
			c0,0.7-0.1,1.4-0.3,2C715.9,12.8,715.6,13,715.4,13z M4.8,9.5c-0.1,0-0.1,0-0.2,0C4.3,9.3,4.1,9,4.2,8.7c0.2-0.6,0.6-1.2,1-1.7
			C5.4,6.7,5.8,6.6,6,6.8c0.3,0.2,0.3,0.6,0.1,0.8C5.8,8.1,5.5,8.6,5.4,9.1C5.3,9.3,5,9.5,4.8,9.5z M715.4,9.4
			c-0.2,0-0.5-0.1-0.6-0.4c-0.2-0.5-0.5-1-0.8-1.4c-0.2-0.3-0.2-0.6,0.1-0.8c0.3-0.2,0.6-0.2,0.8,0.1c0.4,0.5,0.8,1.1,1,1.7
			c0.1,0.3,0,0.7-0.4,0.8C715.5,9.4,715.4,9.4,715.4,9.4z M7,6.7c-0.2,0-0.4-0.1-0.5-0.3C6.3,6.2,6.4,5.8,6.7,5.6
			C7.3,5.3,7.9,5,8.6,4.9c0.3-0.1,0.6,0.2,0.7,0.5C9.3,5.7,9.1,6,8.8,6.1c-0.5,0.1-1,0.3-1.5,0.6C7.2,6.7,7.1,6.7,7,6.7z M713.1,6.7
			c-0.1,0-0.2,0-0.3-0.1c-0.5-0.3-1-0.4-1.5-0.5c-0.3-0.1-0.5-0.4-0.5-0.7c0.1-0.3,0.4-0.6,0.7-0.5c0.7,0.1,1.3,0.3,1.9,0.7
			c0.3,0.2,0.4,0.5,0.2,0.8C713.5,6.6,713.3,6.7,713.1,6.7z M709.6,6h-1.8c-0.3,0-0.6-0.3-0.6-0.6s0.3-0.6,0.6-0.6h1.8
			c0.3,0,0.6,0.3,0.6,0.6S710,6,709.6,6z M706,6h-1.8c-0.3,0-0.6-0.3-0.6-0.6s0.3-0.6,0.6-0.6h1.8c0.3,0,0.6,0.3,0.6,0.6
			S706.4,6,706,6z M702.4,6h-1.8c-0.3,0-0.6-0.3-0.6-0.6s0.3-0.6,0.6-0.6h1.8c0.3,0,0.6,0.3,0.6,0.6S702.8,6,702.4,6z M698.8,6H697
			c-0.3,0-0.6-0.3-0.6-0.6s0.3-0.6,0.6-0.6h1.8c0.3,0,0.6,0.3,0.6,0.6S699.2,6,698.8,6z M695.2,6h-1.8c-0.3,0-0.6-0.3-0.6-0.6
			s0.3-0.6,0.6-0.6h1.8c0.3,0,0.6,0.3,0.6,0.6S695.6,6,695.2,6z M691.6,6h-1.8c-0.3,0-0.6-0.3-0.6-0.6s0.3-0.6,0.6-0.6h1.8
			c0.3,0,0.6,0.3,0.6,0.6S692,6,691.6,6z M688.1,6h-1.8c-0.3,0-0.6-0.3-0.6-0.6s0.3-0.6,0.6-0.6h1.8c0.3,0,0.6,0.3,0.6,0.6
			S688.4,6,688.1,6z M684.5,6h-1.8c-0.3,0-0.6-0.3-0.6-0.6s0.3-0.6,0.6-0.6h1.8c0.3,0,0.6,0.3,0.6,0.6S684.8,6,684.5,6z M680.9,6
			h-1.8c-0.3,0-0.6-0.3-0.6-0.6s0.3-0.6,0.6-0.6h1.8c0.3,0,0.6,0.3,0.6,0.6S681.2,6,680.9,6z M677.3,6h-1.8c-0.3,0-0.6-0.3-0.6-0.6
			s0.3-0.6,0.6-0.6h1.8c0.3,0,0.6,0.3,0.6,0.6S677.6,6,677.3,6z M673.7,6h-1.8c-0.3,0-0.6-0.3-0.6-0.6s0.3-0.6,0.6-0.6h1.8
			c0.3,0,0.6,0.3,0.6,0.6S674,6,673.7,6z M670.1,6h-1.8c-0.3,0-0.6-0.3-0.6-0.6s0.3-0.6,0.6-0.6h1.8c0.3,0,0.6,0.3,0.6,0.6
			S670.4,6,670.1,6z M666.5,6h-1.8c-0.3,0-0.6-0.3-0.6-0.6s0.3-0.6,0.6-0.6h1.8c0.3,0,0.6,0.3,0.6,0.6S666.8,6,666.5,6z M662.9,6
			h-1.8c-0.3,0-0.6-0.3-0.6-0.6s0.3-0.6,0.6-0.6h1.8c0.3,0,0.6,0.3,0.6,0.6S663.2,6,662.9,6z M659.3,6h-1.8c-0.3,0-0.6-0.3-0.6-0.6
			s0.3-0.6,0.6-0.6h1.8c0.3,0,0.6,0.3,0.6,0.6S659.6,6,659.3,6z M655.7,6h-1.8c-0.3,0-0.6-0.3-0.6-0.6s0.3-0.6,0.6-0.6h1.8
			c0.3,0,0.6,0.3,0.6,0.6S656,6,655.7,6z M652.1,6h-1.8c-0.3,0-0.6-0.3-0.6-0.6s0.3-0.6,0.6-0.6h1.8c0.3,0,0.6,0.3,0.6,0.6
			S652.4,6,652.1,6z M648.5,6h-1.8c-0.3,0-0.6-0.3-0.6-0.6s0.3-0.6,0.6-0.6h1.8c0.3,0,0.6,0.3,0.6,0.6S648.8,6,648.5,6z M644.9,6
			h-1.8c-0.3,0-0.6-0.3-0.6-0.6s0.3-0.6,0.6-0.6h1.8c0.3,0,0.6,0.3,0.6,0.6S645.3,6,644.9,6z M641.3,6h-1.8c-0.3,0-0.6-0.3-0.6-0.6
			s0.3-0.6,0.6-0.6h1.8c0.3,0,0.6,0.3,0.6,0.6S641.7,6,641.3,6z M637.7,6h-1.8c-0.3,0-0.6-0.3-0.6-0.6s0.3-0.6,0.6-0.6h1.8
			c0.3,0,0.6,0.3,0.6,0.6S638.1,6,637.7,6z M634.1,6h-1.8c-0.3,0-0.6-0.3-0.6-0.6s0.3-0.6,0.6-0.6h1.8c0.3,0,0.6,0.3,0.6,0.6
			S634.5,6,634.1,6z M630.5,6h-1.8c-0.3,0-0.6-0.3-0.6-0.6s0.3-0.6,0.6-0.6h1.8c0.3,0,0.6,0.3,0.6,0.6S630.9,6,630.5,6z M626.9,6
			h-1.8c-0.3,0-0.6-0.3-0.6-0.6s0.3-0.6,0.6-0.6h1.8c0.3,0,0.6,0.3,0.6,0.6S627.3,6,626.9,6z M623.4,6h-1.8c-0.3,0-0.6-0.3-0.6-0.6
			s0.3-0.6,0.6-0.6h1.8c0.3,0,0.6,0.3,0.6,0.6S623.7,6,623.4,6z M619.8,6H618c-0.3,0-0.6-0.3-0.6-0.6s0.3-0.6,0.6-0.6h1.8
			c0.3,0,0.6,0.3,0.6,0.6S620.1,6,619.8,6z M616.2,6h-1.8c-0.3,0-0.6-0.3-0.6-0.6s0.3-0.6,0.6-0.6h1.8c0.3,0,0.6,0.3,0.6,0.6
			S616.5,6,616.2,6z M612.6,6h-1.8c-0.3,0-0.6-0.3-0.6-0.6s0.3-0.6,0.6-0.6h1.8c0.3,0,0.6,0.3,0.6,0.6S612.9,6,612.6,6z M609,6h-1.8
			c-0.3,0-0.6-0.3-0.6-0.6s0.3-0.6,0.6-0.6h1.8c0.3,0,0.6,0.3,0.6,0.6S609.3,6,609,6z M605.4,6h-1.8c-0.3,0-0.6-0.3-0.6-0.6
			s0.3-0.6,0.6-0.6h1.8c0.3,0,0.6,0.3,0.6,0.6S605.7,6,605.4,6z M601.8,6H600c-0.3,0-0.6-0.3-0.6-0.6s0.3-0.6,0.6-0.6h1.8
			c0.3,0,0.6,0.3,0.6,0.6S602.1,6,601.8,6z M598.2,6h-1.8c-0.3,0-0.6-0.3-0.6-0.6s0.3-0.6,0.6-0.6h1.8c0.3,0,0.6,0.3,0.6,0.6
			S598.5,6,598.2,6z M594.6,6h-1.8c-0.3,0-0.6-0.3-0.6-0.6s0.3-0.6,0.6-0.6h1.8c0.3,0,0.6,0.3,0.6,0.6S594.9,6,594.6,6z M591,6h-1.8
			c-0.3,0-0.6-0.3-0.6-0.6s0.3-0.6,0.6-0.6h1.8c0.3,0,0.6,0.3,0.6,0.6S591.3,6,591,6z M587.4,6h-1.8c-0.3,0-0.6-0.3-0.6-0.6
			s0.3-0.6,0.6-0.6h1.8c0.3,0,0.6,0.3,0.6,0.6S587.7,6,587.4,6z M583.8,6H582c-0.3,0-0.6-0.3-0.6-0.6s0.3-0.6,0.6-0.6h1.8
			c0.3,0,0.6,0.3,0.6,0.6S584.1,6,583.8,6z M580.2,6h-1.8c-0.3,0-0.6-0.3-0.6-0.6s0.3-0.6,0.6-0.6h1.8c0.3,0,0.6,0.3,0.6,0.6
			S580.5,6,580.2,6z M576.6,6h-1.8c-0.3,0-0.6-0.3-0.6-0.6s0.3-0.6,0.6-0.6h1.8c0.3,0,0.6,0.3,0.6,0.6S577,6,576.6,6z M573,6h-1.8
			c-0.3,0-0.6-0.3-0.6-0.6s0.3-0.6,0.6-0.6h1.8c0.3,0,0.6,0.3,0.6,0.6S573.4,6,573,6z M569.4,6h-1.8c-0.3,0-0.6-0.3-0.6-0.6
			s0.3-0.6,0.6-0.6h1.8c0.3,0,0.6,0.3,0.6,0.6S569.8,6,569.4,6z M565.8,6H564c-0.3,0-0.6-0.3-0.6-0.6s0.3-0.6,0.6-0.6h1.8
			c0.3,0,0.6,0.3,0.6,0.6S566.2,6,565.8,6z M562.2,6h-1.8c-0.3,0-0.6-0.3-0.6-0.6s0.3-0.6,0.6-0.6h1.8c0.3,0,0.6,0.3,0.6,0.6
			S562.6,6,562.2,6z M558.7,6h-1.8c-0.3,0-0.6-0.3-0.6-0.6s0.3-0.6,0.6-0.6h1.8c0.3,0,0.6,0.3,0.6,0.6S559,6,558.7,6z M555.1,6h-1.8
			c-0.3,0-0.6-0.3-0.6-0.6s0.3-0.6,0.6-0.6h1.8c0.3,0,0.6,0.3,0.6,0.6S555.4,6,555.1,6z M551.5,6h-1.8c-0.3,0-0.6-0.3-0.6-0.6
			s0.3-0.6,0.6-0.6h1.8c0.3,0,0.6,0.3,0.6,0.6S551.8,6,551.5,6z M547.9,6h-1.8c-0.3,0-0.6-0.3-0.6-0.6s0.3-0.6,0.6-0.6h1.8
			c0.3,0,0.6,0.3,0.6,0.6S548.2,6,547.9,6z M544.3,6h-1.8c-0.3,0-0.6-0.3-0.6-0.6s0.3-0.6,0.6-0.6h1.8c0.3,0,0.6,0.3,0.6,0.6
			S544.6,6,544.3,6z M540.7,6h-1.8c-0.3,0-0.6-0.3-0.6-0.6s0.3-0.6,0.6-0.6h1.8c0.3,0,0.6,0.3,0.6,0.6S541,6,540.7,6z M537.1,6h-1.8
			c-0.3,0-0.6-0.3-0.6-0.6s0.3-0.6,0.6-0.6h1.8c0.3,0,0.6,0.3,0.6,0.6S537.4,6,537.1,6z M533.5,6h-1.8c-0.3,0-0.6-0.3-0.6-0.6
			s0.3-0.6,0.6-0.6h1.8c0.3,0,0.6,0.3,0.6,0.6S533.8,6,533.5,6z M529.9,6h-1.8c-0.3,0-0.6-0.3-0.6-0.6s0.3-0.6,0.6-0.6h1.8
			c0.3,0,0.6,0.3,0.6,0.6S530.2,6,529.9,6z M526.3,6h-1.8c-0.3,0-0.6-0.3-0.6-0.6s0.3-0.6,0.6-0.6h1.8c0.3,0,0.6,0.3,0.6,0.6
			S526.6,6,526.3,6z M522.7,6h-1.8c-0.3,0-0.6-0.3-0.6-0.6s0.3-0.6,0.6-0.6h1.8c0.3,0,0.6,0.3,0.6,0.6S523,6,522.7,6z M519.1,6h-1.8
			c-0.3,0-0.6-0.3-0.6-0.6s0.3-0.6,0.6-0.6h1.8c0.3,0,0.6,0.3,0.6,0.6S519.4,6,519.1,6z M515.5,6h-1.8c-0.3,0-0.6-0.3-0.6-0.6
			s0.3-0.6,0.6-0.6h1.8c0.3,0,0.6,0.3,0.6,0.6S515.8,6,515.5,6z M511.9,6h-1.8c-0.3,0-0.6-0.3-0.6-0.6s0.3-0.6,0.6-0.6h1.8
			c0.3,0,0.6,0.3,0.6,0.6S512.3,6,511.9,6z M508.3,6h-1.8c-0.3,0-0.6-0.3-0.6-0.6s0.3-0.6,0.6-0.6h1.8c0.3,0,0.6,0.3,0.6,0.6
			S508.7,6,508.3,6z M504.7,6h-1.8c-0.3,0-0.6-0.3-0.6-0.6s0.3-0.6,0.6-0.6h1.8c0.3,0,0.6,0.3,0.6,0.6S505.1,6,504.7,6z M501.1,6
			h-1.8c-0.3,0-0.6-0.3-0.6-0.6s0.3-0.6,0.6-0.6h1.8c0.3,0,0.6,0.3,0.6,0.6S501.5,6,501.1,6z M497.5,6h-1.8c-0.3,0-0.6-0.3-0.6-0.6
			s0.3-0.6,0.6-0.6h1.8c0.3,0,0.6,0.3,0.6,0.6S497.9,6,497.5,6z M493.9,6h-1.8c-0.3,0-0.6-0.3-0.6-0.6s0.3-0.6,0.6-0.6h1.8
			c0.3,0,0.6,0.3,0.6,0.6S494.3,6,493.9,6z M490.4,6h-1.8c-0.3,0-0.6-0.3-0.6-0.6s0.3-0.6,0.6-0.6h1.8c0.3,0,0.6,0.3,0.6,0.6
			S490.7,6,490.4,6z M486.8,6H485c-0.3,0-0.6-0.3-0.6-0.6s0.3-0.6,0.6-0.6h1.8c0.3,0,0.6,0.3,0.6,0.6S487.1,6,486.8,6z M483.2,6
			h-1.8c-0.3,0-0.6-0.3-0.6-0.6s0.3-0.6,0.6-0.6h1.8c0.3,0,0.6,0.3,0.6,0.6S483.5,6,483.2,6z M479.6,6h-1.8c-0.3,0-0.6-0.3-0.6-0.6
			s0.3-0.6,0.6-0.6h1.8c0.3,0,0.6,0.3,0.6,0.6S479.9,6,479.6,6z M476,6h-1.8c-0.3,0-0.6-0.3-0.6-0.6s0.3-0.6,0.6-0.6h1.8
			c0.3,0,0.6,0.3,0.6,0.6S476.3,6,476,6z M472.4,6h-1.8c-0.3,0-0.6-0.3-0.6-0.6s0.3-0.6,0.6-0.6h1.8c0.3,0,0.6,0.3,0.6,0.6
			S472.7,6,472.4,6z M468.8,6H467c-0.3,0-0.6-0.3-0.6-0.6s0.3-0.6,0.6-0.6h1.8c0.3,0,0.6,0.3,0.6,0.6S469.1,6,468.8,6z M465.2,6
			h-1.8c-0.3,0-0.6-0.3-0.6-0.6s0.3-0.6,0.6-0.6h1.8c0.3,0,0.6,0.3,0.6,0.6S465.5,6,465.2,6z M461.6,6h-1.8c-0.3,0-0.6-0.3-0.6-0.6
			s0.3-0.6,0.6-0.6h1.8c0.3,0,0.6,0.3,0.6,0.6S461.9,6,461.6,6z M458,6h-1.8c-0.3,0-0.6-0.3-0.6-0.6s0.3-0.6,0.6-0.6h1.8
			c0.3,0,0.6,0.3,0.6,0.6S458.3,6,458,6z M454.4,6h-1.8c-0.3,0-0.6-0.3-0.6-0.6s0.3-0.6,0.6-0.6h1.8c0.3,0,0.6,0.3,0.6,0.6
			S454.7,6,454.4,6z M450.8,6H449c-0.3,0-0.6-0.3-0.6-0.6s0.3-0.6,0.6-0.6h1.8c0.3,0,0.6,0.3,0.6,0.6S451.1,6,450.8,6z M447.2,6
			h-1.8c-0.3,0-0.6-0.3-0.6-0.6s0.3-0.6,0.6-0.6h1.8c0.3,0,0.6,0.3,0.6,0.6S447.6,6,447.2,6z M443.6,6h-1.8c-0.3,0-0.6-0.3-0.6-0.6
			s0.3-0.6,0.6-0.6h1.8c0.3,0,0.6,0.3,0.6,0.6S444,6,443.6,6z M440,6h-1.8c-0.3,0-0.6-0.3-0.6-0.6s0.3-0.6,0.6-0.6h1.8
			c0.3,0,0.6,0.3,0.6,0.6S440.4,6,440,6z M436.4,6h-1.8c-0.3,0-0.6-0.3-0.6-0.6s0.3-0.6,0.6-0.6h1.8c0.3,0,0.6,0.3,0.6,0.6
			S436.8,6,436.4,6z M432.8,6H431c-0.3,0-0.6-0.3-0.6-0.6s0.3-0.6,0.6-0.6h1.8c0.3,0,0.6,0.3,0.6,0.6S433.2,6,432.8,6z M429.2,6
			h-1.8c-0.3,0-0.6-0.3-0.6-0.6s0.3-0.6,0.6-0.6h1.8c0.3,0,0.6,0.3,0.6,0.6S429.6,6,429.2,6z M425.7,6h-1.8c-0.3,0-0.6-0.3-0.6-0.6
			s0.3-0.6,0.6-0.6h1.8c0.3,0,0.6,0.3,0.6,0.6S426,6,425.7,6z M422.1,6h-1.8c-0.3,0-0.6-0.3-0.6-0.6s0.3-0.6,0.6-0.6h1.8
			c0.3,0,0.6,0.3,0.6,0.6S422.4,6,422.1,6z M418.5,6h-1.8c-0.3,0-0.6-0.3-0.6-0.6s0.3-0.6,0.6-0.6h1.8c0.3,0,0.6,0.3,0.6,0.6
			S418.8,6,418.5,6z M414.9,6h-1.8c-0.3,0-0.6-0.3-0.6-0.6s0.3-0.6,0.6-0.6h1.8c0.3,0,0.6,0.3,0.6,0.6S415.2,6,414.9,6z M411.3,6
			h-1.8c-0.3,0-0.6-0.3-0.6-0.6s0.3-0.6,0.6-0.6h1.8c0.3,0,0.6,0.3,0.6,0.6S411.6,6,411.3,6z M407.7,6h-1.8c-0.3,0-0.6-0.3-0.6-0.6
			s0.3-0.6,0.6-0.6h1.8c0.3,0,0.6,0.3,0.6,0.6S408,6,407.7,6z M404.1,6h-1.8c-0.3,0-0.6-0.3-0.6-0.6s0.3-0.6,0.6-0.6h1.8
			c0.3,0,0.6,0.3,0.6,0.6S404.4,6,404.1,6z M400.5,6h-1.8c-0.3,0-0.6-0.3-0.6-0.6s0.3-0.6,0.6-0.6h1.8c0.3,0,0.6,0.3,0.6,0.6
			S400.8,6,400.5,6z M396.9,6h-1.8c-0.3,0-0.6-0.3-0.6-0.6s0.3-0.6,0.6-0.6h1.8c0.3,0,0.6,0.3,0.6,0.6S397.2,6,396.9,6z M393.3,6
			h-1.8c-0.3,0-0.6-0.3-0.6-0.6s0.3-0.6,0.6-0.6h1.8c0.3,0,0.6,0.3,0.6,0.6S393.6,6,393.3,6z M389.7,6h-1.8c-0.3,0-0.6-0.3-0.6-0.6
			s0.3-0.6,0.6-0.6h1.8c0.3,0,0.6,0.3,0.6,0.6S390,6,389.7,6z M386.1,6h-1.8c-0.3,0-0.6-0.3-0.6-0.6s0.3-0.6,0.6-0.6h1.8
			c0.3,0,0.6,0.3,0.6,0.6S386.4,6,386.1,6z M382.5,6h-1.8c-0.3,0-0.6-0.3-0.6-0.6s0.3-0.6,0.6-0.6h1.8c0.3,0,0.6,0.3,0.6,0.6
			S382.8,6,382.5,6z M378.9,6h-1.8c-0.3,0-0.6-0.3-0.6-0.6s0.3-0.6,0.6-0.6h1.8c0.3,0,0.6,0.3,0.6,0.6S379.3,6,378.9,6z M375.3,6
			h-1.8c-0.3,0-0.6-0.3-0.6-0.6s0.3-0.6,0.6-0.6h1.8c0.3,0,0.6,0.3,0.6,0.6S375.7,6,375.3,6z M371.7,6h-1.8c-0.3,0-0.6-0.3-0.6-0.6
			s0.3-0.6,0.6-0.6h1.8c0.3,0,0.6,0.3,0.6,0.6S372.1,6,371.7,6z M368.1,6h-1.8c-0.3,0-0.6-0.3-0.6-0.6s0.3-0.6,0.6-0.6h1.8
			c0.3,0,0.6,0.3,0.6,0.6S368.5,6,368.1,6z M364.5,6h-1.8c-0.3,0-0.6-0.3-0.6-0.6s0.3-0.6,0.6-0.6h1.8c0.3,0,0.6,0.3,0.6,0.6
			S364.9,6,364.5,6z M361,6h-1.8c-0.3,0-0.6-0.3-0.6-0.6s0.3-0.6,0.6-0.6h1.8c0.3,0,0.6,0.3,0.6,0.6S361.3,6,361,6z M357.4,6h-1.8
			c-0.3,0-0.6-0.3-0.6-0.6s0.3-0.6,0.6-0.6h1.8c0.3,0,0.6,0.3,0.6,0.6S357.7,6,357.4,6z M353.8,6H352c-0.3,0-0.6-0.3-0.6-0.6
			s0.3-0.6,0.6-0.6h1.8c0.3,0,0.6,0.3,0.6,0.6S354.1,6,353.8,6z M350.2,6h-1.8c-0.3,0-0.6-0.3-0.6-0.6s0.3-0.6,0.6-0.6h1.8
			c0.3,0,0.6,0.3,0.6,0.6S350.5,6,350.2,6z M346.6,6h-1.8c-0.3,0-0.6-0.3-0.6-0.6s0.3-0.6,0.6-0.6h1.8c0.3,0,0.6,0.3,0.6,0.6
			S346.9,6,346.6,6z M343,6h-1.8c-0.3,0-0.6-0.3-0.6-0.6s0.3-0.6,0.6-0.6h1.8c0.3,0,0.6,0.3,0.6,0.6S343.3,6,343,6z M339.4,6h-1.8
			c-0.3,0-0.6-0.3-0.6-0.6s0.3-0.6,0.6-0.6h1.8c0.3,0,0.6,0.3,0.6,0.6S339.7,6,339.4,6z M335.8,6H334c-0.3,0-0.6-0.3-0.6-0.6
			s0.3-0.6,0.6-0.6h1.8c0.3,0,0.6,0.3,0.6,0.6S336.1,6,335.8,6z M332.2,6h-1.8c-0.3,0-0.6-0.3-0.6-0.6s0.3-0.6,0.6-0.6h1.8
			c0.3,0,0.6,0.3,0.6,0.6S332.5,6,332.2,6z M328.6,6h-1.8c-0.3,0-0.6-0.3-0.6-0.6s0.3-0.6,0.6-0.6h1.8c0.3,0,0.6,0.3,0.6,0.6
			S328.9,6,328.6,6z M325,6h-1.8c-0.3,0-0.6-0.3-0.6-0.6s0.3-0.6,0.6-0.6h1.8c0.3,0,0.6,0.3,0.6,0.6S325.3,6,325,6z M321.4,6h-1.8
			c-0.3,0-0.6-0.3-0.6-0.6s0.3-0.6,0.6-0.6h1.8c0.3,0,0.6,0.3,0.6,0.6S321.7,6,321.4,6z M317.8,6H316c-0.3,0-0.6-0.3-0.6-0.6
			s0.3-0.6,0.6-0.6h1.8c0.3,0,0.6,0.3,0.6,0.6S318.1,6,317.8,6z M314.2,6h-1.8c-0.3,0-0.6-0.3-0.6-0.6s0.3-0.6,0.6-0.6h1.8
			c0.3,0,0.6,0.3,0.6,0.6S314.6,6,314.2,6z M310.6,6h-1.8c-0.3,0-0.6-0.3-0.6-0.6s0.3-0.6,0.6-0.6h1.8c0.3,0,0.6,0.3,0.6,0.6
			S311,6,310.6,6z M307,6h-1.8c-0.3,0-0.6-0.3-0.6-0.6s0.3-0.6,0.6-0.6h1.8c0.3,0,0.6,0.3,0.6,0.6S307.4,6,307,6z M303.4,6h-1.8
			c-0.3,0-0.6-0.3-0.6-0.6s0.3-0.6,0.6-0.6h1.8c0.3,0,0.6,0.3,0.6,0.6S303.8,6,303.4,6z M299.8,6H298c-0.3,0-0.6-0.3-0.6-0.6
			s0.3-0.6,0.6-0.6h1.8c0.3,0,0.6,0.3,0.6,0.6S300.2,6,299.8,6z M296.2,6h-1.8c-0.3,0-0.6-0.3-0.6-0.6s0.3-0.6,0.6-0.6h1.8
			c0.3,0,0.6,0.3,0.6,0.6S296.6,6,296.2,6z M292.7,6h-1.8c-0.3,0-0.6-0.3-0.6-0.6s0.3-0.6,0.6-0.6h1.8c0.3,0,0.6,0.3,0.6,0.6
			S293,6,292.7,6z M289.1,6h-1.8c-0.3,0-0.6-0.3-0.6-0.6s0.3-0.6,0.6-0.6h1.8c0.3,0,0.6,0.3,0.6,0.6S289.4,6,289.1,6z M285.5,6h-1.8
			c-0.3,0-0.6-0.3-0.6-0.6s0.3-0.6,0.6-0.6h1.8c0.3,0,0.6,0.3,0.6,0.6S285.8,6,285.5,6z M281.9,6h-1.8c-0.3,0-0.6-0.3-0.6-0.6
			s0.3-0.6,0.6-0.6h1.8c0.3,0,0.6,0.3,0.6,0.6S282.2,6,281.9,6z M278.3,6h-1.8c-0.3,0-0.6-0.3-0.6-0.6s0.3-0.6,0.6-0.6h1.8
			c0.3,0,0.6,0.3,0.6,0.6S278.6,6,278.3,6z M274.7,6h-1.8c-0.3,0-0.6-0.3-0.6-0.6s0.3-0.6,0.6-0.6h1.8c0.3,0,0.6,0.3,0.6,0.6
			S275,6,274.7,6z M271.1,6h-1.8c-0.3,0-0.6-0.3-0.6-0.6s0.3-0.6,0.6-0.6h1.8c0.3,0,0.6,0.3,0.6,0.6S271.4,6,271.1,6z M267.5,6h-1.8
			c-0.3,0-0.6-0.3-0.6-0.6s0.3-0.6,0.6-0.6h1.8c0.3,0,0.6,0.3,0.6,0.6S267.8,6,267.5,6z M263.9,6h-1.8c-0.3,0-0.6-0.3-0.6-0.6
			s0.3-0.6,0.6-0.6h1.8c0.3,0,0.6,0.3,0.6,0.6S264.2,6,263.9,6z M260.3,6h-1.8c-0.3,0-0.6-0.3-0.6-0.6s0.3-0.6,0.6-0.6h1.8
			c0.3,0,0.6,0.3,0.6,0.6S260.6,6,260.3,6z M256.7,6h-1.8c-0.3,0-0.6-0.3-0.6-0.6s0.3-0.6,0.6-0.6h1.8c0.3,0,0.6,0.3,0.6,0.6
			S257,6,256.7,6z M253.1,6h-1.8c-0.3,0-0.6-0.3-0.6-0.6s0.3-0.6,0.6-0.6h1.8c0.3,0,0.6,0.3,0.6,0.6S253.4,6,253.1,6z M249.5,6h-1.8
			c-0.3,0-0.6-0.3-0.6-0.6s0.3-0.6,0.6-0.6h1.8c0.3,0,0.6,0.3,0.6,0.6S249.9,6,249.5,6z M245.9,6h-1.8c-0.3,0-0.6-0.3-0.6-0.6
			s0.3-0.6,0.6-0.6h1.8c0.3,0,0.6,0.3,0.6,0.6S246.3,6,245.9,6z M242.3,6h-1.8c-0.3,0-0.6-0.3-0.6-0.6s0.3-0.6,0.6-0.6h1.8
			c0.3,0,0.6,0.3,0.6,0.6S242.7,6,242.3,6z M238.7,6h-1.8c-0.3,0-0.6-0.3-0.6-0.6s0.3-0.6,0.6-0.6h1.8c0.3,0,0.6,0.3,0.6,0.6
			S239.1,6,238.7,6z M235.1,6h-1.8c-0.3,0-0.6-0.3-0.6-0.6s0.3-0.6,0.6-0.6h1.8c0.3,0,0.6,0.3,0.6,0.6S235.5,6,235.1,6z M231.5,6
			h-1.8c-0.3,0-0.6-0.3-0.6-0.6s0.3-0.6,0.6-0.6h1.8c0.3,0,0.6,0.3,0.6,0.6S231.9,6,231.5,6z M228,6h-1.8c-0.3,0-0.6-0.3-0.6-0.6
			s0.3-0.6,0.6-0.6h1.8c0.3,0,0.6,0.3,0.6,0.6S228.3,6,228,6z M224.4,6h-1.8c-0.3,0-0.6-0.3-0.6-0.6s0.3-0.6,0.6-0.6h1.8
			c0.3,0,0.6,0.3,0.6,0.6S224.7,6,224.4,6z M220.8,6H219c-0.3,0-0.6-0.3-0.6-0.6s0.3-0.6,0.6-0.6h1.8c0.3,0,0.6,0.3,0.6,0.6
			S221.1,6,220.8,6z M217.2,6h-1.8c-0.3,0-0.6-0.3-0.6-0.6s0.3-0.6,0.6-0.6h1.8c0.3,0,0.6,0.3,0.6,0.6S217.5,6,217.2,6z M213.6,6
			h-1.8c-0.3,0-0.6-0.3-0.6-0.6s0.3-0.6,0.6-0.6h1.8c0.3,0,0.6,0.3,0.6,0.6S213.9,6,213.6,6z M210,6h-1.8c-0.3,0-0.6-0.3-0.6-0.6
			s0.3-0.6,0.6-0.6h1.8c0.3,0,0.6,0.3,0.6,0.6S210.3,6,210,6z M206.4,6h-1.8c-0.3,0-0.6-0.3-0.6-0.6s0.3-0.6,0.6-0.6h1.8
			c0.3,0,0.6,0.3,0.6,0.6S206.7,6,206.4,6z M202.8,6H201c-0.3,0-0.6-0.3-0.6-0.6s0.3-0.6,0.6-0.6h1.8c0.3,0,0.6,0.3,0.6,0.6
			S203.1,6,202.8,6z M199.2,6h-1.8c-0.3,0-0.6-0.3-0.6-0.6s0.3-0.6,0.6-0.6h1.8c0.3,0,0.6,0.3,0.6,0.6S199.5,6,199.2,6z M195.6,6
			h-1.8c-0.3,0-0.6-0.3-0.6-0.6s0.3-0.6,0.6-0.6h1.8c0.3,0,0.6,0.3,0.6,0.6S195.9,6,195.6,6z M192,6h-1.8c-0.3,0-0.6-0.3-0.6-0.6
			s0.3-0.6,0.6-0.6h1.8c0.3,0,0.6,0.3,0.6,0.6S192.3,6,192,6z M188.4,6h-1.8c-0.3,0-0.6-0.3-0.6-0.6s0.3-0.6,0.6-0.6h1.8
			c0.3,0,0.6,0.3,0.6,0.6S188.7,6,188.4,6z M184.8,6H183c-0.3,0-0.6-0.3-0.6-0.6s0.3-0.6,0.6-0.6h1.8c0.3,0,0.6,0.3,0.6,0.6
			S185.1,6,184.8,6z M181.2,6h-1.8c-0.3,0-0.6-0.3-0.6-0.6s0.3-0.6,0.6-0.6h1.8c0.3,0,0.6,0.3,0.6,0.6S181.6,6,181.2,6z M177.6,6
			h-1.8c-0.3,0-0.6-0.3-0.6-0.6s0.3-0.6,0.6-0.6h1.8c0.3,0,0.6,0.3,0.6,0.6S178,6,177.6,6z M174,6h-1.8c-0.3,0-0.6-0.3-0.6-0.6
			s0.3-0.6,0.6-0.6h1.8c0.3,0,0.6,0.3,0.6,0.6S174.4,6,174,6z M170.4,6h-1.8c-0.3,0-0.6-0.3-0.6-0.6s0.3-0.6,0.6-0.6h1.8
			c0.3,0,0.6,0.3,0.6,0.6S170.8,6,170.4,6z M166.8,6H165c-0.3,0-0.6-0.3-0.6-0.6s0.3-0.6,0.6-0.6h1.8c0.3,0,0.6,0.3,0.6,0.6
			S167.2,6,166.8,6z M163.3,6h-1.8c-0.3,0-0.6-0.3-0.6-0.6s0.3-0.6,0.6-0.6h1.8c0.3,0,0.6,0.3,0.6,0.6S163.6,6,163.3,6z M159.7,6
			h-1.8c-0.3,0-0.6-0.3-0.6-0.6s0.3-0.6,0.6-0.6h1.8c0.3,0,0.6,0.3,0.6,0.6S160,6,159.7,6z M156.1,6h-1.8c-0.3,0-0.6-0.3-0.6-0.6
			s0.3-0.6,0.6-0.6h1.8c0.3,0,0.6,0.3,0.6,0.6S156.4,6,156.1,6z M152.5,6h-1.8c-0.3,0-0.6-0.3-0.6-0.6s0.3-0.6,0.6-0.6h1.8
			c0.3,0,0.6,0.3,0.6,0.6S152.8,6,152.5,6z M148.9,6h-1.8c-0.3,0-0.6-0.3-0.6-0.6s0.3-0.6,0.6-0.6h1.8c0.3,0,0.6,0.3,0.6,0.6
			S149.2,6,148.9,6z M145.3,6h-1.8c-0.3,0-0.6-0.3-0.6-0.6s0.3-0.6,0.6-0.6h1.8c0.3,0,0.6,0.3,0.6,0.6S145.6,6,145.3,6z M141.7,6
			h-1.8c-0.3,0-0.6-0.3-0.6-0.6s0.3-0.6,0.6-0.6h1.8c0.3,0,0.6,0.3,0.6,0.6S142,6,141.7,6z M138.1,6h-1.8c-0.3,0-0.6-0.3-0.6-0.6
			s0.3-0.6,0.6-0.6h1.8c0.3,0,0.6,0.3,0.6,0.6S138.4,6,138.1,6z M134.5,6h-1.8c-0.3,0-0.6-0.3-0.6-0.6s0.3-0.6,0.6-0.6h1.8
			c0.3,0,0.6,0.3,0.6,0.6S134.8,6,134.5,6z M130.9,6h-1.8c-0.3,0-0.6-0.3-0.6-0.6s0.3-0.6,0.6-0.6h1.8c0.3,0,0.6,0.3,0.6,0.6
			S131.2,6,130.9,6z M127.3,6h-1.8c-0.3,0-0.6-0.3-0.6-0.6s0.3-0.6,0.6-0.6h1.8c0.3,0,0.6,0.3,0.6,0.6S127.6,6,127.3,6z M123.7,6
			h-1.8c-0.3,0-0.6-0.3-0.6-0.6s0.3-0.6,0.6-0.6h1.8c0.3,0,0.6,0.3,0.6,0.6S124,6,123.7,6z M120.1,6h-1.8c-0.3,0-0.6-0.3-0.6-0.6
			s0.3-0.6,0.6-0.6h1.8c0.3,0,0.6,0.3,0.6,0.6S120.4,6,120.1,6z M116.5,6h-1.8c-0.3,0-0.6-0.3-0.6-0.6s0.3-0.6,0.6-0.6h1.8
			c0.3,0,0.6,0.3,0.6,0.6S116.9,6,116.5,6z M112.9,6h-1.8c-0.3,0-0.6-0.3-0.6-0.6s0.3-0.6,0.6-0.6h1.8c0.3,0,0.6,0.3,0.6,0.6
			S113.3,6,112.9,6z M109.3,6h-1.8c-0.3,0-0.6-0.3-0.6-0.6s0.3-0.6,0.6-0.6h1.8c0.3,0,0.6,0.3,0.6,0.6S109.7,6,109.3,6z M105.7,6
			h-1.8c-0.3,0-0.6-0.3-0.6-0.6s0.3-0.6,0.6-0.6h1.8c0.3,0,0.6,0.3,0.6,0.6S106.1,6,105.7,6z M102.1,6h-1.8c-0.3,0-0.6-0.3-0.6-0.6
			s0.3-0.6,0.6-0.6h1.8c0.3,0,0.6,0.3,0.6,0.6S102.5,6,102.1,6z M98.5,6h-1.8c-0.3,0-0.6-0.3-0.6-0.6s0.3-0.6,0.6-0.6h1.8
			c0.3,0,0.6,0.3,0.6,0.6S98.9,6,98.5,6z M95,6h-1.8c-0.3,0-0.6-0.3-0.6-0.6s0.3-0.6,0.6-0.6H95c0.3,0,0.6,0.3,0.6,0.6S95.3,6,95,6z
			 M91.4,6h-1.8C89.2,6,89,5.7,89,5.4s0.3-0.6,0.6-0.6h1.8c0.3,0,0.6,0.3,0.6,0.6S91.7,6,91.4,6z M87.8,6H86c-0.3,0-0.6-0.3-0.6-0.6
			s0.3-0.6,0.6-0.6h1.8c0.3,0,0.6,0.3,0.6,0.6S88.1,6,87.8,6z M84.2,6h-1.8c-0.3,0-0.6-0.3-0.6-0.6s0.3-0.6,0.6-0.6h1.8
			c0.3,0,0.6,0.3,0.6,0.6S84.5,6,84.2,6z M80.6,6h-1.8c-0.3,0-0.6-0.3-0.6-0.6s0.3-0.6,0.6-0.6h1.8c0.3,0,0.6,0.3,0.6,0.6
			S80.9,6,80.6,6z M77,6h-1.8c-0.3,0-0.6-0.3-0.6-0.6s0.3-0.6,0.6-0.6H77c0.3,0,0.6,0.3,0.6,0.6S77.3,6,77,6z M73.4,6h-1.8
			C71.3,6,71,5.7,71,5.4s0.3-0.6,0.6-0.6h1.8c0.3,0,0.6,0.3,0.6,0.6S73.7,6,73.4,6z M69.8,6H68c-0.3,0-0.6-0.3-0.6-0.6
			s0.3-0.6,0.6-0.6h1.8c0.3,0,0.6,0.3,0.6,0.6S70.1,6,69.8,6z M66.2,6h-1.8c-0.3,0-0.6-0.3-0.6-0.6s0.3-0.6,0.6-0.6h1.8
			c0.3,0,0.6,0.3,0.6,0.6S66.5,6,66.2,6z M62.6,6h-1.8c-0.3,0-0.6-0.3-0.6-0.6s0.3-0.6,0.6-0.6h1.8c0.3,0,0.6,0.3,0.6,0.6
			S62.9,6,62.6,6z M59,6h-1.8c-0.3,0-0.6-0.3-0.6-0.6s0.3-0.6,0.6-0.6H59c0.3,0,0.6,0.3,0.6,0.6S59.3,6,59,6z M55.4,6h-1.8
			C53.3,6,53,5.7,53,5.4s0.3-0.6,0.6-0.6h1.8c0.3,0,0.6,0.3,0.6,0.6S55.7,6,55.4,6z M51.8,6H50c-0.3,0-0.6-0.3-0.6-0.6
			s0.3-0.6,0.6-0.6h1.8c0.3,0,0.6,0.3,0.6,0.6S52.2,6,51.8,6z M48.2,6h-1.8c-0.3,0-0.6-0.3-0.6-0.6s0.3-0.6,0.6-0.6h1.8
			c0.3,0,0.6,0.3,0.6,0.6S48.6,6,48.2,6z M44.6,6h-1.8c-0.3,0-0.6-0.3-0.6-0.6s0.3-0.6,0.6-0.6h1.8c0.3,0,0.6,0.3,0.6,0.6
			S45,6,44.6,6z M41,6h-1.8c-0.3,0-0.6-0.3-0.6-0.6s0.3-0.6,0.6-0.6H41c0.3,0,0.6,0.3,0.6,0.6S41.4,6,41,6z M37.4,6h-1.8
			C35.3,6,35,5.7,35,5.4s0.3-0.6,0.6-0.6h1.8c0.3,0,0.6,0.3,0.6,0.6S37.8,6,37.4,6z M33.8,6h-1.8c-0.3,0-0.6-0.3-0.6-0.6
			s0.3-0.6,0.6-0.6h1.8c0.3,0,0.6,0.3,0.6,0.6S34.2,6,33.8,6z M30.3,6h-1.8c-0.3,0-0.6-0.3-0.6-0.6s0.3-0.6,0.6-0.6h1.8
			c0.3,0,0.6,0.3,0.6,0.6S30.6,6,30.3,6z M26.7,6h-1.8c-0.3,0-0.6-0.3-0.6-0.6s0.3-0.6,0.6-0.6h1.8c0.3,0,0.6,0.3,0.6,0.6
			S27,6,26.7,6z M23.1,6h-1.8c-0.3,0-0.6-0.3-0.6-0.6s0.3-0.6,0.6-0.6h1.8c0.3,0,0.6,0.3,0.6,0.6S23.4,6,23.1,6z M19.5,6h-1.8
			c-0.3,0-0.6-0.3-0.6-0.6s0.3-0.6,0.6-0.6h1.8c0.3,0,0.6,0.3,0.6,0.6S19.8,6,19.5,6z M15.9,6h-1.8c-0.3,0-0.6-0.3-0.6-0.6
			s0.3-0.6,0.6-0.6h1.8c0.3,0,0.6,0.3,0.6,0.6S16.2,6,15.9,6z M12.3,6h-1.8c-0.3,0-0.6-0.3-0.6-0.6s0.3-0.6,0.6-0.6h1.8
			c0.3,0,0.6,0.3,0.6,0.6S12.6,6,12.3,6z"/>
	</g>
</g>
<g>
	<path fill="#ABABAB" d="M13.5,10.4c0,2-1.6,3.6-3.6,3.6l0,0c-2,0-3.6-1.6-3.6-3.6l0,0c0-2,1.6-3.6,3.6-3.6l0,0
		C11.9,6.8,13.5,8.4,13.5,10.4L13.5,10.4z"/>
	<path fill="#ABABAB" d="M27.2,10.4c0,2-1.6,3.6-3.6,3.6l0,0c-2,0-3.6-1.6-3.6-3.6l0,0c0-2,1.6-3.6,3.6-3.6l0,0
		C25.6,6.8,27.2,8.4,27.2,10.4L27.2,10.4z"/>
	<path fill="#ABABAB" d="M41,10.4c0,2-1.6,3.6-3.6,3.6l0,0c-2,0-3.6-1.6-3.6-3.6l0,0c0-2,1.6-3.6,3.6-3.6l0,0
		C39.3,6.8,41,8.4,41,10.4L41,10.4z"/>
	<path fill="#ABABAB" d="M54.7,10.4c0,2-1.6,3.6-3.6,3.6l0,0c-2,0-3.6-1.6-3.6-3.6l0,0c0-2,1.6-3.6,3.6-3.6l0,0
		C53.1,6.8,54.7,8.4,54.7,10.4L54.7,10.4z"/>
	<path fill="#ABABAB" d="M68.4,10.4c0,2-1.6,3.6-3.6,3.6l0,0c-2,0-3.6-1.6-3.6-3.6l0,0c0-2,1.6-3.6,3.6-3.6l0,0
		C66.8,6.8,68.4,8.4,68.4,10.4L68.4,10.4z"/>
	<path fill="#ABABAB" d="M82.2,10.4c0,2-1.6,3.6-3.6,3.6l0,0c-2,0-3.6-1.6-3.6-3.6l0,0c0-2,1.6-3.6,3.6-3.6l0,0
		C80.6,6.8,82.2,8.4,82.2,10.4L82.2,10.4z"/>
	<path fill="#ABABAB" d="M95.9,10.4c0,2-1.6,3.6-3.6,3.6l0,0c-2,0-3.6-1.6-3.6-3.6l0,0c0-2,1.6-3.6,3.6-3.6l0,0
		C94.3,6.8,95.9,8.4,95.9,10.4L95.9,10.4z"/>
	<path fill="#ABABAB" d="M109.6,10.4c0,2-1.6,3.6-3.6,3.6l0,0c-2,0-3.6-1.6-3.6-3.6l0,0c0-2,1.6-3.6,3.6-3.6l0,0
		C108,6.8,109.6,8.4,109.6,10.4L109.6,10.4z"/>
	<path fill="#ABABAB" d="M123.4,10.4c0,2-1.6,3.6-3.6,3.6l0,0c-2,0-3.6-1.6-3.6-3.6l0,0c0-2,1.6-3.6,3.6-3.6l0,0
		C121.8,6.8,123.4,8.4,123.4,10.4L123.4,10.4z"/>
	<path fill="#ABABAB" d="M137.1,10.4c0,2-1.6,3.6-3.6,3.6l0,0c-2,0-3.6-1.6-3.6-3.6l0,0c0-2,1.6-3.6,3.6-3.6l0,0
		C135.5,6.8,137.1,8.4,137.1,10.4L137.1,10.4z"/>
	<path fill="#ABABAB" d="M150.9,10.4c0,2-1.6,3.6-3.6,3.6l0,0c-2,0-3.6-1.6-3.6-3.6l0,0c0-2,1.6-3.6,3.6-3.6l0,0
		C149.2,6.8,150.9,8.5,150.9,10.4L150.9,10.4z"/>
	<path fill="#ABABAB" d="M164.6,10.4c0,2-1.6,3.6-3.6,3.6l0,0c-2,0-3.6-1.6-3.6-3.6l0,0c0-2,1.6-3.6,3.6-3.6l0,0
		C163,6.8,164.6,8.5,164.6,10.4L164.6,10.4z"/>
	<path fill="#ABABAB" d="M178.3,10.4c0,2-1.6,3.6-3.6,3.6l0,0c-2,0-3.6-1.6-3.6-3.6l0,0c0-2,1.6-3.6,3.6-3.6l0,0
		C176.7,6.8,178.3,8.5,178.3,10.4L178.3,10.4z"/>
	<path fill="#ABABAB" d="M192.1,10.5c0,2-1.6,3.6-3.6,3.6l0,0c-2,0-3.6-1.6-3.6-3.6l0,0c0-2,1.6-3.6,3.6-3.6l0,0
		C190.5,6.9,192.1,8.5,192.1,10.5L192.1,10.5z"/>
	<path fill="#ABABAB" d="M205.8,10.5c0,2-1.6,3.6-3.6,3.6l0,0c-2,0-3.6-1.6-3.6-3.6l0,0c0-2,1.6-3.6,3.6-3.6l0,0
		C204.2,6.9,205.8,8.5,205.8,10.5L205.8,10.5z"/>
	<path fill="#ABABAB" d="M219.5,10.5c0,2-1.6,3.6-3.6,3.6l0,0c-2,0-3.6-1.6-3.6-3.6l0,0c0-2,1.6-3.6,3.6-3.6l0,0
		C217.9,6.9,219.5,8.5,219.5,10.5L219.5,10.5z"/>
	<path fill="#ABABAB" d="M233.3,10.5c0,2-1.6,3.6-3.6,3.6l0,0c-2,0-3.6-1.6-3.6-3.6l0,0c0-2,1.6-3.6,3.6-3.6l0,0
		C231.7,6.9,233.3,8.5,233.3,10.5L233.3,10.5z"/>
	<path fill="#ABABAB" d="M247,10.5c0,2-1.6,3.6-3.6,3.6l0,0c-2,0-3.6-1.6-3.6-3.6l0,0c0-2,1.6-3.6,3.6-3.6l0,0
		C245.4,6.9,247,8.5,247,10.5L247,10.5z"/>
	<path fill="#ABABAB" d="M260.8,10.5c0,2-1.6,3.6-3.6,3.6l0,0c-2,0-3.6-1.6-3.6-3.6l0,0c0-2,1.6-3.6,3.6-3.6l0,0
		C259.1,6.9,260.8,8.5,260.8,10.5L260.8,10.5z"/>
	<path fill="#ABABAB" d="M274.5,10.5c0,2-1.6,3.6-3.6,3.6l0,0c-2,0-3.6-1.6-3.6-3.6l0,0c0-2,1.6-3.6,3.6-3.6l0,0
		C272.9,6.9,274.5,8.5,274.5,10.5L274.5,10.5z"/>
	<path fill="#ABABAB" d="M288.2,10.5c0,2-1.6,3.6-3.6,3.6l0,0c-2,0-3.6-1.6-3.6-3.6l0,0c0-2,1.6-3.6,3.6-3.6l0,0
		C286.6,6.9,288.2,8.5,288.2,10.5L288.2,10.5z"/>
	<path fill="#ABABAB" d="M302,10.5c0,2-1.6,3.6-3.6,3.6l0,0c-2,0-3.6-1.6-3.6-3.6l0,0c0-2,1.6-3.6,3.6-3.6l0,0
		C300.4,6.9,302,8.5,302,10.5L302,10.5z"/>
	<path fill="#ABABAB" d="M315.7,10.5c0,2-1.6,3.6-3.6,3.6l0,0c-2,0-3.6-1.6-3.6-3.6l0,0c0-2,1.6-3.6,3.6-3.6l0,0
		C314.1,6.9,315.7,8.5,315.7,10.5L315.7,10.5z"/>
	<path fill="#ABABAB" d="M329.4,10.5c0,2-1.6,3.6-3.6,3.6l0,0c-2,0-3.6-1.6-3.6-3.6l0,0c0-2,1.6-3.6,3.6-3.6l0,0
		C327.8,6.9,329.4,8.5,329.4,10.5L329.4,10.5z"/>
	<path fill="#ABABAB" d="M343.2,10.5c0,2-1.6,3.6-3.6,3.6l0,0c-2,0-3.6-1.6-3.6-3.6l0,0c0-2,1.6-3.6,3.6-3.6l0,0
		C341.6,6.9,343.2,8.5,343.2,10.5L343.2,10.5z"/>
	<path fill="#ABABAB" d="M356.9,10.5c0,2-1.6,3.6-3.6,3.6l0,0c-2,0-3.6-1.6-3.6-3.6l0,0c0-2,1.6-3.6,3.6-3.6l0,0
		C355.3,6.9,356.9,8.5,356.9,10.5L356.9,10.5z"/>
	<path fill="#ABABAB" d="M370.7,10.5c0,2-1.6,3.6-3.6,3.6l0,0c-2,0-3.6-1.6-3.6-3.6l0,0c0-2,1.6-3.6,3.6-3.6l0,0
		C369,6.9,370.7,8.5,370.7,10.5L370.7,10.5z"/>
	<path fill="#ABABAB" d="M384.4,10.5c0,2-1.6,3.6-3.6,3.6l0,0c-2,0-3.6-1.6-3.6-3.6l0,0c0-2,1.6-3.6,3.6-3.6l0,0
		C382.8,6.9,384.4,8.5,384.4,10.5L384.4,10.5z"/>
	<path fill="#ABABAB" d="M398.1,10.5c0,2-1.6,3.6-3.6,3.6l0,0c-2,0-3.6-1.6-3.6-3.6l0,0c0-2,1.6-3.6,3.6-3.6l0,0
		C396.5,6.9,398.1,8.5,398.1,10.5L398.1,10.5z"/>
	<path fill="#ABABAB" d="M411.9,10.5c0,2-1.6,3.6-3.6,3.6l0,0c-2,0-3.6-1.6-3.6-3.6l0,0c0-2,1.6-3.6,3.6-3.6l0,0
		C410.3,6.9,411.9,8.5,411.9,10.5L411.9,10.5z"/>
	<path fill="#ABABAB" d="M425.6,10.5c0,2-1.6,3.6-3.6,3.6l0,0c-2,0-3.6-1.6-3.6-3.6l0,0c0-2,1.6-3.6,3.6-3.6l0,0
		C424,6.9,425.6,8.5,425.6,10.5L425.6,10.5z"/>
	<path fill="#ABABAB" d="M439.3,10.5c0,2-1.6,3.6-3.6,3.6l0,0c-2,0-3.6-1.6-3.6-3.6l0,0c0-2,1.6-3.6,3.6-3.6l0,0
		C437.7,6.9,439.3,8.5,439.3,10.5L439.3,10.5z"/>
	<path fill="#ABABAB" d="M453.1,10.5c0,2-1.6,3.6-3.6,3.6l0,0c-2,0-3.6-1.6-3.6-3.6l0,0c0-2,1.6-3.6,3.6-3.6l0,0
		C451.5,6.9,453.1,8.5,453.1,10.5L453.1,10.5z"/>
	<path fill="#ABABAB" d="M466.8,10.5c0,2-1.6,3.6-3.6,3.6l0,0c-2,0-3.6-1.6-3.6-3.6l0,0c0-2,1.6-3.6,3.6-3.6l0,0
		C465.2,6.9,466.8,8.5,466.8,10.5L466.8,10.5z"/>
	<path fill="#ABABAB" d="M480.6,10.5c0,2-1.6,3.6-3.6,3.6l0,0c-2,0-3.6-1.6-3.6-3.6l0,0c0-2,1.6-3.6,3.6-3.6l0,0
		C478.9,6.9,480.6,8.5,480.6,10.5L480.6,10.5z"/>
	<path fill="#ABABAB" d="M494.3,10.5c0,2-1.6,3.6-3.6,3.6l0,0c-2,0-3.6-1.6-3.6-3.6l0,0c0-2,1.6-3.6,3.6-3.6l0,0
		C492.7,6.9,494.3,8.5,494.3,10.5L494.3,10.5z"/>
	<path fill="#ABABAB" d="M508,10.5c0,2-1.6,3.6-3.6,3.6l0,0c-2,0-3.6-1.6-3.6-3.6l0,0c0-2,1.6-3.6,3.6-3.6l0,0
		C506.4,6.9,508,8.5,508,10.5L508,10.5z"/>
	<path fill="#ABABAB" d="M521.8,10.5c0,2-1.6,3.6-3.6,3.6l0,0c-2,0-3.6-1.6-3.6-3.6l0,0c0-2,1.6-3.6,3.6-3.6l0,0
		C520.2,6.9,521.8,8.6,521.8,10.5L521.8,10.5z"/>
	<path fill="#ABABAB" d="M535.5,10.5c0,2-1.6,3.6-3.6,3.6l0,0c-2,0-3.6-1.6-3.6-3.6l0,0c0-2,1.6-3.6,3.6-3.6l0,0
		C533.9,6.9,535.5,8.6,535.5,10.5L535.5,10.5z"/>
	<path fill="#ABABAB" d="M549.2,10.5c0,2-1.6,3.6-3.6,3.6l0,0c-2,0-3.6-1.6-3.6-3.6l0,0c0-2,1.6-3.6,3.6-3.6l0,0
		C547.6,6.9,549.2,8.6,549.2,10.5L549.2,10.5z"/>
	<path fill="#ABABAB" d="M563,10.6c0,2-1.6,3.6-3.6,3.6l0,0c-2,0-3.6-1.6-3.6-3.6l0,0c0-2,1.6-3.6,3.6-3.6l0,0
		C561.4,7,563,8.6,563,10.6L563,10.6z"/>
	<path fill="#ABABAB" d="M576.7,10.6c0,2-1.6,3.6-3.6,3.6l0,0c-2,0-3.6-1.6-3.6-3.6l0,0c0-2,1.6-3.6,3.6-3.6l0,0
		C575.1,7,576.7,8.6,576.7,10.6L576.7,10.6z"/>
	<path fill="#ABABAB" d="M590.5,10.6c0,2-1.6,3.6-3.6,3.6l0,0c-2,0-3.6-1.6-3.6-3.6l0,0c0-2,1.6-3.6,3.6-3.6l0,0
		C588.8,7,590.5,8.6,590.5,10.6L590.5,10.6z"/>
	<path fill="#ABABAB" d="M604.2,10.6c0,2-1.6,3.6-3.6,3.6l0,0c-2,0-3.6-1.6-3.6-3.6l0,0c0-2,1.6-3.6,3.6-3.6l0,0
		C602.6,7,604.2,8.6,604.2,10.6L604.2,10.6z"/>
	<path fill="#ABABAB" d="M617.9,10.6c0,2-1.6,3.6-3.6,3.6l0,0c-2,0-3.6-1.6-3.6-3.6l0,0c0-2,1.6-3.6,3.6-3.6l0,0
		C616.3,7,617.9,8.6,617.9,10.6L617.9,10.6z"/>
	<path fill="#ABABAB" d="M631.7,10.6c0,2-1.6,3.6-3.6,3.6l0,0c-2,0-3.6-1.6-3.6-3.6l0,0c0-2,1.6-3.6,3.6-3.6l0,0
		C630.1,7,631.7,8.6,631.7,10.6L631.7,10.6z"/>
	<path fill="#ABABAB" d="M645.4,10.6c0,2-1.6,3.6-3.6,3.6l0,0c-2,0-3.6-1.6-3.6-3.6l0,0c0-2,1.6-3.6,3.6-3.6l0,0
		C643.8,7,645.4,8.6,645.4,10.6L645.4,10.6z"/>
	<path fill="#ABABAB" d="M659.1,10.6c0,2-1.6,3.6-3.6,3.6l0,0c-2,0-3.6-1.6-3.6-3.6l0,0c0-2,1.6-3.6,3.6-3.6l0,0
		C657.5,7,659.1,8.6,659.1,10.6L659.1,10.6z"/>
	<path fill="#ABABAB" d="M672.9,10.6c0,2-1.6,3.6-3.6,3.6l0,0c-2,0-3.6-1.6-3.6-3.6l0,0c0-2,1.6-3.6,3.6-3.6l0,0
		C671.3,7,672.9,8.6,672.9,10.6L672.9,10.6z"/>
	<path fill="#ABABAB" d="M686.6,10.6c0,2-1.6,3.6-3.6,3.6l0,0c-2,0-3.6-1.6-3.6-3.6l0,0c0-2,1.6-3.6,3.6-3.6l0,0
		C685,7,686.6,8.6,686.6,10.6L686.6,10.6z"/>
	<path fill="#ABABAB" d="M700.4,10.6c0,2-1.6,3.6-3.6,3.6l0,0c-2,0-3.6-1.6-3.6-3.6l0,0c0-2,1.6-3.6,3.6-3.6l0,0
		C698.7,7,700.4,8.6,700.4,10.6L700.4,10.6z"/>
	<path fill="#ABABAB" d="M714.1,10.6c0,2-1.6,3.6-3.6,3.6l0,0c-2,0-3.6-1.6-3.6-3.6l0,0c0-2,1.6-3.6,3.6-3.6l0,0
		C712.5,7,714.1,8.6,714.1,10.6L714.1,10.6z"/>
</g>
</svg>
