<!-- Generator: Adobe Illustrator 18.0.0, SVG Export Plug-In  -->
<svg version="1.1"
	 xmlns="http://www.w3.org/2000/svg" xmlns:xlink="http://www.w3.org/1999/xlink" xmlns:a="http://ns.adobe.com/AdobeSVGViewerExtensions/3.0/"
	 x="0px" y="0px" width="105.2px" height="53.3px" viewBox="0 0 105.2 53.3" enable-background="new 0 0 105.2 53.3"
	 xml:space="preserve">
<defs>
</defs>
<g>
	<g>
		<path fill="#C9C9C9" d="M52.6,16c-0.4,0-0.7-0.3-0.7-0.7V0.7c0-0.4,0.3-0.7,0.7-0.7c0.4,0,0.7,0.3,0.7,0.7v14.6
			C53.3,15.7,53,16,52.6,16L52.6,16z"/>
	</g>
	<g>
		<path fill="#C9C9C9" d="M33.9,21c-0.2,0-0.5-0.1-0.6-0.3L26,8c-0.2-0.3-0.1-0.8,0.3-0.9C26.6,6.9,27,7,27.2,7.3L34.5,20
			c0.2,0.3,0.1,0.8-0.3,0.9C34.2,21,34.1,21,33.9,21L33.9,21z"/>
	</g>
	<g>
		<path fill="#C9C9C9" d="M20.3,34.7c-0.1,0-0.2,0-0.3-0.1L7.3,27.3C7,27.1,6.8,26.6,7,26.3C7.2,26,7.7,25.9,8,26.1l12.7,7.3
			c0.3,0.2,0.4,0.6,0.3,0.9C20.8,34.5,20.5,34.7,20.3,34.7L20.3,34.7z"/>
	</g>
	<g>
		<path fill="#C9C9C9" d="M15.3,53.3H0.7C0.3,53.3,0,53,0,52.6c0-0.4,0.3-0.7,0.7-0.7h14.6c0.4,0,0.7,0.3,0.7,0.7
			C16,53,15.7,53.3,15.3,53.3L15.3,53.3z"/>
	</g>
	<g>
		<path fill="#C9C9C9" d="M104.5,53.3H89.9c-0.4,0-0.7-0.3-0.7-0.7c0-0.4,0.3-0.7,0.7-0.7h14.6c0.4,0,0.7,0.3,0.7,0.7
			C105.2,53,104.9,53.3,104.5,53.3L104.5,53.3z"/>
	</g>
	<g>
		<path fill="#C9C9C9" d="M84.9,34.6c-0.2,0-0.5-0.1-0.6-0.3c-0.2-0.3-0.1-0.8,0.3-0.9L97.2,26c0.3-0.2,0.8-0.1,0.9,0.3
			c0.2,0.3,0.1,0.8-0.3,0.9l-12.7,7.3C85.1,34.6,85,34.6,84.9,34.6L84.9,34.6z"/>
	</g>
	<g>
		<path fill="#C9C9C9" d="M71.2,21c-0.1,0-0.2,0-0.3-0.1c-0.3-0.2-0.4-0.6-0.3-0.9l7.3-12.7C78.1,7,78.6,6.8,78.9,7
			c0.3,0.2,0.4,0.6,0.3,0.9l-7.3,12.7C71.7,20.9,71.5,21,71.2,21L71.2,21z"/>
	</g>
	<g>
		<path fill="#C9C9C9" d="M52.6,16c-0.4,0-0.7-0.3-0.7-0.7V0.7c0-0.4,0.3-0.7,0.7-0.7c0.4,0,0.7,0.3,0.7,0.7v14.6
			C53.3,15.7,53,16,52.6,16L52.6,16z"/>
	</g>
</g>
</svg>
