<!-- Generator: Adobe Illustrator 18.0.0, SVG Export Plug-In  -->
<svg version="1.1"
	 xmlns="http://www.w3.org/2000/svg" xmlns:xlink="http://www.w3.org/1999/xlink" xmlns:a="http://ns.adobe.com/AdobeSVGViewerExtensions/3.0/"
	 x="0px" y="0px" width="50.1px" height="67.8px" viewBox="0 0 50.1 67.8" enable-background="new 0 0 50.1 67.8"
	 xml:space="preserve">
<defs>
</defs>
<g>
	<path fill="#FFFFFF" d="M42,50.5c0,9.6-7.7,17.3-17.3,17.3l0,0c-9.6,0-17.3-7.8-17.3-17.3V17.3C7.4,7.8,15.1,0,24.7,0l0,0
		C34.2,0,42,7.8,42,17.3V50.5z"/>
	<path fill="#CFEAF9" d="M24.7,0c-0.1,0-0.2,0-0.4,0v67.7c0.1,0,0.2,0,0.4,0C34.2,67.8,42,60,42,50.5V17.3C42,7.8,34.2,0,24.7,0z"/>
	<path fill="#C9C9C9" d="M50.1,38.7c0,3.1-2.5,5.5-5.5,5.5h-39c-3.1,0-5.5-2.5-5.5-5.5l0,0c0-3.1,2.5-5.5,5.5-5.5h39
		C47.6,33.1,50.1,35.6,50.1,38.7L50.1,38.7z"/>
	<path fill="#ABABAB" d="M44.6,33.1H24.3v11h20.3c3.1,0,5.5-2.5,5.5-5.5C50.1,35.6,47.6,33.1,44.6,33.1z"/>
</g>
</svg>
