<!-- Generator: Adobe Illustrator 18.0.0, SVG Export Plug-In  -->
<svg version="1.1"
	 xmlns="http://www.w3.org/2000/svg" xmlns:xlink="http://www.w3.org/1999/xlink" xmlns:a="http://ns.adobe.com/AdobeSVGViewerExtensions/3.0/"
	 x="0px" y="0px" width="20.3px" height="356.7px" viewBox="0 0 20.3 356.7" enable-background="new 0 0 20.3 356.7"
	 xml:space="preserve">
<defs>
</defs>
<g>
	<path fill="#545454" d="M7.9,356.7c-2.5,0-4.6-2-4.6-4.6l0-347.5C3.3,2,5.4,0,7.9,0L12,0c2.5,0,4.6,2,4.6,4.6l0,347.5
		c0,2.5-2,4.6-4.6,4.6L7.9,356.7z"/>
	<path fill="#C9C9C9" d="M7,314.3c-3.9,0-7-0.8-7-1.7L0,80.3c0-0.9,3.1-1.7,7-1.7l6.3,0c3.9,0,7,0.8,7,1.7l0,232.3
		c0,1-3.1,1.7-7,1.7L7,314.3z"/>
</g>
</svg>
