<!-- Generator: Adobe Illustrator 18.0.0, SVG Export Plug-In  -->
<svg version="1.1"
	 xmlns="http://www.w3.org/2000/svg" xmlns:xlink="http://www.w3.org/1999/xlink" xmlns:a="http://ns.adobe.com/AdobeSVGViewerExtensions/3.0/"
	 x="0px" y="0px" width="147.2px" height="288.3px" viewBox="0 0 147.2 288.3" enable-background="new 0 0 147.2 288.3"
	 xml:space="preserve">
<defs>
</defs>
<g>
	<path fill="#C9C9C9" d="M4.1,288.3c-2.3,0-4.1-1.8-4.1-4.1V4.1C0,1.8,1.8,0,4.1,0h139c2.3,0,4.1,1.8,4.1,4.1v280.1
		c0,2.3-1.8,4.1-4.1,4.1H4.1z"/>
	<g>
		<g>
			<circle fill="#6E6E6E" cx="136.4" cy="9.1" r="4.2"/>
			<path fill="#545454" d="M134.1,12.8c-1.7-1.7-1.7-4.3,0-6c1.7-1.7,4.3-1.7,6,0c1.7,1.7,1.7,4.3,0,6
				C138.5,14.5,135.8,14.5,134.1,12.8z"/>
			<path fill="#ABABAB" d="M134.6,6.4c-0.2,0.1-0.3,0.3-0.5,0.4c-0.2,0.2-0.3,0.3-0.4,0.5l5.9,5.9c0.2-0.1,0.3-0.3,0.5-0.4
				c0.2-0.2,0.3-0.3,0.4-0.5L134.6,6.4z"/>
		</g>
		<g>
			<circle fill="#6E6E6E" cx="136.4" cy="278.5" r="4.2"/>
			<path fill="#545454" d="M134.1,282.2c-1.7-1.7-1.7-4.3,0-6c1.7-1.7,4.3-1.7,6,0c1.7,1.7,1.7,4.3,0,6
				C138.5,283.9,135.8,283.9,134.1,282.2z"/>
			<path fill="#ABABAB" d="M134.6,275.8c-0.2,0.1-0.3,0.3-0.5,0.4c-0.2,0.2-0.3,0.3-0.4,0.5l5.9,5.9c0.2-0.1,0.3-0.3,0.5-0.4
				c0.2-0.2,0.3-0.3,0.4-0.5L134.6,275.8z"/>
		</g>
		<g>
			<path fill="#6E6E6E" d="M6.8,12.1c-1.7-1.7-1.7-4.3,0-6c1.7-1.7,4.3-1.7,6,0c1.7,1.7,1.7,4.3,0,6C11.1,13.7,8.4,13.7,6.8,12.1z"
				/>
			<circle fill="#545454" cx="10.5" cy="9.8" r="4.2"/>
			<path fill="#ABABAB" d="M8,6.4C7.8,6.5,7.7,6.7,7.5,6.8C7.4,7,7.2,7.1,7.1,7.3l5.9,5.9c0.2-0.1,0.3-0.3,0.5-0.4
				c0.2-0.2,0.3-0.3,0.4-0.5L8,6.4z"/>
		</g>
		<g>
			<path fill="#6E6E6E" d="M6.8,281.5c-1.7-1.7-1.7-4.3,0-6c1.7-1.7,4.3-1.7,6,0c1.7,1.7,1.7,4.3,0,6
				C11.1,283.1,8.4,283.1,6.8,281.5z"/>
			<path fill="#545454" d="M7.5,282.2c-1.7-1.7-1.7-4.3,0-6c1.7-1.7,4.3-1.7,6,0c1.7,1.7,1.7,4.3,0,6
				C11.8,283.9,9.2,283.9,7.5,282.2z"/>
			<path fill="#ABABAB" d="M8,275.8c-0.2,0.1-0.3,0.3-0.5,0.4c-0.2,0.2-0.3,0.3-0.4,0.5l5.9,5.9c0.2-0.1,0.3-0.3,0.5-0.4
				c0.2-0.2,0.3-0.3,0.4-0.5L8,275.8z"/>
		</g>
	</g>
</g>
<rect x="13" y="51.8" fill="#333333" width="121.2" height="76"/>
<rect x="22.1" y="244.5" fill="#ABABAB" width="103.1" height="22.1"/>
<path fill="#ABABAB" d="M133.8,27.1c0,2.5-2,4.5-4.5,4.5h-112c-2.5,0-4.5-2-4.5-4.5l0,0c0-2.5,2-4.5,4.5-4.5h112
	C131.8,22.6,133.8,24.6,133.8,27.1L133.8,27.1z"/>
<path fill="#ABABAB" d="M111.8,34.5c0,0.5-1.3,0.9-2.9,0.9H37.7c-1.6,0-2.9-0.4-2.9-0.9l0,0c0-0.5,1.3-0.9,2.9-0.9h71.2
	C110.5,33.6,111.8,34,111.8,34.5L111.8,34.5z"/>
<path fill="#ABABAB" d="M111.8,20.1c0,0.5-1.3,0.9-2.9,0.9H37.7c-1.6,0-2.9-0.4-2.9-0.9l0,0c0-0.5,1.3-0.9,2.9-0.9h71.2
	C110.5,19.2,111.8,19.6,111.8,20.1L111.8,20.1z"/>
</svg>
