<!-- Generator: Adobe Illustrator 18.0.0, SVG Export Plug-In  -->
<svg version="1.1"
	 xmlns="http://www.w3.org/2000/svg" xmlns:xlink="http://www.w3.org/1999/xlink" xmlns:a="http://ns.adobe.com/AdobeSVGViewerExtensions/3.0/"
	 x="0px" y="0px" width="126px" height="68.2px" viewBox="0 0 126 68.2" enable-background="new 0 0 126 68.2" xml:space="preserve"
	>
<defs>
</defs>
<path fill="#FFFFFF" d="M125.1,19.8c-3-8.6-12.2-13.1-20.8-10.5c-4.1-6.5-12.2-9.5-19.7-6.9c-1.4,0.5-2.6,1.1-3.8,1.9
	C78.2,0.7,73.4-1,69,0.6c-5.2,1.8-8,7.5-6.4,12.7c-7.2,5.8-11.3,14.6-11.1,23.8L0,63.8l53.9-10.7c0.1,1.5,0.4,2.9,0.9,4.4
	c2.9,8.4,12.1,12.8,20.5,9.9c0.9-0.3,1.7-0.7,2.5-1.1c4.3,0.5,8.9,0.1,13.3-1.5c1.9-0.7,3.8-1.5,5.4-2.5c2.6,0.4,5.3,0.2,7.9-0.7
	c8.3-2.9,12.7-11.9,10-20.2c0.1,0,0.2-0.1,0.3-0.1C123.5,38.1,128.1,28.5,125.1,19.8z"/>
</svg>
