<!-- Generator: Adobe Illustrator 18.0.0, SVG Export Plug-In  -->
<svg version="1.1"
	 xmlns="http://www.w3.org/2000/svg" xmlns:xlink="http://www.w3.org/1999/xlink" xmlns:a="http://ns.adobe.com/AdobeSVGViewerExtensions/3.0/"
	 x="0px" y="0px" width="32.4px" height="32.4px" viewBox="0 0 32.4 32.4" enable-background="new 0 0 32.4 32.4"
	 xml:space="preserve">
<defs>
</defs>
<g>
	<g>
		<g>
			<path fill="#FFFFFF" d="M31.8,16.2c0,8.6-7,15.7-15.7,15.7s-15.7-7-15.7-15.7c0-8.7,7-15.7,15.7-15.7S31.8,7.5,31.8,16.2z"/>
			<path fill="#B2B1A1" d="M16.2,32.4C7.3,32.4,0,25.1,0,16.2C0,7.3,7.3,0,16.2,0s16.2,7.3,16.2,16.2C32.4,25.1,25.1,32.4,16.2,32.4
				z M16.2,1C7.8,1,1,7.8,1,16.2c0,8.3,6.8,15.1,15.1,15.1s15.1-6.8,15.1-15.1C31.3,7.8,24.5,1,16.2,1z"/>
		</g>
	</g>
	<g>
		<g>
			<path fill="#545454" d="M7,16.8H3.2c-0.3,0-0.6-0.3-0.6-0.6c0-0.3,0.3-0.6,0.6-0.6H7c0.3,0,0.6,0.3,0.6,0.6
				C7.5,16.5,7.3,16.8,7,16.8z"/>
		</g>
		<g>
			<path fill="#545454" d="M29.2,16.8h-3.8c-0.3,0-0.6-0.3-0.6-0.6c0-0.3,0.3-0.6,0.6-0.6h3.8c0.3,0,0.6,0.3,0.6,0.6
				C29.8,16.5,29.5,16.8,29.2,16.8z"/>
		</g>
	</g>
	<g>
		<g>
			<path fill="#545454" d="M16.2,7.5c-0.3,0-0.6-0.3-0.6-0.6V3.2c0-0.3,0.3-0.6,0.6-0.6c0.3,0,0.6,0.3,0.6,0.6V7
				C16.8,7.3,16.5,7.5,16.2,7.5z"/>
		</g>
	</g>
	<g>
		<g>
			<path fill="#545454" d="M9.7,10.2c-0.1,0-0.3-0.1-0.4-0.2L6.6,7.4c-0.2-0.2-0.2-0.6,0-0.8c0.2-0.2,0.6-0.2,0.8,0l2.7,2.7
				c0.2,0.2,0.2,0.6,0,0.8C10,10.2,9.8,10.2,9.7,10.2z"/>
		</g>
	</g>
	<path fill="#1DAFBE" d="M3.7,22c2.2,4.7,6.9,8,12.5,8s10.3-3.3,12.5-8H3.7z"/>
	<g>
		<g>
			<path fill="#545454" d="M22.1,9.7c0-0.1,0.1-0.3,0.2-0.4L25,6.6c0.2-0.2,0.6-0.2,0.8,0c0.2,0.2,0.2,0.6,0,0.8l-2.7,2.7
				c-0.2,0.2-0.6,0.2-0.8,0C22.2,10,22.1,9.8,22.1,9.7z"/>
		</g>
	</g>
</g>
</svg>
