<!-- Generator: Adobe Illustrator 18.0.0, SVG Export Plug-In  -->
<svg version="1.1"
	 xmlns="http://www.w3.org/2000/svg" xmlns:xlink="http://www.w3.org/1999/xlink" xmlns:a="http://ns.adobe.com/AdobeSVGViewerExtensions/3.0/"
	 x="0px" y="0px" width="32.4px" height="32.4px" viewBox="0 0 32.4 32.4" enable-background="new 0 0 32.4 32.4"
	 xml:space="preserve">
<defs>
</defs>
<g>
	<path opacity="0" fill="#B2B1A1" d="M8.8,30.6c7.9,4.1,17.7,1,21.8-7c4.1-7.9,1-17.7-7-21.8c-7.9-4.1-17.7-1-21.8,7
		C-2.3,16.7,0.8,26.5,8.8,30.6z"/>
	<g>
		<path fill="#5ABFC5" d="M17.4,13.8c1.3,0.7,1.8,2.3,1.2,3.6c-0.7,1.3-2.3,1.9-3.6,1.2c-1.3-0.7-1.8-2.3-1.2-3.6
			C14.5,13.6,16.1,13.1,17.4,13.8z M15.3,17.8c0.9,0.5,2,0.1,2.5-0.8c0.5-0.9,0.1-2-0.8-2.5c-0.9-0.5-2-0.1-2.5,0.8
			C14.1,16.2,14.4,17.4,15.3,17.8z"/>
	</g>
	<g>
		<g>
			<path fill="#4F463D" d="M7.7,18.5c0.1,0.1,0.2,0.2,0.3,0.3c0.1,0.3-0.1,0.6-0.4,0.7L4,20.7c-0.3,0.1-0.6-0.1-0.7-0.4
				c-0.1-0.3,0.1-0.6,0.4-0.7l3.6-1.2C7.4,18.4,7.5,18.4,7.7,18.5z"/>
		</g>
		<g>
			<path fill="#5ABFC5" d="M14,16.4c0.1,0.1,0.2,0.2,0.3,0.3c0.1,0.3-0.1,0.6-0.4,0.7L4,20.7c-0.3,0.1-0.6-0.1-0.7-0.4
				c-0.1-0.3,0.1-0.6,0.4-0.7l10-3.2C13.8,16.4,13.9,16.4,14,16.4z"/>
		</g>
	</g>
</g>
</svg>
