<!-- Generator: Adobe Illustrator 18.0.0, SVG Export Plug-In  -->
<svg version="1.1"
	 xmlns="http://www.w3.org/2000/svg" xmlns:xlink="http://www.w3.org/1999/xlink" xmlns:a="http://ns.adobe.com/AdobeSVGViewerExtensions/3.0/"
	 x="0px" y="0px" width="43.2px" height="157.3px" viewBox="0 0 43.2 157.3" enable-background="new 0 0 43.2 157.3"
	 xml:space="preserve">
<defs>
</defs>
<g>
	<polygon fill="#ABABAB" points="15.9,72.4 26.5,72.4 26.5,96.5 26.5,157.3 15.9,157.3 	"/>
	<polygon fill="#1DAFBE" points="36.3,17.6 36.3,42.1 24.2,42.1 36.3,55.2 36.3,60.7 36.3,96.2 6.9,96.2 6.9,17.6 	"/>
	<polygon fill="#1B93A2" points="6.9,17.6 21.5,17.6 21.5,60.7 21.5,96.2 6.9,96.2 	"/>
	<polygon fill="#1B93A2" points="6.9,17.6 36.3,17.6 36.3,21 36.3,23.7 6.9,23.7 	"/>
	<polygon fill="#1DAFBE" points="2.7,83.9 2.7,82 21.2,82 39.7,82 39.7,83.9 	"/>
	<polygon fill="#1B93A2" points="2.7,82.8 2.7,78.6 21.2,78.6 39.7,78.6 39.7,82.8 	"/>
	<g>
		<polygon fill="#1B93A2" points="21.6,0 10.8,10.5 0,21.1 21.6,21.1 43.2,21.1 32.4,10.5 		"/>
		<polygon fill="#1DAFBE" points="21.6,0 21.6,21.1 43.2,21.1 32.4,10.5 		"/>
	</g>
</g>
</svg>
