<!-- Generator: Adobe Illustrator 18.0.0, SVG Export Plug-In  -->
<svg version="1.1"
	 xmlns="http://www.w3.org/2000/svg" xmlns:xlink="http://www.w3.org/1999/xlink" xmlns:a="http://ns.adobe.com/AdobeSVGViewerExtensions/3.0/"
	 x="0px" y="0px" width="85.4px" height="69.5px" viewBox="0 0 85.4 69.5" enable-background="new 0 0 85.4 69.5"
	 xml:space="preserve">
<defs>
</defs>
<path fill="#EEEDED" d="M0,40.5C0.1,30,12.1,3.9,14.9,1.3c3.1-2.9,9.9,0,9.9,0S82.5,24.3,85,26c2.5,1.8-10.5,42.7-11.9,43.4
	C71.6,70.2-0.1,44.3,0,40.5"/>
<path fill="#ABA3CF" d="M2.4,39.4C2.6,28.9,13.9,8.1,16.1,5c1.7-2.4,5.6-1.8,5.6-1.8S79.5,25.6,82,27.4c2.5,1.8-9.3,37.7-10.8,38.5
	C69.7,66.6,2.4,43.2,2.4,39.4"/>
<path fill="#E0D7DB" d="M52.7,40.1c-2.5,6.6-8.7,10.3-13.8,8.4c-5.1-2-7.2-8.9-4.7-15.5c2.5-6.6,8.7-10.3,13.8-8.4
	C53.1,26.6,55.2,33.5,52.7,40.1"/>
<path fill="#EEEDED" d="M49.1,34.1l-1,2.1l0.4,2.4l-1.2-0.2l-1,2.9c0,0-2.9-1-3.7-2c-0.8-1.1-0.9-5.5-0.9-5.5S47.8,32.1,49.1,34.1"
	/>
<path fill="#EEEDED" d="M41.4,33.7c-0.1,0.2-2.8,8.7-2.8,8.7s3.4,2.2,5.8,1.6l1-4.5L41.4,33.7z"/>
<path fill="#A3D1AD" d="M33.9,43.2l4.9-1.5c0,0,2.7,2.3,6.3,1.9c0.4,0,2.9,2.3,2.9,2.3s-3.3,3.9-7.7,2.8
	C36,47.7,34.7,44.8,33.9,43.2"/>
<path fill="#A3D1AD" d="M34.7,39.7c0,0.2,1.2-1.4,3.7-4.3c3.2-3.7,7.3-5.4,7.5-5.3c0.2,0.1,4-2.5,4-2.5s-5.7-4.1-9.8-0.3
	C35.3,31.6,35.4,35.6,34.7,39.7"/>
<path fill="#A3D1AD" d="M49.6,35.4c0,0-0.4-5.7-4.6-5.8c-4.2-0.1-5.6,4.3-5.9,8.1c0,0,1.3-2.4,4.2-3.5
	C45.6,33.3,47.9,34.1,49.6,35.4"/>
<path fill="#1A181D" d="M13.6,33.1c0.4,0.1,0.7,0,0.8-0.4c0.1-0.4-0.1-0.6-0.6-0.8c0,0-0.1,0-0.1,0l0.1-0.3l1-0.5l-1.2-0.4l0.1-0.3
	l1.7,0.5l-0.1,0.4l-1,0.5c0.5,0.2,0.7,0.6,0.6,1.1c-0.2,0.6-0.7,0.8-1.4,0.6c-0.2-0.1-0.4-0.2-0.7-0.4l0.1-0.4
	C13.2,32.8,13.4,33,13.6,33.1"/>
<path fill="#1A181D" d="M17.1,32.4l0.3-0.2c0.2-0.1,0.3-0.2,0.3-0.3l0,0l-1.4-0.4l0.1-0.3l1.9,0.6l0,0.1c-0.1,0.3-0.3,0.5-0.7,0.7
	l-0.3,0.2c-0.5,0.3-0.7,0.6-0.9,1.1l-0.1,0.4l-0.4-0.1l0.1-0.4C16.2,33.2,16.6,32.8,17.1,32.4"/>
<path fill="#1A181D" d="M20.8,32.6l-0.1,0.3l-1.1-0.3l-0.2,0.6c0.1,0,0.1,0,0.2,0.1c0.6,0.2,0.9,0.7,0.7,1.2
	c-0.2,0.6-0.9,0.9-1.8,0.6l-0.1,0l0.1-0.4c0,0,0.1,0,0.1,0.1c0.7,0.2,1.1,0.1,1.3-0.4c0.1-0.3-0.1-0.6-0.5-0.8
	c-0.1,0-0.3-0.1-0.5-0.1l0.5-1.3L20.8,32.6z"/>
<path fill="#1A181D" d="M22,33.9c-0.1,0.3,0,0.6,0.4,0.7c0.3,0.1,0.6-0.1,0.7-0.4c0.1-0.3,0-0.6-0.4-0.7
	C22.4,33.4,22.1,33.6,22,33.9 M21.2,35.8c0.5-0.3,1-0.5,1.3-0.8c-0.1,0-0.2,0-0.4,0c-0.5-0.2-0.8-0.7-0.6-1.2
	c0.2-0.6,0.7-0.8,1.2-0.6c0.6,0.2,0.8,0.7,0.7,1.3c-0.2,0.6-0.8,1-1.7,1.5L21.2,35.8z"/>
<path fill="#1A181D" d="M31.2,36.6c0.1-0.2-0.1-0.4-0.3-0.5c-0.3-0.1-0.5,0-0.5,0.2c-0.1,0.2,0,0.4,0.3,0.6
	C30.9,36.9,31.1,36.8,31.2,36.6 M29.7,37.7c-0.1,0.3,0,0.5,0.4,0.6c0.4,0.1,0.6,0,0.7-0.3c0.1-0.3,0-0.5-0.4-0.8
	C30.1,37.4,29.8,37.5,29.7,37.7 M31.2,38.3c-0.2,0.5-0.6,0.7-1.2,0.5c-0.6-0.2-0.9-0.6-0.7-1.1c0.1-0.4,0.4-0.5,0.9-0.6
	c-0.2-0.3-0.3-0.6-0.2-0.8c0.1-0.4,0.5-0.5,1-0.4c0.5,0.2,0.7,0.5,0.6,0.9c-0.1,0.3-0.3,0.4-0.7,0.5C31.3,37.6,31.4,37.9,31.2,38.3"
	/>
<path fill="#1A181D" d="M33.4,37.7l0.3-0.2c0.2-0.1,0.3-0.2,0.3-0.3l0,0l-1.4-0.4l0.1-0.3l1.9,0.6l0,0.1c-0.1,0.3-0.3,0.5-0.7,0.7
	L33.6,38c-0.5,0.3-0.7,0.6-0.9,1.1l-0.1,0.4l-0.4-0.1l0.1-0.4C32.5,38.4,32.9,38,33.4,37.7"/>
<path fill="#1A181D" d="M36.3,39.7c0.1-0.3,0-0.6-0.4-0.7c-0.3-0.1-0.6,0-0.7,0.4c-0.1,0.3,0,0.6,0.4,0.8
	C35.9,40.2,36.2,40.1,36.3,39.7 M37.1,37.8c-0.5,0.2-1,0.5-1.3,0.8c0.1,0,0.3,0,0.4,0c0.5,0.2,0.8,0.7,0.6,1.2
	c-0.2,0.5-0.7,0.8-1.3,0.6c-0.6-0.2-0.8-0.7-0.6-1.3c0.2-0.6,0.8-1.1,1.7-1.5L37.1,37.8z"/>
<path fill="#1A181D" d="M39.8,38.7l-0.1,0.3l-1.1-0.3l-0.2,0.6c0.1,0,0.1,0,0.2,0.1c0.6,0.2,0.9,0.7,0.7,1.2
	c-0.2,0.6-0.9,0.9-1.8,0.5l-0.1,0l0.1-0.4c0,0,0.1,0,0.1,0.1c0.7,0.2,1.1,0.1,1.3-0.4c0.1-0.3-0.1-0.6-0.5-0.8
	c-0.1,0-0.3-0.1-0.5-0.1l0.5-1.3L39.8,38.7z"/>
<polygon fill="#1A181D" points="40.2,41.3 40.4,40.8 41.8,39.3 42.2,39.4 40.7,41 41.4,41.3 41.6,40.7 42,40.8 41.8,41.4 42.2,41.5 
	42.1,41.8 41.7,41.7 41.5,42.4 41.1,42.2 41.3,41.6 "/>
<path fill="#1A181D" d="M43.6,42.7c0.4,0.1,0.7,0,0.8-0.4c0.1-0.4-0.1-0.6-0.6-0.8c0,0-0.1,0-0.1,0l0.1-0.3l1-0.5l-1.2-0.4l0.1-0.3
	l1.7,0.5l-0.1,0.4l-1,0.5c0.5,0.2,0.7,0.6,0.6,1.1c-0.2,0.6-0.7,0.8-1.4,0.6c-0.2-0.1-0.4-0.2-0.7-0.4l0.1-0.4
	C43.1,42.5,43.3,42.6,43.6,42.7"/>
<path fill="#1A181D" d="M52.4,44.1c0.3-0.1,0.5-0.2,0.6-0.4c0.1-0.2-0.1-0.5-0.3-0.6c-0.2-0.1-0.5,0-0.9,0.1l0.1-0.4
	c0.3-0.1,0.5-0.1,0.8,0c0.6,0.2,0.8,0.6,0.7,1.1c-0.1,0.3-0.4,0.5-0.8,0.6l-0.3,0.1c-0.4,0.1-0.6,0.2-0.7,0.5l0,0.1l1.3,0.4
	l-0.1,0.3L51,45.4c0-0.1,0-0.1,0-0.2c0.2-0.6,0.4-0.8,1-1L52.4,44.1z"/>
<polygon fill="#1A181D" points="54.4,44.6 54.6,44 55.4,43.7 55.8,43.9 54.9,46.7 54.5,46.6 55.3,44.2 "/>
<path fill="#1A181D" d="M57.8,47.2c0.1-0.1,0.3-0.4,0.5-1c0.2-0.5,0.2-0.9,0.2-1c0-0.1-0.1-0.2-0.4-0.3c-0.2-0.1-0.4-0.1-0.5,0
	c-0.1,0.1-0.3,0.5-0.4,1c-0.2,0.5-0.2,0.8-0.2,1c0,0.2,0.1,0.2,0.4,0.3C57.6,47.2,57.7,47.2,57.8,47.2 M58,47.5
	c-0.2,0.1-0.4,0.1-0.8,0c-0.4-0.1-0.6-0.2-0.6-0.4c-0.1-0.3-0.1-0.7,0.1-1.3c0.2-0.6,0.4-1,0.7-1.2c0.2-0.1,0.4-0.1,0.8,0
	c0.3,0.1,0.5,0.2,0.6,0.4c0.1,0.2,0.1,0.7-0.1,1.4C58.5,46.9,58.3,47.3,58,47.5"/>
<path fill="#1A181D" d="M60.5,48c0.1-0.1,0.3-0.4,0.5-1c0.2-0.5,0.2-0.9,0.2-1c0-0.1-0.1-0.2-0.4-0.3c-0.2-0.1-0.4-0.1-0.5,0
	c-0.1,0.1-0.3,0.5-0.4,1c-0.2,0.5-0.2,0.8-0.2,1c0,0.2,0.1,0.2,0.4,0.3C60.3,48.1,60.4,48.1,60.5,48 M60.7,48.4
	c-0.2,0.1-0.4,0.1-0.8,0c-0.4-0.1-0.6-0.2-0.6-0.4c-0.1-0.3-0.1-0.7,0.1-1.3c0.2-0.6,0.4-1,0.7-1.2c0.2-0.1,0.4-0.1,0.8,0
	c0.3,0.1,0.5,0.2,0.6,0.4c0.1,0.2,0.1,0.7-0.1,1.4C61.2,47.8,61,48.2,60.7,48.4"/>
<polygon fill="#1A181D" points="62.6,47.2 62.7,46.7 63.6,46.3 64,46.5 63.1,49.3 62.7,49.2 63.4,46.8 "/>
<path fill="#FFFFFF" d="M19.8,8.6l-1.6-0.5l-2.4,2.2l1.2,0.4l0.4-0.4l0.5-0.5L18.8,9l0.1,1l0.1,0.7l0.1,0.6l1.2,0.4L19.8,8.6z
	 M18.1,9.8l-0.5,0.5l1.5,0.5l-0.1-0.7L18.1,9.8z M31.9,13.5l0.2-0.6c-0.6-0.2-1.2-0.4-1.2-0.4L30,15.2l1.2,0.4l0.4-1l0.2-0.5
	L31.9,13.5z M32.9,15.1c0.6,0.1,1-0.1,1.2-0.5c0.3-0.7-0.4-1.1-1.1-1.3c-0.2-0.1-0.6-0.2-0.9-0.3l-0.2,0.6c0,0,0.6,0.2,0.7,0.2
	c0.2,0.1,0.4,0.3,0.3,0.5c-0.1,0.2-0.3,0.3-0.5,0.2c-0.2-0.1-0.7-0.2-0.7-0.2l-0.2,0.5l0.1,0l0.5,1.3l1.6,0.6L32.9,15.1z M43.7,17
	l-1.6-0.5l-2.4,2.2l1.2,0.4l0.4-0.4l0.5-0.5l0.7-0.7l0.1,1l0.1,0.7l0.1,0.6l1.2,0.4L43.7,17z M41.9,18.1l-0.5,0.5l1.5,0.5l-0.1-0.7
	L41.9,18.1z M61.7,23.9l0.2-0.6c-0.6-0.2-1.2-0.4-1.2-0.4l-0.9,2.7l1.2,0.4l0.3-1l0.2-0.6L61.7,23.9z M62.8,23.7
	c-0.2-0.1-0.5-0.2-0.9-0.3l-0.2,0.6c0,0,0.5,0.2,0.6,0.2c0.2,0.1,0.4,0.2,0.3,0.4c-0.1,0.2-0.3,0.3-0.5,0.2
	c-0.2-0.1-0.6-0.2-0.6-0.2l-0.2,0.6c0,0,0.4,0.1,0.8,0.3c0.4,0.1,0.7,0.2,1,0.2c0.4,0,0.7-0.2,0.8-0.6
	C64.1,24.3,63.4,23.9,62.8,23.7 M66.7,26.9c0.6,0.1,1-0.1,1.2-0.5c0.3-0.7-0.4-1.1-1.1-1.3c-0.2-0.1-0.6-0.2-0.9-0.3l-0.2,0.6
	c0,0,0.6,0.2,0.7,0.2c0.2,0.1,0.4,0.3,0.3,0.5c-0.1,0.2-0.3,0.3-0.5,0.2c-0.2-0.1-0.7-0.2-0.7-0.2l-0.2,0.5l0.1,0l0.5,1.3l1.6,0.6
	L66.7,26.9z M65.6,25.3l0.2-0.6c-0.6-0.2-1.2-0.4-1.2-0.4L63.7,27l1.2,0.4l0.4-1l0.2-0.5L65.6,25.3z M35.2,14l-0.9,2.7l1.2,0.4
	l0.9-2.7L35.2,14z M40.3,15.9c-0.2-0.1-0.5-0.4-1.1-0.5c-0.6-0.2-2.2-0.6-2.7,0.7c-0.4,1.3,1.1,2,1.7,2.2c0.5,0.2,0.9,0.2,1.2,0.2
	l0.2-0.7c-0.2,0-0.6-0.1-0.9-0.2c-0.2-0.1-1.1-0.4-0.8-1.1c0.2-0.7,1.2-0.4,1.4-0.4c0.4,0.1,0.7,0.3,0.9,0.4L40.3,15.9z M48.1,20.2
	l-1.2-2.1l-1.3-0.5l-0.9,2.7l1.2,0.4l0.5-1.5l1.2,2.1l1.3,0.5l0.9-2.7l-1.1-0.4L48.1,20.2z M23.4,12.9l1.3-1.3l-0.2,1.7l1.2,0.4
	l0.3-2.9l-1.3-0.5l-1.1,1.1l-0.2-1.6l-1.2-0.4l-1.6,2.5l1.1,0.4l0.9-1.4l0.2,1.8L23.4,12.9z M26.3,13.9l2.9,1l0.2-0.6l-1.6-0.6
	l0.2-0.5l1.6,0.6l0.2-0.5l-1.6-0.6l0.2-0.5l1.6,0.6l0.2-0.6l-2.9-1L26.3,13.9z M58.4,23.6l1.6-0.9l-1.4-0.5l-0.9,0.5l-0.4-0.9
	L56,21.3l0.7,1.7L54.9,24l1.4,0.5l1.1-0.6l0.5,1.1l1.4,0.5L58.4,23.6z M79.5,29.8c-0.4-0.4-1-0.7-1.5-0.9c-1-0.3-1.8-0.3-2,0.3
	c-0.2,0.6,0.7,1.1,1.1,1.2c0.4,0.2,0.6,0.3,0.5,0.5c-0.1,0.2-0.4,0.1-0.7,0c-0.3-0.1-0.7-0.2-1.1-0.6l-0.5,0.4
	c0.2,0.2,0.5,0.6,1.7,1c1.4,0.5,1.9,0,2-0.3c0.1-0.3,0.1-0.5-0.2-0.8c-0.3-0.2-0.6-0.4-0.9-0.5c-0.2-0.1-0.5-0.2-0.5-0.4
	c0.1-0.2,0.4-0.1,0.7,0c0.3,0.1,0.5,0.2,0.9,0.5L79.5,29.8z M75.7,28.5c-0.4-0.4-1-0.7-1.5-0.9c-1-0.3-1.7-0.3-1.9,0.4
	c-0.2,0.6,0.6,1,1,1.2c0.4,0.2,0.6,0.3,0.5,0.5c-0.1,0.2-0.4,0.1-0.7,0c-0.3-0.1-0.7-0.2-1.1-0.6l-0.5,0.4c0.2,0.2,0.5,0.6,1.7,1
	c1.4,0.5,1.9,0,2-0.3c0.1-0.3,0.1-0.5-0.2-0.8c-0.3-0.2-0.6-0.4-0.9-0.5c-0.2-0.1-0.5-0.2-0.5-0.4c0.1-0.2,0.4-0.1,0.7,0
	c0.3,0.1,0.5,0.2,0.9,0.5L75.7,28.5z M68,28.5l2.9,1l0.2-0.6l-1.6-0.6l0.2-0.5l1.6,0.6l0.2-0.5l-1.6-0.6l0.2-0.5l1.6,0.6l0.2-0.6
	l-2.9-1L68,28.5z M52.4,20l2.9,1l-0.2,0.6L53.5,21l-0.2,0.5l1.6,0.6l-0.2,0.5l-1.6-0.6l-0.2,0.5l1.6,0.6l-0.2,0.6l-2.9-1L52.4,20z"
	/>
</svg>
