<!-- Generator: Adobe Illustrator 18.0.0, SVG Export Plug-In  -->
<svg version="1.1"
	 xmlns="http://www.w3.org/2000/svg" xmlns:xlink="http://www.w3.org/1999/xlink" xmlns:a="http://ns.adobe.com/AdobeSVGViewerExtensions/3.0/"
	 x="0px" y="0px" width="98.9px" height="86.6px" viewBox="0 0 98.9 86.6" enable-background="new 0 0 98.9 86.6"
	 xml:space="preserve">
<defs>
</defs>
<path fill="#FFFFFF" d="M98.9,86.6l-31.8-27h-0.3c1.5-4.6,0.1-10-7-13.8c1.2-2.8,1.5-6.7,0.6-11.9c0,0-1.5-2.6-4-4.8
	c0.7-2.6,0.8-6,0-10.1c0,0-3.4-5.9-8.5-7.5c-0.1-1.2-0.2-2.4-0.5-3.8c0,0-7.5-13-16.7-5.5c-3.1,2.5-5.4,4.8-6.9,7
	C21,5.9,15.3,0.9,8.8,6.2C-0.3,13.6-3,18.8,3.9,25.8c0.3,0.3,0.7,0.6,1.1,0.9c-0.9,0.9-1.7,2.2-2.3,3.9c-3.9,11.1-3.4,17,6.1,19.2
	c2.8,0.7,6.2,0.3,9.2-0.9c0.3,2.1,1.5,4.3,3.8,6.6c1.8,1.8,4.4,3.2,7.3,3.8c-0.1,3.8,2,6.5,7,8.6c3.1,1.3,7.2,1.4,10.8,0.2
	c2.2,2.1,5.3,2.6,9.9,1.3c1.3-0.4,2.6-1,3.9-1.8v0L98.9,86.6z"/>
</svg>
