<!-- Generator: Adobe Illustrator 18.0.0, SVG Export Plug-In  -->
<svg version="1.1"
	 xmlns="http://www.w3.org/2000/svg" xmlns:xlink="http://www.w3.org/1999/xlink" xmlns:a="http://ns.adobe.com/AdobeSVGViewerExtensions/3.0/"
	 x="0px" y="0px" width="41.6px" height="45.3px" viewBox="0 0 41.6 45.3" enable-background="new 0 0 41.6 45.3"
	 xml:space="preserve">
<defs>
</defs>
<path fill="#87D6F7" d="M24.2,28.6c-4.1,2.6-6.3,0.8-8.9-4.4c-2.6-5.2,4.4-7.5,4.4-7.5C30.4,17,28.3,25.9,24.2,28.6 M39.8,28.4
	l1.8-6.7L35,20.5c0-0.9-0.1-1.7-0.3-2.5l4.6-1.8l-1.5-7l-5.4,3.4c-1.6-1.9-3.4-3.3-5.4-4.4l2.6-5.3L22.5,0l-1.8,6.7
	c-0.5,0-1,0-1.4,0.1c0,0-2.3,0.3-5,1.4l-3.8-4.1l-5.2,2l2.6,6.5c-1.4,1.8-2.4,4.1-2.4,7.1L0,19.5l2.7,7l4.1-0.2
	c0.6,1.8,1.3,3.4,2.1,4.8l-4.6,3.2L8.3,38l3.4-2.8c1.1,1.2,2.2,2,3.4,2.6l-1.9,5.3l7.1,2.2l0.5-6.4c2-0.1,4-0.7,6.1-1.6l1.2,3.5
	l7.8-1.5l-4.1-5.2c1.5-1.9,2.6-4.9,3.1-8L39.8,28.4z"/>
</svg>
