<!-- Generator: Adobe Illustrator 18.0.0, SVG Export Plug-In  -->
<svg version="1.1"
	 xmlns="http://www.w3.org/2000/svg" xmlns:xlink="http://www.w3.org/1999/xlink" xmlns:a="http://ns.adobe.com/AdobeSVGViewerExtensions/3.0/"
	 x="0px" y="0px" width="35.4px" height="37.8px" viewBox="0 0 35.4 37.8" enable-background="new 0 0 35.4 37.8"
	 xml:space="preserve">
<defs>
</defs>
<path fill="#FAA31C" d="M19.5,23.9c-3.8,1.7-5.5-0.2-7.1-5c-1.5-4.8,4.8-5.8,4.8-5.8C26.4,14.9,23.3,22.3,19.5,23.9 M32.9,26
	l2.5-5.5l-5.5-2C30,17.8,30,17,30,16.3l4.2-0.9l-0.4-6.3l-5.1,2.2c-1.1-1.8-2.5-3.3-4-4.5l1.7-5.1L23.3,0l-3.8,4.7
	c-0.4-0.1-0.8-0.1-1.2-0.1c0,0-2-0.1-4.5,0.5L9,0.8L5.1,7.1L7.7,8C6.2,9.3,5,11.1,4.6,13.7L0,12.8l1.3,6.4l3.5,0.4
	C5.1,21.2,5.5,22.7,6,24l-4.4,2.1l3,3.7l3.3-1.9c0.8,1.1,1.6,2.1,2.6,2.7L8,34.9l5.8,2.8l1.3-5.4c1.7,0.2,3.5,0,5.5-0.6l3.9,3.2
	L28,33l-2.8-3.3c1.6-1.4,2.9-3.8,3.7-6.4L32.9,26z"/>
</svg>
