<!-- Generator: Adobe Illustrator 18.0.0, SVG Export Plug-In  -->
<svg version="1.1"
	 xmlns="http://www.w3.org/2000/svg" xmlns:xlink="http://www.w3.org/1999/xlink" xmlns:a="http://ns.adobe.com/AdobeSVGViewerExtensions/3.0/"
	 x="0px" y="0px" width="45.3px" height="41.6px" viewBox="0 0 45.3 41.6" enable-background="new 0 0 45.3 41.6"
	 xml:space="preserve">
<defs>
</defs>
<path fill="#008FB0" d="M16.8,24.3c-2.7-4-0.8-6.3,4.3-9c5.2-2.7,7.5,4.3,7.5,4.3C28.4,30.4,19.4,28.3,16.8,24.3 M17,39.9l6.7,1.8
	l1.2-6.6c0.9-0.1,1.7-0.2,2.5-0.3l1.8,4.6l7-1.6l-3.5-5.4c1.8-1.6,3.3-3.4,4.3-5.4l5.4,2.6l2.9-7.1l-6.7-1.8c0-0.5,0-1-0.1-1.4
	c0,0-0.3-2.3-1.4-5L41,7.9l-7.9-3.2l-0.5,3.1c-1.8-1.4-4.1-2.4-7.1-2.4L25.7,0l-7,2.7l0.3,4.1c-1.8,0.6-3.4,1.4-4.8,2.1l-3.2-4.6
	L7.2,8.5l2.8,3.3c-1.2,1.1-2,2.2-2.6,3.5l-5.3-1.9L0,20.5l6.4,0.4c0.1,2,0.7,4,1.7,6.1l-3.5,1.2L6.2,36l5.1-4.2c1.9,1.5,4.9,2.5,8,3
	L17,39.9z"/>
</svg>
