<!-- Generator: Adobe Illustrator 18.0.0, SVG Export Plug-In  -->
<svg version="1.1"
	 xmlns="http://www.w3.org/2000/svg" xmlns:xlink="http://www.w3.org/1999/xlink" xmlns:a="http://ns.adobe.com/AdobeSVGViewerExtensions/3.0/"
	 x="0px" y="0px" width="58.9px" height="54.1px" viewBox="0 0 58.9 54.1" enable-background="new 0 0 58.9 54.1"
	 xml:space="preserve">
<defs>
</defs>
<path fill="#309E54" d="M22.8,34.1c-4.7-4.3-3.1-7.8,2.6-12.9c5.8-5.1,11,3.1,11,3.1C39.7,38.2,27.5,38.4,22.8,34.1 M28.2,54.1
	l9.2,0.1l-0.6-8.8c1.1-0.4,2.2-0.8,3.2-1.2l3.8,5.3l8.5-4.3L46,39.2c1.9-2.6,3.1-5.5,3.8-8.4l7.7,1.6l1.4-10.1l-9.2-0.1
	c-0.2-0.6-0.4-1.2-0.6-1.8c0,0-1.1-2.9-3.5-6l3-9.2L37.5,3.6l0.3,4.1C35.1,6.5,31.8,6,28,7l-1.6-7l-8.1,5.8l1.7,5.2
	c-2.1,1.4-3.9,2.9-5.5,4.3l-5.7-4.9l-3.3,6.5l4.7,3.4C9,22,8.3,23.8,7.9,25.5l-7.5-0.7L0,34.6l8.4-1.6c0.8,2.5,2.2,4.9,4.1,7.3
	l-4.1,2.7l4.6,9.5l5.3-7c3,1.3,7.1,1.7,11.3,1.2L28.2,54.1z"/>
</svg>
