<!-- Generator: Adobe Illustrator 18.0.0, SVG Export Plug-In  -->
<svg version="1.1"
	 xmlns="http://www.w3.org/2000/svg" xmlns:xlink="http://www.w3.org/1999/xlink" xmlns:a="http://ns.adobe.com/AdobeSVGViewerExtensions/3.0/"
	 x="0px" y="0px" width="74.9px" height="68.8px" viewBox="0 0 74.9 68.8" enable-background="new 0 0 74.9 68.8"
	 xml:space="preserve">
<defs>
</defs>
<path fill="#ABA3CF" d="M28.3,41.5c-5.1-6.2-2.5-10.2,5.5-15.5c8-5.3,13.1,5.8,13.1,5.8C48.5,49.5,33.4,47.7,28.3,41.5 M31.5,67.1
	l11.4,1.7l0.8-11c1.4-0.2,2.8-0.6,4.1-1l3.8,7.2l11.3-3.9l-6.7-8.2c2.7-2.9,4.8-6.3,6.1-9.7l9.3,3.3l3.4-12.2l-11.3-1.7
	c-0.1-0.8-0.2-1.6-0.4-2.3c0,0-0.9-3.7-3.3-8l5.3-10.9L51.7,6.4l-0.3,5.2c-3.2-2-7.2-3.2-12.1-2.6L38.5,0l-11,5.7l1.2,6.7
	c-2.9,1.4-5.3,2.9-7.5,4.4l-6.2-7l-5.2,7.5l5.3,5c-1.7,2-2.9,4.1-3.7,6.2l-9.1-2.1L0,38.3l10.6-0.5c0.6,3.2,1.9,6.4,3.9,9.7
	l-5.6,2.7L13,62.7l7.7-7.8c3.5,2.2,8.5,3.3,13.7,3.5L31.5,67.1z"/>
</svg>
