<!-- Generator: Adobe Illustrator 18.0.0, SVG Export Plug-In  -->
<svg version="1.1"
	 xmlns="http://www.w3.org/2000/svg" xmlns:xlink="http://www.w3.org/1999/xlink" xmlns:a="http://ns.adobe.com/AdobeSVGViewerExtensions/3.0/"
	 x="0px" y="0px" width="80.1px" height="86.9px" viewBox="0 0 80.1 86.9" enable-background="new 0 0 80.1 86.9"
	 xml:space="preserve">
<defs>
</defs>
<path fill="#F28AB8" d="M42.1,56.9c-9.4,2.6-12.7-2.3-14.7-13.8c-2-11.6,13-11.8,13-11.8C61.1,38.2,51.6,54.2,42.1,56.9 M72.4,66
	l7.5-11.9l-11.9-6.4c0.4-1.7,0.8-3.4,1-5.1l9.9-0.7l1.2-14.5l-12.6,3.4c-1.9-4.5-4.6-8.5-7.8-11.7l8.3-8.7L56,0.5l-7.5,11.8
	c-0.9-0.3-1.9-0.5-2.8-0.6c0,0-4.6-0.8-10.6-0.4L25.5,0l-7.2,6.4l1.8,9.7c-3.9,2.6-7.2,6.4-9,12.2L0.8,24.7l0.9,15.2l8,2
	c0.1,3.9,0.5,7.4,1.1,10.5L0,55.9l5.7,9.6l8.2-3.4c1.4,2.9,3.1,5.3,5.1,7.2l-6.9,9.1l12.4,8.4l4.7-12.1c3.9,0.9,8.2,1,12.8,0.5
	l0.2,7.5l16,1.7L53.3,72c4.1-2.8,7.9-7.9,10.7-13.6L72.4,66z"/>
</svg>
