<!-- Generator: Adobe Illustrator 18.0.0, SVG Export Plug-In  -->
<svg version="1.1"
	 xmlns="http://www.w3.org/2000/svg" xmlns:xlink="http://www.w3.org/1999/xlink" xmlns:a="http://ns.adobe.com/AdobeSVGViewerExtensions/3.0/"
	 x="0px" y="0px" width="50.8px" height="55.4px" viewBox="0 0 50.8 55.4" enable-background="new 0 0 50.8 55.4"
	 xml:space="preserve">
<defs>
</defs>
<path fill="#87D6F7" d="M29.5,34.9c-5,3.2-7.7,0.9-10.9-5.4c-3.2-6.4,5.4-9.1,5.4-9.1C37.2,20.9,34.5,31.8,29.5,34.9 M48.6,34.9
	l2.3-8.2l-8-1.6c0-1.1-0.2-2.1-0.3-3.1l5.6-2.1l-1.8-8.6l-6.7,4.2c-1.9-2.3-4.1-4.1-6.6-5.4l3.2-6.5L27.7,0l-2.3,8.1
	c-0.6,0-1.2,0-1.7,0.1c0,0-2.8,0.3-6.2,1.6l-5.3-5.5L7.7,8.5l2,6.7c-1.8,2.2-3,5-3.1,8.6L0,23.6l3.2,8.6l5-0.2
	c0.8,2.2,1.6,4.2,2.5,5.9L5,41.8l5,4.5l4.1-3.4c1.3,1.4,2.7,2.5,4.2,3.3l-2.4,6.5l8.6,2.7l0.6-7.8c2.4-0.1,4.9-0.8,7.5-1.9l1.4,4.3
	l9.5-1.8l-5-6.4c1.9-2.4,3.2-5.9,3.8-9.8L48.6,34.9z"/>
</svg>
