<!-- Generator: Adobe Illustrator 18.0.0, SVG Export Plug-In  -->
<svg version="1.1"
	 xmlns="http://www.w3.org/2000/svg" xmlns:xlink="http://www.w3.org/1999/xlink" xmlns:a="http://ns.adobe.com/AdobeSVGViewerExtensions/3.0/"
	 x="0px" y="0px" width="38.5px" height="40.9px" viewBox="0 0 38.5 40.9" enable-background="new 0 0 38.5 40.9"
	 xml:space="preserve">
<defs>
</defs>
<path fill="#87D6F7" d="M18.5,26.9c-4.5,0.2-5.4-2.4-5-7.7c0.4-5.3,7-3.8,7-3.8C28.9,20.8,23,26.8,18.5,26.9 M30.9,34.2l4.6-4.4
	l-4.6-4.1c0.4-0.7,0.7-1.4,1-2.1l4.4,0.8l2.1-6.3l-5.9,0.2c-0.3-2.2-1.1-4.3-2.2-6l4.6-3l-4.2-5.7L26.1,8c-0.4-0.2-0.8-0.4-1.2-0.6
	c0,0-2-0.9-4.6-1.3l-3-6.1l-4.8,1.2l0.7,5.4c-2,0.7-3.9,2.1-5.3,4.4L3.7,8.3l-1.2,6.8l3.3,1.8c-0.4,1.7-0.6,3.3-0.6,4.8L0,22
	l1.5,4.9l4-0.6c0.3,1.4,0.8,2.7,1.5,3.7l-4,3.3l4.6,5.1l3.4-4.8c1.6,0.8,3.5,1.3,5.6,1.6l-0.7,3.4l6.9,2.5l-0.8-6
	C24,34,26.2,32.2,28,30L30.9,34.2z"/>
</svg>
