<!-- Generator: Adobe Illustrator 18.0.0, SVG Export Plug-In  -->
<svg version="1.1"
	 xmlns="http://www.w3.org/2000/svg" xmlns:xlink="http://www.w3.org/1999/xlink" xmlns:a="http://ns.adobe.com/AdobeSVGViewerExtensions/3.0/"
	 x="0px" y="0px" width="282.9px" height="59px" viewBox="0 0 282.9 59" enable-background="new 0 0 282.9 59" xml:space="preserve"
	>
<defs>
</defs>
<g>
	<path fill="#ABA3CF" d="M0,25.5l17.3-1.9c2.6-0.3,4.8-0.1,6.7,0.7c2.4,0.9,4.5,2.6,6.3,5.1c1.8,2.5,3,5.6,3.4,9.2
		c0.3,3,0.1,5.8-0.5,8.3c-0.5,1.9-1.4,3.7-2.8,5.2c-1.3,1.5-3,2.8-5,3.7c-1.5,0.7-3.6,1.2-6.3,1.5L3.6,59l-0.2-1.7L6.6,57
		c0.8-0.1,1.3-0.3,1.6-0.6c0.3-0.3,0.4-0.7,0.3-1.3l-2.9-27c-0.1-0.5-0.3-0.8-0.6-1.1c-0.4-0.2-0.8-0.3-1.4-0.3l-3.4,0.4L0,25.5z
		 M12.3,25.9c-0.7,0.1-1.2,0.3-1.5,0.6c-0.3,0.3-0.4,0.8-0.3,1.3l2.9,26.7c0.1,0.5,0.3,0.9,0.7,1.2c0.4,0.2,1.1,0.3,2,0.2l2.9-0.3
		c2.6-0.3,4.7-1.2,6.5-2.7c1.2-1,2-2.3,2.5-4c0.7-2.2,0.8-5.2,0.4-9c-0.6-5.6-2-9.6-4.2-12c-1.9-2-4.5-2.8-7.9-2.5L12.3,25.9z"/>
	<path fill="#ABA3CF" d="M58.4,42.6l-15.2,1.6c0.4,3.2,1.3,5.4,2.5,6.6c1.5,1.4,3.2,1.9,5.2,1.7c3-0.3,5.2-2.3,6.6-5.8l1.5,0.5
		c-1.7,4.5-4.7,7-8.9,7.5c-2.8,0.3-5.3-0.5-7.5-2.3c-2.2-1.8-3.4-4.4-3.8-7.6c-0.4-3.4,0.3-6.3,2-8.7c1.7-2.3,3.9-3.6,6.7-3.9
		c2.1-0.2,3.9,0.1,5.5,1c1.6,0.9,2.9,2.3,3.9,4.2C57.7,38.7,58.2,40.5,58.4,42.6z M43,42.6l9.2-1c0.5-0.1,0.9-0.3,1.2-0.7
		c0.3-0.4,0.3-1,0.2-1.9c-0.2-1.7-0.8-3-2-4.1c-1.2-1.1-2.4-1.5-3.8-1.4c-1.6,0.2-2.8,1-3.8,2.5C43.1,37.6,42.8,39.8,43,42.6z"/>
	<path fill="#ABA3CF" d="M59.6,31.6l10.4-1.1l0.2,1.5c-1.4,0.2-2.3,0.4-2.6,0.7c-0.4,0.3-0.5,0.6-0.5,1c0,0.3,0.1,0.7,0.3,1l7,11.9
		l3.8-12.7c0.1-0.2,0.1-0.4,0-0.6c-0.1-1.1-1.3-1.7-3.5-1.7l-0.2-1.5l8.8-0.9l0.2,1.5c-0.9,0.2-1.6,0.5-2.1,1
		c-0.5,0.4-0.8,1-1.1,1.7l-5.8,18.8l-1.2,0.1L63.1,34.6c-0.4-0.6-0.8-1.1-1.2-1.3c-0.5-0.2-1.2-0.3-2.1-0.2L59.6,31.6z"/>
	<path fill="#ABA3CF" d="M106.5,37.4L91.3,39c0.4,3.2,1.3,5.4,2.5,6.6c1.5,1.4,3.2,1.9,5.2,1.7c3-0.3,5.2-2.3,6.6-5.8l1.5,0.5
		c-1.7,4.5-4.7,7-8.9,7.5c-2.8,0.3-5.3-0.5-7.5-2.3c-2.2-1.8-3.4-4.4-3.8-7.6c-0.4-3.4,0.3-6.3,2-8.7c1.7-2.3,3.9-3.6,6.7-3.9
		c2.1-0.2,3.9,0.1,5.5,1c1.6,0.9,2.9,2.3,3.9,4.2C105.8,33.6,106.3,35.3,106.5,37.4z M91.2,37.4l9.2-1c0.5-0.1,0.9-0.3,1.2-0.7
		c0.3-0.4,0.3-1,0.2-1.9c-0.2-1.7-0.8-3-2-4.1c-1.2-1.1-2.4-1.5-3.8-1.4c-1.6,0.2-2.8,1-3.8,2.5C91.3,32.5,90.9,34.6,91.2,37.4z"/>
	<path fill="#ABA3CF" d="M115.3,12.8l3.3,30.8c0,0.4,0.2,0.7,0.5,0.9c0.4,0.3,0.9,0.4,1.4,0.3l2.2-0.2l0.2,1.7l-12,1.3l-0.2-1.7
		l2.1-0.2c0.7-0.1,1.2-0.3,1.5-0.7c0.3-0.4,0.4-0.9,0.4-1.5L112,17.6c-0.1-0.8-0.3-1.3-0.8-1.6c-0.6-0.4-1.3-0.6-2.1-0.5l-1.9,0.2
		l-0.2-1.7L115.3,12.8z"/>
	<path fill="#ABA3CF" d="M133.2,23c2.9-0.3,5.4,0.5,7.5,2.3c2.2,1.9,3.4,4.5,3.8,7.8c0.2,2.3,0,4.4-0.7,6.1
		c-0.7,1.7-1.8,3.2-3.3,4.3c-1.5,1.1-3.2,1.8-5,2c-2.8,0.3-5.2-0.5-7.3-2.4s-3.4-4.5-3.7-7.8c-0.4-3.3,0.3-6.2,2-8.4
		C128.2,24.6,130.4,23.3,133.2,23z M133.4,24.6c-1.7,0.2-3,1.1-3.9,2.7c-0.9,1.7-1.2,4.1-0.9,7.4c0.4,3.4,1.2,5.8,2.4,7.2
		c1.2,1.4,2.7,2.1,4.4,1.9c1.8-0.2,3.1-1.1,4-2.8c0.9-1.7,1.2-4.3,0.8-7.8c-0.4-3.3-1.1-5.6-2.4-6.9C136.7,25,135.2,24.4,133.4,24.6
		z"/>
	<path fill="#ABA3CF" d="M153.2,21.1c0.5,1.6,0.9,3.1,1.1,4.5c0.9-1.8,1.8-3.1,2.9-3.9c1.1-0.8,2.3-1.3,3.6-1.4
		c1.4-0.2,2.9,0.1,4.3,0.9c1.4,0.7,2.6,1.9,3.6,3.6c1,1.6,1.6,3.5,1.9,5.7c0.4,3.5-0.3,6.4-2.1,8.8c-1.5,2-3.4,3.1-5.7,3.4
		c-1.3,0.1-2.6-0.1-3.7-0.6s-2.2-1.5-3.2-2.7l0.9,8.6c0.1,0.7,0.3,1.1,0.6,1.4c0.4,0.3,1,0.4,1.8,0.4l1.6-0.2l0.2,1.6l-11.4,1.2
		l-0.2-1.6l1.6-0.2c0.7-0.1,1.3-0.3,1.6-0.6c0.3-0.3,0.5-0.7,0.4-1.2l-2.4-22.3c-0.1-1-0.4-1.8-1-2.1c-0.5-0.4-1.6-0.5-3.1-0.4
		l-0.2-1.5L153.2,21.1z M160,22.5c-1.6,0.2-3,1.1-3.9,2.8s-1.3,4.1-1,7.1c0.3,3,1.1,5.2,2.4,6.6c1.3,1.3,2.7,1.9,4.4,1.7
		c1.6-0.2,2.8-0.9,3.5-2.3c0.9-1.7,1.2-4.2,0.9-7.3c-0.4-3.3-1.1-5.6-2.2-6.9C162.9,22.9,161.5,22.3,160,22.5z"/>
	<path fill="#ABA3CF" d="M174.4,19.2l6-1c0.5,1.5,0.9,3,1.1,4.4c1-1.8,2-3.1,3.1-3.9c1.1-0.8,2.3-1.3,3.7-1.4
		c1.5-0.2,2.7,0.1,3.8,0.8c1,0.7,1.9,1.8,2.6,3.5c0.8-1.7,1.8-3.1,3-4c1.2-0.9,2.5-1.5,3.9-1.7c1.9-0.2,3.4,0.2,4.5,1.3
		c1.4,1.4,2.2,3.3,2.5,5.6l1.1,10.5c0.1,0.6,0.3,1,0.6,1.2c0.5,0.3,1.1,0.4,1.9,0.3l1.1-0.1l0.2,1.7l-10.7,1.1l-0.2-1.7l1.1-0.1
		c0.9-0.1,1.5-0.3,1.9-0.7c0.3-0.3,0.5-0.8,0.4-1.4l-1.1-10.5c-0.2-1.6-0.7-2.7-1.5-3.5c-0.9-0.8-1.9-1.1-3.2-1
		c-0.9,0.1-1.8,0.4-2.5,1c-0.7,0.6-1.2,1.4-1.6,2.4c-0.5,1.4-0.7,2.6-0.6,3.5l1,9.1c0.1,0.6,0.3,1.1,0.6,1.3
		c0.4,0.3,0.9,0.4,1.6,0.3l1.4-0.2l0.2,1.7l-10.8,1.2l-0.2-1.7l1.2-0.1c0.8-0.1,1.3-0.3,1.7-0.6s0.5-0.7,0.4-1.2l-1.1-9.8
		c-0.2-2.1-0.7-3.5-1.6-4.4c-0.8-0.9-1.9-1.2-3.1-1.1c-1.6,0.2-2.8,0.8-3.5,2c-1.1,1.7-1.5,3.5-1.3,5.6l0.9,8.5
		c0.1,0.6,0.3,1.1,0.6,1.3c0.4,0.3,1.1,0.4,2,0.3l1.1-0.1l0.2,1.7l-10.7,1.1l-0.2-1.7l1.6-0.2c0.6-0.1,1.1-0.3,1.3-0.6
		c0.3-0.3,0.4-0.7,0.4-1.2l-1.5-13.9c-0.1-0.8-0.3-1.3-0.8-1.7c-0.4-0.3-1.2-0.5-2.4-0.5L174.4,19.2z"/>
	<path fill="#ABA3CF" d="M235.5,23.6l-15.2,1.6c0.4,3.2,1.3,5.4,2.5,6.6c1.5,1.4,3.2,1.9,5.2,1.7c3-0.3,5.2-2.3,6.6-5.8l1.5,0.5
		c-1.7,4.5-4.7,7-8.9,7.5c-2.8,0.3-5.3-0.5-7.5-2.3c-2.2-1.8-3.4-4.4-3.8-7.6c-0.4-3.4,0.3-6.3,2-8.7c1.7-2.3,3.9-3.6,6.7-3.9
		c2.1-0.2,3.9,0.1,5.5,1c1.6,0.9,2.9,2.3,3.9,4.2C234.7,19.7,235.2,21.5,235.5,23.6z M220.1,23.6l9.2-1c0.5-0.1,0.9-0.3,1.2-0.7
		c0.3-0.4,0.3-1,0.2-1.9c-0.2-1.7-0.8-3-2-4.1c-1.2-1.1-2.4-1.5-3.8-1.4c-1.6,0.2-2.8,1-3.8,2.5S219.8,20.8,220.1,23.6z"/>
	<path fill="#ABA3CF" d="M237.6,12.5l7-1.2c0.4,1.3,0.8,2.8,1.1,4.6c0.8-1.6,1.8-2.9,3-3.8c1.2-0.9,2.6-1.5,4.3-1.6
		c1.4-0.2,2.6,0,3.6,0.4c1,0.4,1.9,1.2,2.6,2.4c0.7,1.1,1.1,2.4,1.3,3.9l1.1,10.3c0.1,0.8,0.3,1.3,0.7,1.6c0.4,0.3,1,0.4,1.8,0.3
		l1.5-0.2l0.2,1.7l-11.2,1.2l-0.2-1.7l1.1-0.1c1-0.1,1.7-0.3,2-0.7c0.4-0.4,0.5-0.9,0.4-1.5l-1-9.1c-0.2-2-0.7-3.4-1.4-4.3
		c-1-1.3-2.3-1.8-4.1-1.6c-1.7,0.2-3.1,1-4,2.5c-1,1.5-1.4,3.3-1.1,5.6l0.8,7.9c0.1,0.8,0.3,1.3,0.7,1.6c0.4,0.3,1,0.4,1.8,0.3
		l1.5-0.2l0.2,1.7l-11.2,1.2l-0.2-1.7l1.5-0.2c0.7-0.1,1.3-0.3,1.6-0.6s0.5-0.7,0.5-1.2L242,16.3c-0.1-0.9-0.4-1.6-1-2
		c-0.5-0.4-1.3-0.6-2.2-0.5l-1.1,0.1L237.6,12.5z"/>
	<path fill="#ABA3CF" d="M270.6,0.2l1.5-0.2l0.9,8.7l6.9-0.7l0.2,2.1l-6.9,0.7l1.5,13.6c0.1,1.2,0.5,2.1,1.1,2.6
		c0.6,0.6,1.4,0.8,2.2,0.7c1-0.1,1.9-0.7,2.5-1.7c0.6-1,0.9-2.6,0.8-4.8l1.5-0.2c0.2,2.8-0.2,5-1.2,6.5s-2.5,2.3-4.4,2.5
		c-1.8,0.2-3.2-0.1-4.3-1s-1.7-2.1-1.9-3.6l-1.5-14.3l-3.7,0.4l-0.2-1.6c1.7-0.5,2.9-1.3,3.6-2.5C270.4,5.6,270.8,3.2,270.6,0.2z"/>
</g>
</svg>
