<!-- Generator: Adobe Illustrator 18.0.0, SVG Export Plug-In  -->
<svg version="1.1"
	 xmlns="http://www.w3.org/2000/svg" xmlns:xlink="http://www.w3.org/1999/xlink" xmlns:a="http://ns.adobe.com/AdobeSVGViewerExtensions/3.0/"
	 x="0px" y="0px" width="234.3px" height="49.4px" viewBox="0 0 234.3 49.4" enable-background="new 0 0 234.3 49.4"
	 xml:space="preserve">
<defs>
</defs>
<g>
	<path fill="#FFFFFF" d="M1.9,0l20.5,1.1l-0.3,5.1L7.6,5.4l-0.5,9.2l14.6,0.8l-0.3,5.3L6.9,19.9L6.3,31.8l14.6,0.8l-0.3,5.4L0,36.8
		L1.9,0z"/>
	<path fill="#FFFFFF" d="M22.6,38l9.7-12.4l-7.1-11.4l6,0.3l3.1,5.1c0.5,0.9,1,1.8,1.5,3c0.6-1,1.2-1.9,1.9-2.8l3.6-4.7l6,0.3
		L38.8,26l8.3,13.2l-6-0.3L37,32.5c-0.7-1.1-1.3-2.2-1.7-3.3c-1,1.8-1.7,2.7-2.1,3.2l-4.7,6L22.6,38z"/>
	<path fill="#FFFFFF" d="M61.7,20.1c-4.4-0.2-7.5,2.7-7.8,7.5c-0.3,5,2.5,8.1,7.2,8.4c2.6,0.1,4.7-0.7,6.4-2.7l-0.3,6.3
		c-2.1,1-4.4,1.5-7,1.3c-7.5-0.4-12.4-5.9-12-13.5c0.4-7.7,6-12.5,13.9-12.1c2.4,0.1,4.5,0.7,6.3,1.8L68,23.3
		C66.5,21.4,64.3,20.3,61.7,20.1z"/>
	<path fill="#FFFFFF" d="M77.2,29.7c0,4.5,2.4,7.3,6.4,7.5c3.5,0.2,5.8-1.1,7.7-4.3l4.4,2.8c-2.9,4.6-7,6.8-12.3,6.5
		c-7.6-0.4-12.2-5.7-11.8-13.5c0.4-7.4,5.8-12.6,13.2-12.2c7.7,0.4,12,5.2,11.6,13.2c0,0.3,0,0.7-0.1,1L77.2,29.7z M84.6,21.2
		c-3.6-0.2-5.8,1.4-6.9,4.9l13,0.7C90.6,23.3,88.4,21.4,84.6,21.2z"/>
	<path fill="#FFFFFF" d="M103.6,3.2l5.5,0.3l-2,39l-5.5-0.3L103.6,3.2z"/>
	<path fill="#FFFFFF" d="M117.1,3.9l5.5,0.3l-2,39l-5.5-0.3L117.1,3.9z"/>
	<path fill="#FFFFFF" d="M132.8,32.6c0,4.5,2.4,7.3,6.4,7.5c3.5,0.2,5.8-1.1,7.7-4.3l4.4,2.8c-2.9,4.6-7,6.8-12.3,6.5
		c-7.6-0.4-12.2-5.7-11.8-13.5c0.4-7.4,5.8-12.6,13.2-12.2c7.7,0.4,12,5.2,11.6,13.2c0,0.3,0,0.7-0.1,1L132.8,32.6z M140.3,24.1
		c-3.6-0.2-5.8,1.4-6.9,4.9l13,0.7C146.2,26.2,144,24.3,140.3,24.1z"/>
	<path fill="#FFFFFF" d="M158.2,21.2l5.2,0.3l-0.2,3.9c2.4-3.2,5.3-4.5,9.5-4.3c3.6,0.2,6,1.5,7.3,3.7c1.1,1.9,1,4,0.8,6.9L180,46.3
		l-5.5-0.3l0.6-12.3c0.3-5.3-0.3-7.8-4.8-8c-2.6-0.1-4.7,0.7-5.9,2.4c-1.1,1.4-1.3,3.4-1.4,6.4l-0.6,10.9l-5.5-0.3L158.2,21.2z"/>
	<path fill="#FFFFFF" d="M199.6,27.3c-4.4-0.2-7.5,2.7-7.8,7.5c-0.3,5,2.5,8.1,7.2,8.4c2.6,0.1,4.7-0.7,6.4-2.7l-0.3,6.3
		c-2.1,1-4.4,1.5-7,1.3c-7.5-0.4-12.4-5.9-12-13.5c0.4-7.7,6-12.5,13.9-12.1c2.4,0.1,4.5,0.7,6.3,1.8l-0.3,6.1
		C204.4,28.6,202.2,27.5,199.6,27.3z"/>
	<path fill="#FFFFFF" d="M215.1,36.9c0,4.5,2.4,7.3,6.4,7.5c3.5,0.2,5.8-1.1,7.7-4.3l4.4,2.8c-2.9,4.6-7,6.8-12.3,6.5
		c-7.6-0.4-12.3-5.7-11.8-13.5c0.4-7.4,5.8-12.6,13.2-12.2c7.7,0.4,12,5.2,11.5,13.2c0,0.3,0,0.7-0.1,1L215.1,36.9z M222.5,28.4
		c-3.6-0.2-5.8,1.4-6.9,4.9l13,0.7C228.5,30.5,226.3,28.6,222.5,28.4z"/>
</g>
</svg>
