<!-- Generator: Adobe Illustrator 18.0.0, SVG Export Plug-In  -->
<svg version="1.1"
	 xmlns="http://www.w3.org/2000/svg" xmlns:xlink="http://www.w3.org/1999/xlink" xmlns:a="http://ns.adobe.com/AdobeSVGViewerExtensions/3.0/"
	 x="0px" y="0px" width="31.7px" height="55.5px" viewBox="0 0 31.7 55.5" enable-background="new 0 0 31.7 55.5"
	 xml:space="preserve">
<defs>
</defs>
<polygon fill="#BDB2BA" points="6.1,55.5 5.5,41.8 26.9,41.3 25.3,55 "/>
<path fill="#FFFFFF" d="M11.9,41.1c0,0-0.3-5.9-1-6.3C10.2,34.3-0.3,22.6,0,16C0.3,8,8.1,0,14.5,0C22,0,30.4,6,31,8.9l0.6,2.9
	c0,0,1.8,10.7-5.1,17.9c-4.9,5.1-4.6,7.2-4.6,7.9l-0.2,3.1L11.9,41.1z"/>
<path fill="#000005" d="M18.3,39.7c-0.1-1.2-0.1-2.6-0.3-3.8c0-0.1,0.1,0,0.1-0.3c-0.1-1.2,0.1-3.1,0.3-4.5l0,0.1c0-0.3,0-0.6,0-0.9
	c0,0,0,0.1,0.1,0c-0.1-0.1,0-0.5,0-0.7c0-0.1,0.1-0.1,0.1-0.3c0,0,0-0.1,0-0.1c0,0,0,0,0,0l0-0.1c-0.1-0.5,0.1-1.1,0-1.8
	c0,0,0,0.1,0,0c-0.1-1,0-2.3,0-3.4c0,0,0.1,0.1,0.1,0c-0.1-0.1-0.1-0.4-0.1-0.7c0.1-0.1,0-0.5,0-0.9l0,0c-0.1-0.3,0.1-0.4,0-0.6
	l0.1-0.2c-0.1-0.1,0.1-0.4,0.1-0.6l0,0c0-0.2,0.1-0.3,0.1-0.5l0,0c0-0.5,0.2-0.7,0.1-0.7c0.1-0.1,0,0.4,0.1,0.2
	c0.2-1.5,0.6-3,1.5-4.2c0.1-0.1,0.2-0.2,0.3-0.2c0.1-0.1,0.4-0.4,0.5-0.6c0,0,0.1,0,0.1-0.1c0.2-0.2,0.2-0.2,0.4,0.1
	c-0.1-0.1-0.1-0.1-0.1,0c0.2,0.1,0.4,0.5,0.5,0.7c0,0-0.1-0.1-0.1-0.1c0.2,0.3,0.2,0.6,0.3,0.8l-0.1-0.1c0.1,0.5,0.1,0.1,0.2,0.5
	c0-0.1,0-0.1-0.1-0.1c0.2,0.4,0.1,1,0,1.4c0,0,0,0,0,0c-0.1,0.4-0.4,0.8-0.7,1.1c-0.1,0.1,0-0.1-0.4,0.2c0.1,0.1-0.6,0.4-0.3,0.4
	c-0.3,0.2-0.9,0.4-1.1,0.5c0.1-0.1-0.2-0.1,0.1-0.2h-0.2c0,0,0.2,0,0.1-0.1c-0.1,0.1-0.6,0.2-0.7,0.2c-0.3,0.1-0.5,0.2-1,0.2
	c0.2,0-0.1-0.1,0-0.1c0,0-0.7,0.1-0.7,0.1c-0.2,0,0-0.1-0.2-0.1c0,0-0.1,0-0.2,0c-0.1,0-0.6-0.2-0.6-0.4c0-0.1,0.2,0.1,0.1,0
	c-0.2-0.1-0.3-0.1-0.5-0.3l0,0c-0.1-0.1-0.4-0.4-0.3-0.2c0.1,0.1,0-0.1,0.1,0.1c-0.1-0.1-0.4-0.3-0.5-0.6c0.1,0.1,0.1,0.1,0.1,0.1
	c-0.3-0.3-0.4-0.7-0.5-1.2c0,0,0.1,0.2,0.1,0.2c0-0.6-0.1-1.2,0.1-1.6c0,0.1-0.1,0-0.1,0c0.1-0.3,0.1-0.2,0.2-0.4c0,0,0-0.2,0.1-0.4
	c0-0.1,0,0,0,0.1c0-0.1,0.1-0.4,0.3-0.8c0.2-0.3,0.3-0.6,0.5-0.9c0,0,0.2-0.5,0.3-0.7l0,0.1c0.1-0.1,0.3-0.6,0.4-0.5
	c0.1-0.2-0.1,0.1-0.3,0.4c-0.2,0.3-0.3,0.6-0.2,0.4c0.1,0,0.4-0.7,0.3-0.5c0-0.1,0.1-0.2,0.1-0.3L17,13c0,0,0.1-0.1,0.1,0
	c0.1,0.1,0.2,0.3,0.2,0.5c0-0.1-0.2-0.1,0,0.1c0.2,0.4,0.1,0.1,0.3,0.4l0.1,0.2c0.1,0,0.1,0.3,0.1,0.2c0,0.1,0.2,0.5,0.1,0.5l-0.1,0
	c0.1,0.2,0.2,0.2,0.2,0.3c0,0,0,0.1,0,0.1c0.1,0,0.1,0.4,0.2,0.6c0,0.4,0.1,0.9,0,1.1c0,0.3,0.1,0.5,0,0.8c0-0.1,0-0.1,0-0.2
	c-0.1,0.2-0.1,0.2-0.1,0.4c0,0-0.2,0.4-0.3,0.5c-0.1,0.3,0,0.2,0,0.2c-0.2,0.2-0.3,0.7-0.6,0.9c0-0.1,0.2-0.3,0-0.2
	c-0.2,0.1-0.2,0.4-0.6,0.7l0.1,0c-0.2,0.1-0.4,0.4-0.5,0.3c-0.1,0.1-0.4,0.2-0.3,0.3c-0.6,0.3-1.4,0.7-1.9,0.6
	c-0.1,0-0.3,0.1-0.3,0.1c0.2,0,0.2-0.1,0.3-0.1c-0.1,0-0.1,0-0.1,0.1c-0.2,0-0.4,0-0.2-0.1c-0.4,0-0.4,0.2-1,0.2c0,0,0-0.1-0.2,0
	c0,0-0.3,0.1-0.3,0.1c-0.4,0-0.2-0.1-0.2-0.2c-0.2,0-0.4,0-0.5,0l-0.2-0.1c0.2,0.1-0.2,0-0.3,0l0.1,0c0,0-0.2-0.1-0.4-0.1
	c0,0,0.2,0.1,0.3,0.2c-0.1,0-0.3-0.1-0.4-0.1c0.1,0-0.3-0.1-0.4-0.2c-0.2-0.1-0.2,0-0.3-0.1c0,0-0.3-0.2-0.1-0.1
	c0.1,0,0.1,0.1,0.2,0.1c-0.1-0.1-0.1-0.1-0.3-0.2c-0.2-0.1,0,0.1-0.3-0.1c0.1,0,0.1,0,0.2,0.1c0,0-0.3-0.2-0.2-0.2l0,0c0,0,0,0,0,0
	c-0.1,0-0.4-0.3-0.5-0.4c-0.1-0.1-0.2-0.3-0.3-0.5l0,0c0-0.2-0.2-0.4-0.3-0.6l0,0c0-0.1-0.1-0.4-0.2-0.5c0-0.3,0.2-0.1,0.1-0.4
	c0-0.3-0.1-0.4-0.2-0.3c0-0.2,0-0.5,0.1-0.8c0.1-0.3,0.1-0.5,0.2-0.7c0-0.1,0,0,0-0.2c0.2-0.7,0.5-1.4,0.9-1.9c-0.1,0.2,0,0,0.1,0.1
	c0-0.2,0.1-0.1,0.1-0.3c0,0-0.1,0-0.2,0.1c0.1-0.2,0.4-0.6,0.5-0.9l0.1-0.1c0,0,0-0.1,0.1,0c0.1,0.1,0.1,0.1,0.2,0.2
	c0.1,0.1,0.2,0.2,0.3,0.3c-0.1-0.1,0-0.1,0.1,0c0,0,0,0.1,0.1,0.2c0.1,0.1,0.1,0.1,0.2,0.2l0.1,0.1l0.1,0l0,0.2
	c0.1,0.1,0.1,0,0.2,0.3c0,0,0,0,0,0.1c0.2,0.2,0.4,0.5,0.5,0.7l0,0.2c0.1,0.1,0.2,0.3,0.1,0.1c0.1,0.4,0.2,0.7,0.2,0.9
	c0.4,0.7,0.7,1.8,0.9,2.6l0,0c0,0.2,0.1,0.1,0.1,0.3c-0.1-0.1,0,0.2-0.1,0c0,0.3,0.2,0.4,0.2,0.6c0.1,0-0.1-0.2,0-0.1
	c0,0,0,0.5,0.1,0.5c0,0.1-0.1,0-0.1,0l0.1,0.2c0,0.3-0.3-0.5-0.3-0.3l0,0.2c0,0.2-0.2-0.5-0.1,0c0.1,0.2,0.2,0.4,0.2,0.2
	c0.1,0.4,0.2,0.2,0.3,0.6c0,0.1-0.1-0.4-0.1-0.3c0,0.2,0.1,0.4,0.1,0.6c0-0.2,0.1,0,0.1,0.1c0,0.2-0.1-0.1-0.1,0.2
	c0.1,0,0.1,0.3,0.1,0.1c0.1,0.1,0,0.3,0.1,0.5c-0.1,0.1-0.2-0.3-0.2,0c0.1-0.1,0.1,0.4,0.2,0.2c0,0.1-0.1,0.2-0.1,0.1
	c0,0.2,0.2,0.5,0,0.6l0.1,0.1c0,0.1,0,0.1-0.1,0.3c0,0.2,0.1,0.6,0,0.6c0,0.1,0,0.5,0.1,0.3c0-0.3-0.1-0.3,0-0.4
	c-0.1,0.2,0,0.4,0.1,0.5l0,0c0,0.1,0,0.3,0.1,0.3c0-0.1-0.1,0-0.1,0l0.1,0.1c0.1,0.4-0.1,0.1-0.1,0.4L14,25.7c0,0.1,0,0.2,0,0.3
	c0.1,0.1,0.1,0.2,0.2,0.2c0,0.2-0.1,0.1,0,0.3l-0.1-0.3c0,0-0.1,0.2-0.1,0.4c0,0.2,0.1,0.4,0.1,0.2c0,0.1,0,0.3-0.1,0.2
	c0,0.3,0.1,0,0.1,0.2c0,0.1-0.1,0.4-0.1,0.6L14,27.7l0,0.2c-0.1-0.2-0.1,0.1-0.1,0c0,0.1,0,0.3,0,0.4c0.1-0.4,0.2,0.4,0.3,0.3
	c0,0.5-0.3,0.3-0.1,0.8c0-0.1,0.1,0.2,0.1-0.2c0,0.3,0.1,0.2,0.1,0.6c0-0.3-0.1,0.3-0.2-0.1c0,0,0-0.2,0-0.3c0,0.1-0.1,0-0.1,0.3
	c0,0.2,0,0.5,0.1,0.4c0.1,0,0-0.3,0.1-0.2c0,0.4-0.1,0.4,0,0.6c0-0.2,0.1-0.3,0.1-0.3l0,0.3l0-0.1c0,0.4,0.1,0.1,0.1,0.6l-0.1,0.2
	c-0.1-0.1,0-0.6-0.1-0.6c0,0.3,0.1,0.4,0,0.6l0-0.2c0,0.1-0.2,0.2-0.1,0.6c0,0.2,0,0.1,0.1,0.1c0,0.5,0,0.6,0,0.9
	c-0.1-0.1,0,0.5-0.1,0.2c0.1-0.1,0.1-0.8,0-1c-0.1,0.2,0-0.4-0.1-0.5c0,0.4-0.1,0.3-0.2,0.4c0,0.1,0,0.2,0,0.3
	c0.1,0,0.1-0.1,0.1-0.1c0,0.4,0,0.8,0,1c0,0.1-0.1,0.1-0.1-0.1c0,0.5,0,1-0.1,1.4c0.1-0.3,0,0.5,0.1,0.3c0-0.2,0.1-0.4,0.2-0.3
	c0,0.2,0,0-0.1,0.1c0,0.2-0.1,0.3,0,0.5c0-0.4-0.1-0.1-0.2-0.2c0,0.3-0.1,0-0.1,0.3c0,0.3,0,0.7,0,1.1c-0.1,0.4-0.1,1.1-0.2,1.5
	c-0.1,0.2-0.1,0-0.2,0.3c0,0.3,0.1-0.2,0,0.2l0,0c0,0.1-0.2,0.7-0.1,0.8l-0.1-0.1c0,0.1,0,0.1,0,0.2c0,0-0.1,0.1-0.1,0
	c-0.1,0.2-0.1,0.5-0.2,0.7l0.1-0.1c-0.1,0.4-0.2,0.7-0.4,1.1l0,0l-0.1,0.2c0-0.1-0.2,0.1-0.2,0.2c0,0,0.2-0.6,0.2-0.6
	c0.1-0.2,0,0.2,0.1,0.1c0.1-0.1,0.2-0.4,0.2-0.5c-0.1,0.1-0.1,0.2-0.1,0.3c-0.1,0,0-0.2,0-0.3c0,0.1-0.1,0.2-0.1,0.2
	c0-0.2,0.1-0.3,0.1-0.5c0,0.2,0.1-0.1,0.1,0c-0.1,0,0-0.3,0.1-0.6c0.1-0.2,0.1-0.6,0.2-1c0,0.2,0.1,0.4,0,0.6
	c0.1-0.2,0.1-0.3,0.1-0.5c0-0.1-0.1-0.2-0.1-0.5l0.1,0c0-0.3-0.1-0.3,0-0.6c0.1-0.6,0.2-1.2,0.2-1.7l0.1,0c-0.1-0.3,0-0.9,0-1.2
	c0.1-0.6,0-1.3,0.1-1.6c0-1,0-1.9,0-3l0.1,0.2c-0.1-0.2,0-0.1,0-0.3c-0.1,0.2-0.1-0.3-0.1-0.4c0.1-0.5,0-1.1-0.1-1.5l0.1,0
	c-0.1-0.4-0.1-0.9-0.1-1.5c0-0.1,0.1-0.2,0-0.3c-0.1-0.3-0.1-0.4-0.2-0.8c0-0.3-0.1-0.8,0-1.1c-0.2-1.1-0.3-2.3-0.6-3.5l0-0.1
	c-0.3-1.1-0.6-2.5-1-3.4l0.1,0.1c-0.1-0.3-0.3-0.6-0.3-0.5c-0.1-0.3-0.4-0.7-0.4-0.9c-0.1-0.3-0.2-0.3-0.4-0.5
	c-0.1-0.1-0.1-0.2-0.2-0.2c0,0,0-0.1-0.1-0.1c0,0-0.1-0.1-0.1,0c0,0,0,0.1-0.1,0.1l0,0c0,0,0-0.1,0-0.1c0,0.1,0,0.1-0.1,0.2
	c-0.1,0.1-0.1,0.2,0,0.2c-0.2,0.3-0.3,0.6-0.5,0.9c-0.1,0.3-0.2,0.7-0.4,0.9c0,0,0,0.1,0,0.2c-0.1,0.3-0.1,0.5-0.2,0.8
	c0,0.3,0,0.5,0,0.7c0,0.1-0.1-0.1-0.1,0.1c0,0.1,0,0,0.1,0.1c0.2,0.8,0.6,1.5,1.3,1.9c1.2,0.6,2.8,0.6,4,0.2l0,0
	c0.4-0.2,1-0.3,1.2-0.6c0.1,0,0.3-0.2,0.3-0.1c0.2-0.2,0.8-0.6,1-1.1c0,0,0,0.1,0,0.1c0.3-0.4,0.4-0.8,0.6-1.3c0,0.1,0,0.2,0,0.2
	c0.1-0.2,0-0.5,0.1-0.6c0-0.1-0.1-0.1-0.1,0c0.1-0.6-0.1-1.2-0.2-1.8l-0.2-0.4c-0.1-0.1-0.1-0.4-0.2-0.4c-0.1-0.1-0.1-0.2-0.1-0.1
	c-0.1,0-0.1,0-0.1,0c0,0,0-0.1-0.1,0.1c0,0,0,0,0,0c-0.1,0.2-0.3,0.3-0.3,0.5c0.1,0,0,0.1,0,0.2c-0.3,0.5-0.4,0.6-0.5,1l0,0
	c0,0.5-0.2,1.1-0.1,1.5c0,0.7,0.2,1.3,0.7,1.6c0.5,0.4,1.1,0.6,1.7,0.7c1.3,0.1,2.7-0.4,3.3-1.4c0.3-0.5,0.4-1.1,0.3-1.7
	c-0.1-0.3-0.2-0.6-0.3-0.9l-0.1-0.2c0,0,0,0,0,0c0,0,0,0,0,0l-0.1,0.1l0,0L21.2,16c-0.2,0.3-0.4,0.5-0.6,0.8
	c-0.3,0.6-0.6,1.2-0.8,1.9c-0.3,0.6-0.3,0.7-0.4,1.4c0,0,0-0.1,0,0c0.1,0.1-0.1,0.5,0,0.6c-0.2,1-0.2,2-0.3,3.1
	c0-0.2-0.1-0.3-0.1-0.1l0,0.2l0,0c0,0.1,0,0.3,0.1,0.2c0,1.7-0.1,3.4-0.2,5.1l0,0c-0.1,1.1-0.2,2.2-0.2,3.2
	c-0.1,0.6-0.1,1.6-0.1,2.2c0,0.3-0.1,0.5-0.1,0.8c0,0.2,0,0.5,0,0.7c0,0.5,0,1,0.1,1.5c0,0.5,0.1,1,0,1.5c0,0.1,0,0.3,0,0.4
	c0,0.1,0,0.2-0.2,0.4c-0.1,0.1-0.2,0.1-0.3,0.1c-0.1,0-0.1-0.1-0.2-0.1c-0.1-0.1-0.1-0.1-0.1-0.1c-0.2-0.3-0.3-0.5-0.4-0.8
	c0,0,0.1,0.1,0.2,0.2c0.1,0.1,0.1,0.2,0.2,0.3c0,0.1,0.1,0.1,0.2,0.2c0,0,0.1,0,0.1,0.1c0.1,0,0.1,0,0.2-0.1
	C18.3,39.8,18.3,39.7,18.3,39.7"/>
</svg>
