<!-- Generator: Adobe Illustrator 18.0.0, SVG Export Plug-In  -->
<svg version="1.1"
	 xmlns="http://www.w3.org/2000/svg" xmlns:xlink="http://www.w3.org/1999/xlink" xmlns:a="http://ns.adobe.com/AdobeSVGViewerExtensions/3.0/"
	 x="0px" y="0px" width="166.7px" height="37.9px" viewBox="0 0 166.7 37.9" enable-background="new 0 0 166.7 37.9"
	 xml:space="preserve">
<defs>
</defs>
<g>
	<path fill="#ABA3CF" d="M0.8,0l16.6,0.4c3.8,0.1,6.6,1,8.5,2.8s2.9,4,2.8,6.7c-0.1,2.7-1,4.8-2.9,6.2c-2.6,1.9-5.7,2.8-9.3,2.8
		l-6-0.1l-0.3,11.5c0,0.7,0.1,1.1,0.4,1.4c0.4,0.4,1,0.6,1.7,0.6l3.8,0.1l0,1.7L0,33.7L0,32l3.4,0.1c0.7,0,1.2-0.1,1.5-0.4
		c0.3-0.3,0.5-0.6,0.5-1.1L6.1,3.8c0-0.7-0.2-1.2-0.6-1.5C5.1,2,4.4,1.8,3.3,1.8L0.8,1.7L0.8,0z M10.6,17.1l4.6,0.1
		c2.9,0.1,5-0.5,6.3-1.7c1.3-1.2,2-3.2,2.1-5.9c0-1.9-0.2-3.4-0.8-4.5c-0.6-1.1-1.4-1.8-2.5-2.4c-1.1-0.5-2.9-0.8-5.5-0.9
		c-1.7,0-2.8,0.1-3.2,0.4c-0.5,0.3-0.7,0.9-0.7,1.6L10.6,17.1z"/>
	<path fill="#ABA3CF" d="M31,13.1l7.7-0.2l-0.2,8.6c0.9-2.8,1.9-4.9,3.1-6.4c1.2-1.4,2.6-2.1,4.3-2.1c1.2,0,2.1,0.4,2.7,1.1
		c0.7,0.7,1,1.7,1,2.9c0,1-0.3,1.7-0.7,2.2c-0.5,0.5-1.1,0.8-1.8,0.8c-0.7,0-1.2-0.3-1.6-0.7c-0.4-0.5-0.6-1.1-0.6-1.9
		c0-0.5,0.1-1,0.4-1.4c0.2-0.4,0.4-0.6,0.4-0.7c0-0.2-0.1-0.3-0.4-0.4c-0.6,0-1.3,0.3-2.1,1c-1.1,1-2,2.4-2.6,4.1
		c-1,2.7-1.5,4.9-1.5,6.6l-0.1,4.6c0,0.5,0.2,0.9,0.5,1.2c0.4,0.3,1,0.4,1.9,0.5l2.7,0.1l0,1.7l-13.3-0.3l0-1.7l2.1,0.1
		c0.7,0,1.3-0.1,1.6-0.4c0.4-0.3,0.6-0.6,0.6-1l0.3-13.6c0-1-0.2-1.8-0.6-2.3c-0.4-0.5-1.1-0.7-1.9-0.8l-1.9,0L31,13.1z"/>
	<path fill="#ABA3CF" d="M62.2,13.2c2.9,0.1,5.3,1.2,7.2,3.3c1.9,2.1,2.8,4.9,2.7,8.3c-0.1,2.3-0.5,4.3-1.5,5.9
		c-0.9,1.6-2.2,2.9-3.8,3.8s-3.4,1.4-5.3,1.3c-2.8-0.1-5.1-1.2-7-3.3c-1.9-2.1-2.8-4.9-2.7-8.2c0.1-3.4,1.1-6.1,3.1-8.1
		C56.9,14.1,59.3,13.1,62.2,13.2z M62.1,14.8c-1.7,0-3.1,0.7-4.2,2.2c-1.1,1.5-1.7,3.9-1.8,7.3c-0.1,3.4,0.4,5.9,1.4,7.5
		c1,1.6,2.4,2.4,4.1,2.4c1.8,0,3.2-0.7,4.4-2.2s1.8-4.1,1.8-7.6c0.1-3.3-0.4-5.7-1.5-7.2C65.3,15.6,63.9,14.8,62.1,14.8z"/>
	<path fill="#ABA3CF" d="M87.8,2.1l8.3-0.2l-0.7,29.2c0,1.1,0.2,2,0.6,2.5c0.4,0.5,1.1,0.8,1.9,0.8l1.5,0l0,1.7l-7.3-0.2l-0.4-4.4
		c-0.9,1.5-1.9,2.7-3.1,3.4c-1.2,0.8-2.5,1.1-3.9,1.1c-2.4-0.1-4.5-1.1-6.1-3.2c-1.7-2.1-2.5-4.8-2.4-8.1c0.1-3.6,1.3-6.5,3.5-8.6
		c1.8-1.6,3.8-2.4,6-2.4c1.4,0,2.6,0.4,3.7,1.1c1.1,0.7,2,1.8,2.8,3.2L92.3,6c0-0.6-0.2-1.1-0.7-1.5c-0.5-0.4-1.2-0.6-2.3-0.6
		l-1.5,0L87.8,2.1z M86.1,15.7c-1.6,0-3,0.6-4,1.9c-1,1.3-1.5,3.6-1.6,6.8c-0.1,3.5,0.3,5.9,1.3,7.4c1,1.4,2.2,2.2,3.8,2.2
		c1.7,0,3.1-0.7,4.3-2.3c1.2-1.6,1.9-3.9,1.9-6.9c0.1-2.9-0.5-5.2-1.7-6.9C89.1,16.5,87.7,15.7,86.1,15.7z"/>
	<path fill="#ABA3CF" d="M109.5,14.6l-0.3,14.1c0,1.7,0.4,3.1,1.2,4c0.8,1,2,1.5,3.3,1.5c1.7,0,3.2-0.6,4.4-2
		c1.2-1.3,1.9-3.1,1.9-5.1l0.2-8c0-0.7-0.2-1.3-0.7-1.7c-0.5-0.4-1.5-0.7-3-0.7l0-1.6l7.5-0.2l-0.4,17.5c0,0.8,0.2,1.4,0.6,1.9
		c0.4,0.4,1.1,0.7,1.9,0.7l1.3,0l0,1.5l-7.2,0l-0.4-4.2c-1.3,1.5-2.6,2.6-3.9,3.3c-1.3,0.7-2.6,1.1-3.9,1c-1.9,0-3.5-0.7-4.8-2.1
		c-1.3-1.3-1.9-3.5-1.8-6.5l0.2-9.3c0-0.8-0.3-1.5-0.9-1.9c-0.4-0.3-1.4-0.5-2.8-0.6l0-1.6L109.5,14.6z"/>
	<path fill="#ABA3CF" d="M146.6,30.9l1.5,0.5c-1.3,4.3-4,6.4-8,6.3c-3-0.1-5.4-1.1-7.2-3.1c-1.8-2-2.7-4.6-2.6-7.9
		c0.1-3.8,1.2-6.7,3.3-8.7c2.1-2,4.6-3,7.4-2.9c2.1,0.1,3.8,0.7,5.2,1.9c1.3,1.2,2,2.5,2,3.9c0,0.9-0.3,1.5-0.8,2.1
		c-0.5,0.5-1.1,0.8-1.8,0.8c-0.7,0-1.3-0.3-1.7-0.7c-0.5-0.5-0.7-1.1-0.7-1.7c0-0.7,0.3-1.3,0.8-1.9c0.3-0.3,0.4-0.5,0.4-0.7
		c0-0.4-0.3-0.9-0.9-1.3c-0.6-0.4-1.4-0.7-2.4-0.7c-1.9,0-3.3,0.6-4.3,1.9c-1.4,1.9-2.2,4.5-2.2,7.7c-0.1,3,0.5,5.4,1.7,7
		c1.2,1.6,2.7,2.4,4.6,2.5C143.3,35.8,145.3,34.2,146.6,30.9z"/>
	<path fill="#ABA3CF" d="M157.2,7.4l1.5,0l-0.2,8.7l6.9,0.2l0,2.1l-6.9-0.2l-0.3,13.7c0,1.2,0.2,2.1,0.8,2.7c0.5,0.6,1.3,1,2.1,1
		c1,0,1.9-0.4,2.7-1.4c0.8-0.9,1.2-2.5,1.4-4.7l1.5,0c-0.2,2.8-0.9,4.9-2.1,6.3c-1.2,1.3-2.8,2-4.7,1.9c-1.8,0-3.1-0.6-4.1-1.5
		s-1.4-2.3-1.4-3.8l0.3-14.3l-3.7-0.1l0-1.6c1.7-0.2,3-0.9,3.9-2C156.3,12.8,157,10.4,157.2,7.4z"/>
</g>
</svg>
