<!-- Generator: Adobe Illustrator 18.0.0, SVG Export Plug-In  -->
<svg version="1.1"
	 xmlns="http://www.w3.org/2000/svg" xmlns:xlink="http://www.w3.org/1999/xlink" xmlns:a="http://ns.adobe.com/AdobeSVGViewerExtensions/3.0/"
	 x="0px" y="0px" width="153.6px" height="44.1px" viewBox="0 0 153.6 44.1" enable-background="new 0 0 153.6 44.1"
	 xml:space="preserve">
<defs>
</defs>
<g>
	<path fill="#FFFFFF" d="M17.7,43.8l-6,0.3l-1.7-31.7l-9.8,0.5L0,7.8l25.5-1.3l0.3,5.1L16,12.1L17.7,43.8z"/>
	<path fill="#FFFFFF" d="M30.5,22.1c2.3-2.6,5.6-4,9-4.2c3.6-0.2,6.9,0.9,9.5,3.3c2.6,2.3,4.2,5.4,4.3,8.8c0.2,3.6-1,6.8-3.3,9.3
		c-2.4,2.6-5.6,4.1-9.2,4.3c-3.5,0.2-6.8-1-9.4-3.3c-2.7-2.3-4.2-5.4-4.3-8.9C27,27.9,28.1,24.6,30.5,22.1z M39.9,22.8
		c-4.1,0.2-7.2,3.8-6.9,8.3c0.2,4.5,3.7,7.8,7.8,7.5c4-0.2,7.2-3.8,7-8.3C47.4,25.8,43.9,22.6,39.9,22.8z"/>
	<path fill="#FFFFFF" d="M60.8,20.5c2.3-2.5,5.6-4,9-4.2c3.6-0.2,6.9,0.9,9.5,3.3c2.6,2.3,4.2,5.4,4.3,8.8c0.2,3.6-1,6.8-3.3,9.3
		c-2.4,2.6-5.6,4.1-9.2,4.3c-3.5,0.2-6.8-1-9.4-3.3c-2.7-2.3-4.2-5.4-4.3-8.9C57.3,26.3,58.4,23,60.8,20.5z M70.2,21.2
		c-4.1,0.2-7.2,3.8-6.9,8.3c0.2,4.5,3.7,7.8,7.8,7.5c4-0.2,7.2-3.8,6.9-8.3C77.7,24.3,74.2,21,70.2,21.2z"/>
	<path fill="#FFFFFF" d="M88.3,1l5.5-0.3l2,39L90.4,40L88.3,1z"/>
	<path fill="#FFFFFF" d="M101.5,0.3L107,0l1.3,25l9.5-10.4l6.7-0.4l-10.3,11.1l12.5,12.7l-7.1,0.4l-11.4-11.7L109,39l-5.5,0.3
		L101.5,0.3z"/>
	<path fill="#FFFFFF" d="M131.2,0.2c1.9-0.1,3.5,1.3,3.6,3.2c0.1,2-1.3,3.5-3.2,3.6c-1.9,0.1-3.5-1.4-3.6-3.3
		C127.8,1.9,129.3,0.3,131.2,0.2z M129.2,14l5.5-0.3l1.2,23.8l-5.5,0.3L129.2,14z"/>
	<path fill="#FFFFFF" d="M143.9,18.1l-4.2,0.2l-0.3-4.8l4.2-0.2l-0.5-9l5.5-0.3l0.5,9l4.2-0.2l0.3,4.8l-4.2,0.2l1,19.1l-5.5,0.3
		L143.9,18.1z"/>
</g>
</svg>
