<!-- Generator: Adobe Illustrator 18.0.0, SVG Export Plug-In  -->
<svg version="1.1"
	 xmlns="http://www.w3.org/2000/svg" xmlns:xlink="http://www.w3.org/1999/xlink" xmlns:a="http://ns.adobe.com/AdobeSVGViewerExtensions/3.0/"
	 x="0px" y="0px" width="230px" height="230px" viewBox="0 0 230 230" enable-background="new 0 0 230 230" xml:space="preserve">
<defs>
</defs>
<g>
	<path fill="#1DAFBE" d="M225,98h-21.7c-2.3-12-7-23.1-13.5-32.8l15.4-15.5c1.9-1.9,1.9-5.2,0-7.1l-17.7-17.7c-1.9-1.9-5.1-2-7.1,0
		l-15.6,15.3C155.1,33.7,144,29,132,26.7V5c0-2.8-1.8-5-4.5-5h-25C99.8,0,97,2.2,97,5v21.7c-11,2.3-22.6,7-32.3,13.5L49.5,24.8
		c-1.9-1.9-5.1-1.9-7,0L24.8,42.5c-1.9,1.9-1.9,5.1,0,7.1l15.4,15.6C33.7,74.9,29,86,26.7,98H5c-2.8,0-5,1.8-5,4.5v25
		c0,2.8,2.2,5.5,5,5.5h21.7c2.3,11,7,22.6,13.5,32.3l-15.4,15.2c-1.9,1.9-1.9,5.1,0,7l17.7,17.6c1.9,1.9,5.1,1.9,7.1,0l15.1-15.4
		C74.4,196.3,86,201,97,203.3V225c0,2.8,2.8,5,5.5,5h25c2.8,0,4.5-2.2,4.5-5v-21.7c12-2.3,23.1-7,32.8-13.5l15.5,15.4
		c1.9,1.9,5.2,1.9,7.1,0l17.7-17.7c1.9-1.9,2-5.1,0-7.1l-15.3-15.1c6.5-9.7,11.2-21.3,13.5-32.3H225c2.8,0,5-2.8,5-5.5v-25
		C230,99.8,227.8,98,225,98z M115,175c-33.1,0-60-26.9-60-60s26.9-60,60-60s60,26.9,60,60S148.1,175,115,175z"/>
	<path fill="#1B93A2" d="M225,98h-21.7c-2.3-12-7-23.1-13.5-32.8l15.4-15.5c1.9-1.9,1.9-5.2,0-7.1l-17.7-17.7c-1.9-1.9-5.1-2-7.1,0
		l-15.6,15.3C155.1,33.7,144,29,132,26.7V5c0-2.8-1.8-5-4.5-5H115v55c33.1,0,60,26.9,60,60s-26.9,60-60,60v55h12.5
		c2.8,0,4.5-2.2,4.5-5v-21.7c12-2.3,23.1-7,32.8-13.5l15.5,15.4c1.9,1.9,5.2,1.9,7.1,0l17.7-17.7c1.9-1.9,2-5.1,0-7.1l-15.3-15.1
		c6.5-9.7,11.2-21.3,13.5-32.3H225c2.8,0,5-2.8,5-5.5v-25C230,99.8,227.8,98,225,98z"/>
	<path fill="#1B93A2" d="M115,45c-38.7,0-70,31.3-70,70c0,38.7,31.3,70,70,70s70-31.3,70-70C185,76.3,153.7,45,115,45z M115,175
		c-33.1,0-60-26.9-60-60s26.9-60,60-60s60,26.9,60,60S148.1,175,115,175z"/>
	<path fill="#1DAFBE" d="M115,45v10c33.1,0,60,26.9,60,60s-26.9,60-60,60v10c38.7,0,70-31.3,70-70C185,76.3,153.7,45,115,45z"/>
</g>
</svg>
